<?xml version="1.0" encoding="UTF-8" standalone="no"?>
<!-- Created with Inkscape (http://www.inkscape.org/) -->

<svg
   width="19.995205mm"
   height="19.072454mm"
   viewBox="0 0 19.995205 19.072454"
   version="1.1"
   id="svg5"
   inkscape:version="1.1.1 (3bf5ae0d25, 2021-09-20)"
   sodipodi:docname="big-data-icon2.svg"
   xmlns:inkscape="http://www.inkscape.org/namespaces/inkscape"
   xmlns:sodipodi="http://sodipodi.sourceforge.net/DTD/sodipodi-0.dtd"
   xmlns="http://www.w3.org/2000/svg"
   xmlns:svg="http://www.w3.org/2000/svg">
  <sodipodi:namedview
     id="namedview7"
     pagecolor="#505050"
     bordercolor="#eeeeee"
     borderopacity="1"
     inkscape:pageshadow="0"
     inkscape:pageopacity="0"
     inkscape:pagecheckerboard="0"
     inkscape:document-units="mm"
     showgrid="false"
     inkscape:zoom="2.947377"
     inkscape:cx="128.24963"
     inkscape:cy="8.9910452"
     inkscape:window-width="1920"
     inkscape:window-height="1057"
     inkscape:window-x="1912"
     inkscape:window-y="-8"
     inkscape:window-maximized="1"
     inkscape:current-layer="layer1" />
  <defs
     id="defs2">
    <clipPath
       id="clip0">
      <rect
         width="80"
         height="80"
         fill="#ffffff"
         id="rect830"
         x="0"
         y="0" />
    </clipPath>
    <style
       id="style870">.cls-1{fill-rule:evenodd;}</style>
  </defs>
  <g
     inkscape:label="Layer 1"
     inkscape:groupmode="layer"
     id="layer1"
     transform="translate(-71.034723,-146.10323)">
    <path
       d="m 83.291365,154.60561 -0.08792,0.0456 -0.09281,0.0521 c -0.09606,0.057 -0.1905,0.11886 -0.283308,0.18399 -0.09281,0.0651 -0.187244,0.14003 -0.284936,0.21981 a 0.08629487,0.08629487 0 0 1 -0.120487,-0.013 L 82.00834,154.6203 a 0.08466667,0.08466667 0 0 1 0,-0.11885 c 0.07327,-0.0668 0.149795,-0.13352 0.227948,-0.19376 0.07815,-0.0602 0.162821,-0.12049 0.247488,-0.17748 0.08467,-0.057 0.136769,-0.0847 0.206782,-0.12374 0.07001,-0.0391 0.143282,-0.0765 0.213295,-0.10909 l 0.08629,-0.0407 a 2.4423077,2.4423077 0 0 0 -1.029021,-0.93134 2.6051282,2.6051282 0 0 0 -0.667564,-0.21492 2.6979359,2.6979359 0 0 0 -0.714782,-0.0277 2.5872179,2.5872179 0 0 0 -0.691988,0.16282 2.3902051,2.3902051 0 0 0 -0.605692,0.3403 2.3201923,2.3201923 0 0 0 -0.579641,0.6643 2.6572308,2.6572308 0 0 0 -0.315872,0.85318 l -0.04071,0.21655 a 0.08629487,0.08629487 0 0 1 -0.07001,0.0684 l -0.214923,0.0375 c -0.102577,0.0179 -0.200269,0.0391 -0.291448,0.0635 -0.09118,0.0244 -0.177475,0.0537 -0.255629,0.0847 a 1.651,1.651 0 0 0 -0.216551,0.0993 1.6135513,1.6135513 0 0 0 -0.1905,0.11723 1.4295641,1.4295641 0 0 0 -0.130256,0.10746 1.3025641,1.3025641 0 0 0 -0.343552,0.52916 1.4653846,1.4653846 0 0 0 -0.07815,0.48847 1.6168077,1.6168077 0 0 0 0.08304,0.48846 1.6705385,1.6705385 0 0 0 0.226321,0.44613 1.769859,1.769859 0 0 0 0.120487,0.14816 1.6851923,1.6851923 0 0 0 0.136769,0.12863 1.1771923,1.1771923 0 0 0 0.162821,0.11072 v 0 a 1.1934744,1.1934744 0 0 0 0.16282,0.0847 1.3986282,1.3986282 0 0 0 0.197013,0.0668 1.6477436,1.6477436 0 0 0 0.213295,0.0423 h 6.231142 a 3.4811026,3.4811026 0 0 0 0.405423,-0.12375 2.4146282,2.4146282 0 0 0 0.358205,-0.16282 1.7910256,1.7910256 0 0 0 0.294705,-0.20027 1.3807179,1.3807179 0 0 0 0.451013,-0.70176 2.1459744,2.1459744 0 0 0 0.08467,-0.59266 2.421141,2.421141 0 0 0 -0.07327,-0.62686 1.8024231,1.8024231 0 0 0 -0.219807,-0.51614 c -0.02931,-0.044 -0.06024,-0.0863 -0.08955,-0.12537 -0.02931,-0.0391 -0.0635,-0.0782 -0.09606,-0.11235 a 1.4393333,1.4393333 0 0 0 -0.47707,-0.33867 1.4963205,1.4963205 0 0 0 -0.578013,-0.11723 1.896859,1.896859 0 0 0 -0.424961,0.0456 2.3495,2.3495 0 0 0 -0.434731,0.14491 z m -4.946487,-1.6282 -1.302564,-1.30257 a 2.0727051,2.0727051 0 0 1 -2.520461,-0.32564 v 0 a 2.0661923,2.0661923 0 0 1 -0.02605,-2.89983 l 0.02605,-0.0293 v 0 a 2.0710769,2.0710769 0 0 1 2.93077,0 v 0 a 2.0710769,2.0710769 0 0 1 0.325641,2.5172 l 1.374205,1.37421 a 3.3036282,3.3036282 0 0 1 0.446128,-0.21492 3.3964359,3.3964359 0 0 1 0.913423,-0.21656 3.4436538,3.4436538 0 0 1 0.794564,0.0163 v -1.79103 a 2.0613077,2.0613077 0 0 1 -0.949243,-0.54219 v 0 a 2.0727051,2.0727051 0 0 1 2.903089,-2.94868 l 0.02931,0.0277 a 2.0694487,2.0694487 0 0 1 0,2.93077 v 0 a 2.0645641,2.0645641 0 0 1 -0.947615,0.54219 v 2.09713 a 3.2564103,3.2564103 0 0 1 1.465384,1.42142 l 1.628206,-1.61029 a 2.0727051,2.0727051 0 0 1 0.325641,-2.51721 v 0 a 2.0661923,2.0661923 0 0 1 2.872153,-0.026 l 0.02931,0.026 v 0 a 2.0710769,2.0710769 0 0 1 0,2.93077 v 0 a 2.0727051,2.0727051 0 0 1 -2.515577,0.32564 l -1.050192,1.05834 a 2.2078462,2.2078462 0 0 1 0.691987,0.50474 c 0.04722,0.0521 0.09444,0.10746 0.140026,0.16282 0.04559,0.0554 0.08629,0.11723 0.128628,0.18073 a 2.5921026,2.5921026 0 0 1 0.325641,0.73432 3.183141,3.183141 0 0 1 0.105833,0.85318 v 0.0358 h 0.488462 a 2.0613077,2.0613077 0 0 1 0.542192,-0.94924 v 0 a 2.0727051,2.0727051 0 0 1 2.956821,2.90309 l -0.02768,0.0293 a 2.0743333,2.0743333 0 0 1 -2.930769,0 v 0 a 2.0515385,2.0515385 0 0 1 -0.542192,-0.94599 H 86.27587 a 2.0759615,2.0759615 0 0 1 -0.260512,0.46241 2.2290128,2.2290128 0 0 1 -0.34518,0.36635 2.5595385,2.5595385 0 0 1 -0.424961,0.2947 3.4192308,3.4192308 0 0 1 -0.488462,0.21981 4.9904487,4.9904487 0 0 1 -0.545449,0.16282 6.1595,6.1595 0 0 1 -0.657795,0.0619 l 1.510975,1.51097 a 2.0727051,2.0727051 0 0 1 2.520461,0.32564 v 0 a 2.0661923,2.0661923 0 0 1 0.02605,2.89984 l -0.02605,0.0293 v 0 a 2.0710769,2.0710769 0 0 1 -2.930769,0 v 0 a 2.0710769,2.0710769 0 0 1 -0.325641,-2.51721 l -2.207846,-2.22575 c -0.423333,0 -0.87109,0 -1.317218,-0.0179 v 2.21924 a 2.0906154,2.0906154 0 0 1 0.949244,0.54382 v 0 a 2.0727051,2.0727051 0 0 1 -2.903094,2.95682 l -0.02931,-0.026 a 2.0710769,2.0710769 0 0 1 0,-2.93077 v 0 a 2.0938718,2.0938718 0 0 1 0.947616,-0.54219 v -2.24693 c -0.739206,-0.0195 -1.408398,-0.0391 -1.867552,-0.0391 l -1.214641,1.21301 a 2.0727051,2.0727051 0 0 1 -0.325641,2.52046 v 0 a 2.0661923,2.0661923 0 0 1 -2.899833,0.026 l -0.02931,-0.026 v 0 a 2.0710769,2.0710769 0 0 1 0,-2.93077 v 0 a 2.0710769,2.0710769 0 0 1 2.517205,-0.32564 l 0.843411,-0.84178 a 1.8073077,1.8073077 0 0 1 -0.187244,-0.14003 v 0 a 2.3218205,2.3218205 0 0 1 -0.205154,-0.19375 2.1785385,2.1785385 0 0 1 -0.179102,-0.21818 2.4276538,2.4276538 0 0 1 -0.460783,-1.41003 2.3039103,2.3039103 0 0 1 0.10909,-0.71967 H 75.12917 a 2.0613077,2.0613077 0 0 1 -0.542192,0.94925 v 0 a 2.0730303,2.0730303 0 0 1 -2.958449,-2.90472 l 0.02768,-0.0293 a 2.0694487,2.0694487 0 0 1 2.930769,0 v 0 a 2.0645641,2.0645641 0 0 1 0.542192,0.94762 h 1.47841 l 0.03256,-0.0228 a 2.3608974,2.3608974 0 0 1 0.278424,-0.17259 2.5872179,2.5872179 0 0 1 0.3175,-0.14165 c 0.07653,-0.0293 0.154679,-0.057 0.236089,-0.0814 0.08141,-0.0244 0.130257,-0.0375 0.197013,-0.0537 a 3.3459615,3.3459615 0 0 1 0.413564,-0.94599 2.9307692,2.9307692 0 0 1 0.268654,-0.3582 z m 3.472962,-3.74488 a 1.1218333,1.1218333 0 0 0 0.791307,-1.91802 l -0.01954,-0.0212 a 1.1234615,1.1234615 0 0 0 -1.566331,1.60867 v 0 a 1.1169487,1.1169487 0 0 0 0.792936,0.32564 z m -5.018128,1.43282 a 1.1250897,1.1250897 0 0 0 -0.01954,-1.56633 v 0 a 1.1218333,1.1218333 0 0 0 -1.585872,0 v 0 l -0.01954,0.0195 a 1.1267179,1.1267179 0 0 0 0.01954,1.56796 v 0 a 1.1234615,1.1234615 0 0 0 1.5875,0 v 0 l 0.02117,-0.0195 z m -2.556282,4.60782 a 1.1218333,1.1218333 0 0 0 -1.91477,-0.79456 l -0.02117,0.0228 a 1.1234615,1.1234615 0 0 0 1.608667,1.56633 v 0 a 1.1104359,1.1104359 0 0 0 0.325641,-0.79131 z m 1.43282,5.01813 a 1.1267179,1.1267179 0 0 0 -1.567962,0.0195 v 0 a 1.1218333,1.1218333 0 0 0 0,1.58587 v 0 l 0.01954,0.0195 a 1.1250897,1.1250897 0 0 0 1.566334,-0.0195 v 0 a 1.1234615,1.1234615 0 0 0 0,-1.5875 v 0 l -0.01954,-0.0212 z m 4.609449,1.71776 a 1.1218333,1.1218333 0 0 0 -0.792936,1.91314 l 0.0228,0.0228 a 1.1220487,1.1220487 0 0 0 1.566333,-1.60703 v 0 a 1.1169487,1.1169487 0 0 0 -0.792936,-0.32564 z m 5.019756,-0.5943 a 1.1267179,1.1267179 0 0 0 0.01954,1.56797 v 0 a 1.1218333,1.1218333 0 0 0 1.585871,0 v 0 l 0.01954,-0.0195 a 1.1250897,1.1250897 0 0 0 -0.01954,-1.56634 v 0 a 1.1234615,1.1234615 0 0 0 -1.5875,0 v 0 l -0.02117,0.0195 z m 2.556282,-4.61107 a 1.1218333,1.1218333 0 0 0 1.911513,0.7913 l 0.02117,-0.0195 a 1.1234615,1.1234615 0 0 0 -1.60867,-1.56633 v 0 a 1.1169487,1.1169487 0 0 0 -0.325641,0.79294 z m -1.43282,-5.01813 a 1.1250897,1.1250897 0 0 0 1.566333,-0.0195 v 0 a 1.1218333,1.1218333 0 0 0 0,-1.58587 v 0 l -0.01954,-0.0195 a 1.1267179,1.1267179 0 0 0 -1.567962,0.0195 v 0 a 1.1234615,1.1234615 0 0 0 0,1.5875 v 0 l 0.01954,0.0212 z"
       id="path1205"
       style="stroke-width:0.162821;fill:#f9aa4b;fill-opacity:1" />
  </g>
  <style
     type="text/css"
     id="style856">.st0{fill-rule:evenodd;clip-rule:evenodd;}</style>
</svg>
