<?xml version="1.0" encoding="UTF-8" standalone="no"?>
<!-- Created with Inkscape (http://www.inkscape.org/) -->

<svg
   width="20.047705mm"
   height="17.761168mm"
   viewBox="0 0 20.047705 17.761168"
   version="1.1"
   id="svg1560"
   inkscape:version="1.1.1 (3bf5ae0d25, 2021-09-20)"
   sodipodi:docname="stock-market-icon2.svg"
   xmlns:inkscape="http://www.inkscape.org/namespaces/inkscape"
   xmlns:sodipodi="http://sodipodi.sourceforge.net/DTD/sodipodi-0.dtd"
   xmlns="http://www.w3.org/2000/svg"
   xmlns:svg="http://www.w3.org/2000/svg">
  <sodipodi:namedview
     id="namedview1562"
     pagecolor="#505050"
     bordercolor="#eeeeee"
     borderopacity="1"
     inkscape:pageshadow="0"
     inkscape:pageopacity="0"
     inkscape:pagecheckerboard="0"
     inkscape:document-units="mm"
     showgrid="false"
     inkscape:zoom="1.4254587"
     inkscape:cx="327.61384"
     inkscape:cy="-13.679807"
     inkscape:window-width="1920"
     inkscape:window-height="1057"
     inkscape:window-x="1912"
     inkscape:window-y="-8"
     inkscape:window-maximized="1"
     inkscape:current-layer="layer1" />
  <defs
     id="defs1557">
    <style
       id="style1583">.cls-1{fill-rule:evenodd;}</style>
  </defs>
  <g
     inkscape:label="Layer 1"
     inkscape:groupmode="layer"
     id="layer1"
     transform="translate(-18.311849,-152.03816)">
    <path
       class="cls-1"
       d="m 18.311849,155.20491 a 0.99809,0.99809 0 0 1 1.99618,0 v 12.59905 h 17.013115 a 0.99808974,0.99808974 0 1 1 0,1.99455 H 18.311849 Z m 17.555308,-1.82034 a 1.1022949,1.1022949 0 1 1 -0.651282,1.99293 l -2.352757,1.79102 a 1.0648462,1.0648462 0 0 1 0.0098,0.14491 1.1022949,1.1022949 0 0 1 -2.202961,0 1.0729872,1.0729872 0 0 1 0.01954,-0.20678 l -1.208161,-0.87109 v 0 a 2.4553333,2.4553333 0 0 1 -3.472961,0 c -0.04722,-0.0472 -0.09281,-0.0977 -0.135141,-0.14817 l -1.232552,0.87598 a 1.0599615,1.0599615 0 0 1 0.05536,0.34681 1.1006667,1.1006667 0 1 1 -1.100666,-1.1023 1.0827564,1.0827564 0 0 1 0.447756,0.0961 l 1.385603,-0.9867 a 2.4569615,2.4569615 0 1 1 4.772269,-0.8141 2.4325385,2.4325385 0 0 1 -0.214923,1.0046 l 1.2065,0.87109 a 1.1006667,1.1006667 0 0 1 1.209756,0.0309 l 2.370667,-1.80242 a 1.0046026,1.0046026 0 0 1 0,-0.12212 1.1006667,1.1006667 0 0 1 1.100667,-1.10067 z m -7.297616,0.65943 c -0.312615,-0.0342 -0.540564,-0.0505 -0.682218,-0.0505 a 1.3139615,1.3139615 0 0 0 -0.245859,0.007 0.04721795,0.04721795 0 0 0 -0.03419,0.0472 0.06512821,0.06512821 0 0 0 0.04071,0.057 1.5695897,1.5695897 0 0 0 0.226321,0.0602 c 0.122115,0.0277 0.224692,0.0521 0.302846,0.0765 a 1.5419103,1.5419103 0 0 1 0.227949,0.0896 0.40216667,0.40216667 0 0 1 0.16282,0.12863 0.80107692,0.80107692 0 0 1 0.102577,0.4445 0.72292308,0.72292308 0 0 1 -0.201897,0.57313 0.5389359,0.5389359 0 0 1 -0.449385,0.18887 v 0.24749 h -0.532423 v -0.24261 a 2.2794872,2.2794872 0 0 1 -0.534051,-0.0944 l -0.104205,-0.0228 0.03094,-0.58778 a 5.8615385,5.8615385 0 0 0 0.833641,0.0749 0.35820513,0.35820513 0 0 0 0.135141,-0.0179 0.06187179,0.06187179 0 0 0 0.03745,-0.057 0.05210256,0.05210256 0 0 0 -0.03908,-0.0505 1.9538462,1.9538462 0 0 0 -0.214923,-0.0407 1.2520897,1.2520897 0 0 1 -0.631743,-0.22306 0.66430769,0.66430769 0 0 1 -0.162821,-0.50637 c 0,-0.28657 0.06676,-0.48847 0.200269,-0.59918 a 0.5405641,0.5405641 0 0 1 0.455898,-0.17585 v -0.28494 h 0.527538 v 0.27843 a 3.1391795,3.1391795 0 0 1 0.467295,0.0635 l 0.10909,0.0179 z m -0.814102,-1.5875 a 2.0450256,2.0450256 0 1 1 -2.053167,2.04502 2.0450256,2.0450256 0 0 1 2.053167,-2.04502 z m 7.08432,5.50659 h 2.066193 a 0.21655128,0.21655128 0 0 1 0.216551,0.21655 v 8.03193 a 0.21817949,0.21817949 0 0 1 -0.216551,0.21656 h -2.072706 a 0.21817949,0.21817949 0 0 1 -0.216551,-0.21656 v -8.03193 a 0.21655128,0.21655128 0 0 1 0.216551,-0.21655 z m -4.094936,2.75004 h 2.066193 a 0.21817949,0.21817949 0 0 1 0.216551,0.21655 v 5.28189 a 0.21817949,0.21817949 0 0 1 -0.216551,0.21656 h -2.066193 a 0.21817949,0.21817949 0 0 1 -0.221436,-0.21656 v -5.28189 a 0.21817949,0.21817949 0 0 1 0.216552,-0.21655 z m -4.090051,-2.75004 h 2.066192 a 0.21655128,0.21655128 0 0 1 0.216552,0.21655 v 8.03193 a 0.21817949,0.21817949 0 0 1 -0.216552,0.21656 h -2.066192 a 0.21817949,0.21817949 0 0 1 -0.216551,-0.21656 v -8.03193 a 0.21655128,0.21655128 0 0 1 0.216551,-0.21655 z m -4.088423,3.20105 h 2.066192 a 0.21817949,0.21817949 0 0 1 0.216552,0.21655 v 4.83088 a 0.21817949,0.21817949 0 0 1 -0.216552,0.21656 h -2.066192 a 0.21817949,0.21817949 0 0 1 -0.216551,-0.21656 v -4.83739 a 0.21817949,0.21817949 0 0 1 0.216551,-0.21004 z"
       id="path1589"
       style="stroke-width:0.162821;fill:#f9aa4b;fill-opacity:1" />
  </g>
</svg>
