<?xml version="1.0" encoding="UTF-8" standalone="no"?>
<!-- Created with Inkscape (http://www.inkscape.org/) -->

<svg
   width="17.066521mm"
   height="17.607189mm"
   viewBox="0 0 17.066521 17.607189"
   version="1.1"
   id="svg64689"
   inkscape:version="1.1.1 (3bf5ae0d25, 2021-09-20)"
   sodipodi:docname="strata.svg"
   xmlns:inkscape="http://www.inkscape.org/namespaces/inkscape"
   xmlns:sodipodi="http://sodipodi.sourceforge.net/DTD/sodipodi-0.dtd"
   xmlns="http://www.w3.org/2000/svg"
   xmlns:svg="http://www.w3.org/2000/svg">
  <sodipodi:namedview
     id="namedview64691"
     pagecolor="#505050"
     bordercolor="#eeeeee"
     borderopacity="1"
     inkscape:pageshadow="0"
     inkscape:pageopacity="0"
     inkscape:pagecheckerboard="0"
     inkscape:document-units="mm"
     showgrid="false"
     inkscape:zoom="0.74118967"
     inkscape:cx="101.18867"
     inkscape:cy="130.19609"
     inkscape:window-width="1920"
     inkscape:window-height="1017"
     inkscape:window-x="-8"
     inkscape:window-y="-8"
     inkscape:window-maximized="1"
     inkscape:current-layer="layer1" />
  <defs
     id="defs64686" />
  <g
     inkscape:label="Layer 1"
     inkscape:groupmode="layer"
     id="layer1"
     transform="translate(-78.21073,-114.35145)">
    <g
       id="g64666"
       transform="translate(-18.389941,-54.589137)">
      <path
         id="path44920"
         style="fill:#000000;stroke-width:1"
         d="m 105.1154,168.94059 c -8.514771,0 -8.514729,1.9e-4 -8.514729,8.8036 0,8.80341 -4.2e-5,8.80359 8.514729,8.80359 8.51477,0 8.51473,-1.8e-4 8.51473,-8.80359 0,-8.80341 4e-5,-8.8036 -8.51473,-8.8036 z m -0.0734,1.47329 c 1.01297,-0.0244 1.99922,0.41768 3.65249,1.30949 3.72971,2.01188 3.49281,1.60349 3.49281,6.02082 0,4.41733 0.2369,4.00893 -3.49281,6.02082 -3.2975,1.77873 -3.93435,1.76261 -7.46828,-0.18862 -1.665821,-0.91978 -2.87733,-1.79059 -3.098519,-2.22777 -0.485528,-0.95887 -0.485023,-6.25158 5.3e-4,-7.21248 0.223041,-0.44141 1.426585,-1.30834 3.099039,-2.23294 1.76205,-0.97414 2.80178,-1.46489 3.81475,-1.48932 z m 1.56838,2.57504 c -0.002,-0.001 -8e-4,0.0246 0.002,0.0506 0.005,1e-4 0.01,2.4e-4 0.0145,5.3e-4 -0.007,-0.0256 -0.0135,-0.05 -0.0155,-0.0512 z m -4.97799,1.98799 c -0.004,0.002 -0.008,0.004 -0.01,0.006 0.008,0.004 0.0158,0.007 0.0217,0.01 -0.004,-0.005 -0.008,-0.0105 -0.0119,-0.016 z m 4.17855,5.0736 c 0.003,0.0283 0.006,0.0571 0.01,0.092 0.004,0.0332 0.0448,0.1256 0.0398,0.0925 -0.0101,-0.0621 0.007,-0.16525 -0.0496,-0.18448 z m -0.6351,0.89555 c -1.6e-4,7e-5 0.0114,0.0261 0.0217,0.0724 10e-4,2.4e-4 0.002,2.4e-4 0.004,5.2e-4 l -0.003,-0.0357 c -0.016,-0.0245 -0.0226,-0.0373 -0.0227,-0.0372 z" />
      <path
         style="opacity:0.93;fill:#ffff00;fill-rule:evenodd;stroke:#000000;stroke-width:0.3;stroke-linecap:round;stroke-linejoin:round"
         d="m 103.59706,182.64266 c -1.20236,-0.58835 -3.42094,-1.87961 -3.905416,-2.27304 -0.3657,-0.29697 -0.31225,-0.43263 0.381606,-0.9685 0.302,-0.23325 0.54927,-0.47652 0.54947,-0.5406 2.1e-4,-0.0641 -0.25617,-0.28717 -0.56974,-0.49576 -0.451616,-0.30042 -0.577286,-0.44106 -0.604606,-0.67669 -0.0297,-0.2556 0.0471,-0.37115 0.54533,-0.82112 l 0.579826,-0.52366 -0.57288,-0.51743 c -0.369246,-0.33352 -0.571886,-0.59416 -0.570116,-0.7333 0.004,-0.33907 0.604566,-0.75691 2.402396,-1.67234 0.91081,-0.46377 1.7873,-0.9537 1.94777,-1.08872 0.54672,-0.46004 1.40175,-0.30052 3.18089,0.59345 1.07867,0.54199 2.30152,1.28322 3.07174,1.86192 l 0.53616,0.40284 -0.62554,0.59528 -0.62554,0.59529 0.5631,0.50516 c 0.81199,0.72846 0.76867,1.04425 -0.21083,1.53673 -0.23177,0.11652 -0.42139,0.27443 -0.42139,0.35091 0,0.0765 0.24363,0.34719 0.54141,0.60159 0.62538,0.53428 0.75014,0.7915 0.48388,0.99759 -0.72805,0.56354 -4.64983,2.61649 -5.2894,2.76887 -0.1809,0.0431 -0.5584,-0.0925 -1.38812,-0.49847 z"
         id="path45860" />
      <path
         style="opacity:0.93;fill:#ffffff;fill-rule:evenodd;stroke:#000000;stroke-width:0.3;stroke-linecap:round;stroke-linejoin:round"
         d="m 103.22667,177.68376 c -1.63984,-0.84491 -3.1997,-1.78849 -3.676713,-2.22409 l -0.40718,-0.37182 0.40985,-0.37505 c 0.22541,-0.20627 1.140093,-0.74792 2.032603,-1.20364 0.89251,-0.45573 1.77892,-0.94508 1.96978,-1.08744 0.29077,-0.21688 0.45152,-0.25884 0.99152,-0.25884 0.57464,0 0.76172,0.0566 1.72634,0.52209 1.43854,0.69422 3.00577,1.63556 3.59551,2.15959 0.42637,0.37887 0.46231,0.44162 0.32979,0.5759 -0.29487,0.29878 -2.25822,1.46666 -3.55089,2.11221 -1.82599,0.91188 -1.93473,0.91668 -3.42061,0.15109 z m 3.50119,-0.83762 c 1.27796,-0.73074 2.28049,-1.43032 2.28049,-1.59137 0,-0.22015 -1.63644,-1.16907 -2.49638,-1.44758 -0.32843,-0.10637 -0.41611,-0.092 -0.88313,0.14465 -0.28518,0.14451 -0.81268,0.45753 -1.17223,0.69559 -0.80437,0.53259 -1.36207,0.77603 -1.45041,0.63309 -0.12557,-0.20318 0.0496,-0.3696 1.01088,-0.96035 0.5366,-0.32976 1.05762,-0.69018 1.15784,-0.80093 0.55193,-0.60997 -0.33489,-0.81516 -1.3897,-0.32155 -0.88205,0.41276 -2.17796,1.20541 -2.65942,1.62664 -0.51307,0.44889 -0.45148,0.55198 0.70019,1.17191 1.32502,0.71325 1.30333,0.71364 2.89649,-0.0531 0.74849,-0.36022 1.51706,-0.68453 1.70793,-0.72069 l 0.34703,-0.0657 -0.19796,0.22347 c -0.10888,0.12291 -0.6092,0.46888 -1.11182,0.76882 -1.34406,0.80207 -1.62917,1.11801 -1.2745,1.41236 0.0783,0.065 0.26794,0.1532 0.42139,0.19602 0.31828,0.0888 0.50567,0.008 2.11331,-0.91126 z"
         id="path45610-2" />
      <path
         style="opacity:0.93;fill:#ffffff;fill-rule:evenodd;stroke:#000000;stroke-width:0.3;stroke-linecap:round;stroke-linejoin:round"
         d="m 103.16059,183.00828 c -1.43994,-0.8492 -3.521283,-2.28871 -4.148168,-2.86898 -0.338616,-0.31344 -0.259354,-0.52218 0.436059,-1.14849 0.668159,-0.60177 0.958729,-0.55979 2.516029,0.36357 1.62426,0.96302 2.67301,1.36174 3.28158,1.24759 0.58896,-0.11052 1.88722,-0.72553 3.05004,-1.44496 1.16766,-0.72243 1.52762,-0.74992 2.17573,-0.1662 0.69573,0.62657 0.77449,0.83455 0.43605,1.15149 -0.90639,0.84878 -5.56788,3.77159 -6.0152,3.77159 -0.10811,0 -0.88754,-0.40754 -1.73212,-0.90561 z"
         id="path45686" />
      <path
         style="opacity:0.93;fill:#000080;fill-rule:evenodd;stroke:#000000;stroke-width:0;stroke-linecap:round;stroke-linejoin:round;stroke-miterlimit:4;stroke-dasharray:none"
         d="m 395.12698,671.07568 c -0.35519,-0.14204 -0.78571,-0.38969 -0.95672,-0.55034 -0.30762,-0.289 -0.30834,-0.29616 -0.0677,-0.67627 0.36178,-0.57139 1.3781,-1.35534 3.38359,-2.60997 3.76852,-2.35757 5.05069,-3.24376 5.85843,-4.04914 0.67204,-0.67008 0.8265,-0.90108 0.79261,-1.18537 -0.0668,-0.56064 -0.35851,-0.65671 -1.43383,-0.47231 -1.14469,0.19629 -3.40232,1.10565 -7.52505,3.03104 -3.60256,1.68246 -4.29473,1.93607 -5.28402,1.93607 -1.00549,0 -1.72133,-0.27289 -4.15978,-1.58579 -2.5018,-1.347 -3.87433,-2.21381 -3.99233,-2.52133 -0.34076,-0.88799 8.73642,-6.63529 12.29011,-7.78161 1.24751,-0.40241 2.93782,-0.50643 3.30363,-0.20331 0.53384,0.44236 -0.50362,1.33042 -4.52768,3.87567 -3.61505,2.28654 -4.23495,2.84906 -4.23495,3.84294 0,1.23447 1.13637,1.43392 3.04589,0.5346 0.62174,-0.29282 2.10787,-1.14724 3.30251,-1.89873 3.87283,-2.43619 5.75242,-3.43026 6.48594,-3.43026 0.88324,0 3.87617,1.30427 6.65483,2.90007 1.49033,0.8559 3.09999,1.96446 3.09999,2.13493 0,0.50176 -5.10315,3.81447 -10.52755,6.83394 -3.84345,2.13945 -4.38553,2.32401 -5.50795,1.87517 z"
         id="path47483"
         transform="scale(0.26458333)" />
      <path
         style="opacity:0.93;fill:#000080;fill-rule:evenodd;stroke:#000000;stroke-width:0.566929;stroke-linecap:round;stroke-linejoin:round;stroke-miterlimit:4;stroke-dasharray:none"
         d="m 394.98018,670.89892 c -0.90721,-0.43302 -1.03734,-0.61193 -0.75343,-1.03579 0.34934,-0.52153 1.01547,-1.0492 2.73494,-2.16644 4.43359,-2.88076 5.74558,-3.79756 6.44597,-4.50437 0.67717,-0.68338 0.76113,-0.82622 0.72655,-1.23613 -0.0369,-0.43736 -0.0688,-0.46598 -0.5675,-0.50823 -1.16636,-0.0988 -2.6815,0.44286 -8.00251,2.86099 -1.91962,0.87238 -3.87662,1.71651 -4.34888,1.87585 -1.27391,0.42984 -2.0621,0.32079 -3.81478,-0.52775 -2.75421,-1.33343 -5.56434,-3.02517 -5.56434,-3.34983 0,-0.97702 8.71264,-6.42301 12.08891,-7.55639 1.27117,-0.42672 2.9256,-0.56745 3.30078,-0.28077 0.25846,0.19749 0.25271,0.21387 -0.2642,0.75345 -0.29062,0.30336 -2.07479,1.57751 -3.96483,2.83144 -1.89003,1.25393 -3.65853,2.52571 -3.92998,2.82618 -0.43129,0.47738 -0.49356,0.62961 -0.49356,1.20644 0,0.96417 0.31715,1.24437 1.30691,1.15462 1.04663,-0.0949 2.021,-0.57488 5.78381,-2.84912 3.7845,-2.28735 5.04375,-2.9294 5.74541,-2.9294 1.33875,0 7.17677,2.86823 9.28589,4.56218 l 0.39152,0.31444 -0.32547,0.35183 c -0.6961,0.75248 -5.9672,4.09493 -10.04755,6.37125 -3.88381,2.16667 -4.57582,2.38821 -5.73366,1.83555 z"
         id="path47522"
         transform="scale(0.26458333)" />
      <path
         style="opacity:0.93;fill:#00ffff;fill-rule:evenodd;stroke:#000000;stroke-width:0;stroke-linecap:round;stroke-linejoin:round;stroke-miterlimit:4;stroke-dasharray:none"
         d="m 394.98018,672.92313 c -1.31499,-0.28042 -4.37714,-1.75662 -8.98282,-4.33042 -6.15969,-3.44222 -8.91349,-5.35188 -9.46588,-6.56425 -0.42576,-0.93444 1.65128,-2.41435 8.07882,-5.75624 3.92198,-2.03917 6.71125,-3.58312 7.72788,-4.27764 l 0.7926,-0.54148 1.65125,-0.0455 c 1.89608,-0.0523 2.59308,0.0704 4.21445,0.74226 1.53451,0.63582 6.2464,3.03913 8.59929,4.38609 3.73229,2.13663 7.6904,4.92259 8.29945,5.84165 0.12748,0.19237 0.003,0.32566 -0.87197,0.93624 -4.18514,2.91939 -14.20971,8.36241 -17.17268,9.32423 -0.99744,0.32378 -2.15153,0.43841 -2.87039,0.28511 z m 2.97226,-0.86425 c 3.61759,-1.63208 12.13238,-6.84398 13.84753,-8.47606 1.0225,-0.97299 1.07975,-1.36361 0.31228,-2.13107 -1.4888,-1.4888 -7.00651,-4.46835 -9.71418,-5.24564 -0.51001,-0.1464 -0.96759,-0.19243 -1.34716,-0.13551 -1.03292,0.15489 -3.33491,1.39111 -7.49947,4.02737 -1.33923,0.84776 -3.48514,1.94103 -3.59477,1.8314 -0.11293,-0.11293 0.97187,-0.8985 3.30746,-2.39512 3.52101,-2.25623 4.62936,-3.07597 5.08113,-3.75802 0.74464,-1.12419 0.3946,-2.34532 -0.76458,-2.66727 -0.77302,-0.2147 -2.27065,-0.1592 -3.40499,0.12618 -1.87982,0.47292 -5.98713,2.6296 -9.69749,5.09198 -4.98218,3.30642 -5.23631,4.35533 -1.57387,6.49604 2.0258,1.18408 4.6571,2.51192 5.43625,2.7433 1.02853,0.30544 2.32832,0.25797 3.47483,-0.1269 0.53731,-0.18037 2.36086,-0.97658 4.05235,-1.76937 3.47086,-1.62676 4.72865,-2.17197 4.81393,-2.0867 0.0322,0.0322 -0.53988,0.43696 -1.27136,0.89938 -3.5912,2.27029 -4.96682,3.20787 -5.63816,3.8428 -0.94361,0.89242 -1.15217,1.29831 -1.06501,2.07271 0.0562,0.49972 0.16184,0.68875 0.60401,1.08131 1.24942,1.10923 2.98606,1.32594 4.64127,0.57919 z"
         id="path47637"
         transform="scale(0.26458333)" />
      <path
         style="opacity:0.93;fill:#ee7532;fill-opacity:1;fill-rule:evenodd;stroke:#de6d2f;stroke-width:0.755906;stroke-linecap:round;stroke-linejoin:round;stroke-miterlimit:4;stroke-dasharray:none;stroke-opacity:1"
         d="m 376.27493,703.8161 c -9.91815,-2.19986 -11.14517,-6.30423 -10.70278,-35.80082 0.29352,-19.57041 0.64866,-21.77212 4.04243,-25.06149 3.43561,-3.32993 5.5905,-3.6777 24.52491,-3.95799 26.49327,-0.39218 30.8051,0.69213 33.53353,8.43277 1.24488,3.53179 1.97166,23.34781 1.30355,35.54228 -0.67251,12.2749 -1.13006,14.47368 -3.59634,17.28262 -3.26414,3.71765 -4.78148,3.95314 -26.52309,4.1163 -13.71684,0.10294 -20.35569,-0.0598 -22.58221,-0.55367 z m 28.58221,-6.05792 c 4.77238,-1.96605 14.73892,-7.55941 16.68737,-9.36517 0.82825,-0.76759 1.78242,-2.39147 2.12037,-3.6086 0.78383,-2.82296 0.80511,-23.24081 0.0271,-26.04192 -0.85389,-3.07449 -4.14768,-5.58556 -13.51707,-10.30497 -7.28929,-3.67165 -8.5827,-4.13707 -12.02839,-4.32826 -2.98304,-0.16553 -4.57541,0.0673 -7.0037,1.02409 -5.28027,2.08051 -15.53094,8.14751 -18.36002,10.86665 -2.52544,2.42729 -2.69829,2.78885 -3.08373,6.4503 -0.65077,6.18186 -0.0608,21.0009 0.90641,22.76631 1.47914,2.6999 8.81417,7.6708 17.14102,11.61636 7.24458,3.43274 10.58536,3.61338 17.1106,0.92521 z"
         id="path53340"
         transform="scale(0.26458333)" />
      <path
         style="opacity:0.93;fill:#000080;fill-opacity:1;fill-rule:evenodd;stroke:#000000;stroke-width:0;stroke-linecap:round;stroke-linejoin:round;stroke-miterlimit:4;stroke-dasharray:none"
         d="m 394.28571,698.80153 c -5.25563,-1.23443 -21.00046,-10.45911 -22.96234,-13.45332 -0.91972,-1.40367 -1.03766,-2.95327 -1.03766,-13.63392 0,-10.39751 0.13376,-12.25441 0.97524,-13.53866 1.33063,-2.03079 8.45644,-6.70677 15.73176,-10.32322 5.69001,-2.82842 6.26974,-2.99527 10.40723,-2.99527 4.21675,0 4.63767,0.12886 11.19045,3.42584 3.74489,1.88422 8.25337,4.35945 10.01884,5.50053 4.76157,3.07756 5.10579,4.27848 5.10187,17.79948 -0.002,6.04364 -0.26785,11.94139 -0.59133,13.1061 -0.82911,2.98526 -3.4146,4.89036 -13.37544,9.85555 -8.93403,4.45337 -11.55236,5.17439 -15.45862,4.25689 z m 7.97173,-5.70668 c 6.37722,-3.65664 16.26621,-10.28829 17.65121,-11.83709 1.34839,-1.50786 0.88947,-2.97519 -1.61953,-5.17811 -1.64283,-1.44243 -1.81464,-1.81066 -1.11552,-2.39088 1.38975,-1.15339 0.98378,-3.60988 -0.89387,-5.40879 l -1.72026,-1.64812 2.00598,-2.05431 c 1.10329,-1.12987 2.00598,-2.31523 2.00598,-2.63413 0,-0.89306 -10.17792,-7.41731 -15.21619,-9.75388 -7.37868,-3.42197 -8.41354,-3.33232 -17.4177,1.50894 -7.923,4.25995 -11.23959,6.44976 -11.73878,7.75064 -0.15972,0.41622 0.77022,1.71498 2.06654,2.88613 l 2.35694,2.12935 -1.73969,1.7949 c -1.88869,1.94863 -2.27739,4.29717 -0.90037,5.44 0.71708,0.59512 0.55062,0.96885 -1.14286,2.56601 -3.06363,2.88938 -2.73582,4.21716 1.87497,7.59436 7.97338,5.84018 18.24795,12.11005 19.88112,12.13209 0.32747,0.004 2.87539,-1.29928 5.66203,-2.89711 z"
         id="path61568"
         transform="scale(0.26458333)" />
    </g>
  </g>
</svg>
