<?xml version="1.0" encoding="UTF-8" standalone="no"?>
<!-- Created with Inkscape (http://www.inkscape.org/) -->

<svg
   width="146.64313mm"
   height="125.67705mm"
   viewBox="-50 0 290.64313 125.67705"
   version="1.1"
   id="svg5"
   sodipodi:docname="cloudGlobe.svg"
   inkscape:version="1.1.1 (3bf5ae0d25, 2021-09-20)"
   xmlns:inkscape="http://www.inkscape.org/namespaces/inkscape"
   xmlns:sodipodi="http://sodipodi.sourceforge.net/DTD/sodipodi-0.dtd"
   xmlns="http://www.w3.org/2000/svg"
   xmlns:svg="http://www.w3.org/2000/svg">
  <sodipodi:namedview
     id="namedview7"
     pagecolor="#505050"
     bordercolor="#eeeeee"
     borderopacity="1"
     inkscape:pageshadow="0"
     inkscape:pageopacity="0"
     inkscape:pagecheckerboard="0"
     inkscape:document-units="mm"
     showgrid="false"
     inkscape:zoom="0.74118967"
     inkscape:cx="196.98062"
     inkscape:cy="78.927165"
     inkscape:window-width="1284"
     inkscape:window-height="1029"
     inkscape:window-x="503"
     inkscape:window-y="5"
     inkscape:window-maximized="0"
     inkscape:current-layer="layer1" />
  <defs
     id="defs2" />
  <g
     inkscape:label="Layer 1"
     inkscape:groupmode="layer"
     id="layer1"
     transform="translate(-52.99599,-112.67907)">
    <path
       d="m 156.04575,149.03575 c -0.90698,0.44937 -1.80197,0.94735 -2.69699,1.48182 a 62.436209,63.546216 0 0 0 -8.03131,5.8056 l -5.77579,-6.72871 a 47.984709,48.837793 0 0 1 6.45603,-5.11337 45.060995,45.8621 0 0 1 5.69234,-3.21857 c 0.78758,-0.40079 1.57519,-0.77731 2.38667,-1.12954 a 35.108436,35.732599 0 0 0 -15.51359,-14.81781 37.709944,38.380357 0 0 0 -19.92898,-3.53441 36.051183,36.692111 0 0 0 -18.640162,7.40891 34.929432,35.550414 0 0 0 -12.768873,22.0323 l -0.572807,3.04861 -2.983389,0.53435 a 41.087131,41.817587 0 0 0 -7.828407,2.14984 25.836084,26.295405 0 0 0 -5.966781,3.23067 19.749985,20.101106 0 0 0 -3.580048,3.40083 20.286997,20.647661 0 0 0 -4.534707,13.46957 24.010255,24.437116 0 0 0 4.522796,14.00399 22.554366,22.955342 0 0 0 3.782937,4.12948 18.986241,19.323785 0 0 0 4.9166,3.01217 24.821737,25.263021 0 0 0 6.086111,1.62753 h 2.076423 a 42.674288,43.432965 0 0 0 -0.310313,5.36838 c 0,1.21456 0,2.42909 0.143374,3.64368 h -2.076439 -0.548913 a 34.165686,34.773089 0 0 1 -8.699567,-2.27123 27.649978,28.141549 0 0 1 -7.219791,-4.40887 30.883966,31.433028 0 0 1 -5.250725,-5.7449 32.745596,33.327755 0 0 1 -6.181551,-19.36023 28.986537,29.501865 0 0 1 6.587307,-19.21453 28.556929,29.064622 0 0 1 5.179131,-4.85821 35.084569,35.708311 0 0 1 7.911899,-4.31169 48.115977,48.971394 0 0 1 6.575397,-2.07698 43.163565,43.930936 0 0 1 15.418123,-24.47353 44.822324,45.619186 0 0 1 23.174875,-9.21854 46.540752,47.368164 0 0 1 24.51155,4.37247 44.010844,44.793279 0 0 1 20.43019,20.48967 v 0 a 35.561907,36.194136 0 0 1 5.71616,-0.43698 29.296805,29.817653 0 0 1 21.85026,9.71658 34.786228,35.40467 0 0 1 3.58009,4.73679 39.380636,40.080756 0 0 1 5.69227,21.76505 c -0.0828,7.65181 -2.12419,15.29144 -6.26509,20.90278 a 32.602395,33.182006 0 0 1 -10.28671,8.95133 52.304643,53.234527 0 0 1 -13.32977,5.1255 c 0.0721,-1.10527 0.11919,-2.21053 0.11919,-3.32792 a 43.163565,43.930936 0 0 0 -0.38203,-5.82995 41.158735,41.890466 0 0 0 9.29627,-3.75301 24.404061,24.837924 0 0 0 7.63741,-6.57081 c 2.98341,-4.04454 4.45121,-9.71657 4.51091,-15.63154 a 30.490157,31.032223 0 0 0 -4.2722,-16.83392 23.867054,24.291366 0 0 0 -2.68503,-3.51004 20.704668,21.072759 0 0 0 -15.51362,-6.82594 30.239555,30.777161 0 0 0 -12.41084,2.79357 z m -4.53475,70.66357 0.32205,-0.6073 v 0 l 0.382,-0.74083 0.39376,-0.85021 0.38203,-0.8502 v -0.0969 q 0.27464,-0.65591 0.50119,-1.31175 c 0.15522,-0.43746 0.3103,-0.88667 0.44156,-1.33601 v 0 c 0.13104,-0.4494 0.26248,-0.91094 0.36981,-1.37248 0.10685,-0.46152 0.2269,-0.92309 0.3103,-1.39673 0.0831,-0.47371 0.14337,-0.75311 0.20298,-1.11743 0.0602,-0.36448 0.10685,-0.72871 0.15523,-1.11742 v 0 c 0,-0.34014 0.0722,-0.68012 0.0948,-1.02023 0.0229,-0.34015 0,-0.54655 0,-0.81378 h -7.86418 a 24.86947,25.311606 0 0 1 -0.34599,3.17002 28.879135,29.392555 0 0 1 -0.77567,3.25506 29.237141,29.756923 0 0 1 -1.19332,3.24294 c -0.40595,0.97164 -0.87115,1.9433 -1.38429,2.90279 z m -2.38673,3.75304 h -7.81642 c -0.65636,0.95951 -1.37242,1.90685 -2.13614,2.86636 -0.76376,0.9595 -1.69453,1.95546 -2.63732,2.96359 -0.94271,1.00807 -1.71842,1.80963 -2.66111,2.70848 -0.94277,0.89876 -1.56338,1.46959 -2.38675,2.19834 l 0.65637,-0.12143 c 0.45346,-0.0969 0.90697,-0.1942 1.37232,-0.31583 l 1.37236,-0.3888 c 0.44154,-0.14593 0.89501,-0.30341 1.33655,-0.47369 0.44157,-0.16987 0.89498,-0.34016 1.32462,-0.53442 0.42938,-0.19421 0.88312,-0.40077 1.30075,-0.60731 0.41769,-0.20654 0.84728,-0.42507 1.26498,-0.65589 0.41766,-0.23087 0.82342,-0.47364 1.19337,-0.71655 l 1.19333,-0.75303 c 0.38202,-0.25521 0.76374,-0.53441 1.19337,-0.81374 0.42983,-0.27957 0.72788,-0.55871 1.08595,-0.86239 l 1.03822,-0.91087 c 0.34593,-0.31585 0.68022,-0.64374 1.00243,-0.97169 l 0.75175,-0.78946 0.70412,-0.80159 0.54896,-0.65592 0.25076,-0.32773 z m -28.00799,10.68819 c -0.82339,-0.72873 -1.62294,-1.46967 -2.38666,-2.19839 -0.76379,-0.72871 -1.81391,-1.79756 -2.64927,-2.65985 -0.83535,-0.8624 -1.74229,-1.95545 -2.52993,-2.92714 -0.78758,-0.97169 -1.47974,-1.93116 -2.0764,-2.90281 h -7.87614 l 0.2625,0.32775 0.53701,0.65585 c 0.46541,0.54655 0.9547,1.0688 1.45587,1.59113 v 0 c 0.32205,0.32776 0.65635,0.64368 0.99051,0.95948 0.33423,0.31586 0.69211,0.63158 1.0382,0.91091 0.34592,0.27911 0.716,0.58298 1.08594,0.86238 0.36984,0.27909 0.75181,0.55869 1.19338,0.81375 l 1.19334,0.76518 c 0.39375,0.24285 0.79954,0.4858 1.19333,0.70439 0.39375,0.21855 0.84731,0.44946 1.26496,0.65591 l 1.31268,0.60728 h 0.0955 q 0.64442,0.26716 1.28881,0.51015 c 0.42983,0.16986 0.87116,0.31583 1.31273,0.46152 v 0 l 1.3485,0.38883 c 0.45345,0.10893 0.90692,0.2185 1.37235,0.30344 l 0.60856,0.12142 z m -19.98864,-14.42907 h 7.95964 q -0.77567,-1.45748 -1.3962,-2.91496 a 31.265837,31.821689 0 0 1 -1.19333,-3.25502 26.695295,27.169893 0 0 1 -0.77568,-3.34011 24.547265,24.98367 0 0 1 -0.34595,-3.13358 h -7.923896 c 0,0.26718 0,0.53441 0,0.81379 0,0.27911 0.07171,0.69228 0.107472,1.02022 0.03607,0.32777 0.09557,0.75303 0.155034,1.11738 0.0596,0.36447 0.119597,0.72872 0.190779,1.10527 v 0 c 0.09555,0.46154 0.202963,0.9231 0.32204,1.3968 0.119597,0.47361 0.238588,0.93518 0.382026,1.38457 0.143369,0.44938 0.286406,0.91094 0.453506,1.37246 0.166895,0.46152 0.345941,0.89877 0.525046,1.33601 v 0 l 0.358117,0.83803 v 0 c 0.119596,0.26719 0.250776,0.53447 0.382026,0.81378 l 0.38201,0.76519 0.33422,0.61942 z m -3.675544,-16.38452 h 8.055144 a 27.828983,28.323734 0 0 1 1.33658,-6.43724 v 0 a 31.886382,32.453266 0 0 1 1.19333,-3.24289 q 0.65635,-1.48177 1.46784,-2.95139 h -8.37735 l -0.33422,0.63161 -0.38202,0.75298 v 0 c -0.14289,0.26717 -0.2625,0.54656 -0.39376,0.81379 -0.131246,0.26719 -0.250757,0.57082 -0.358101,0.8502 v 0 0 c -0.179071,0.437 -0.345941,0.87447 -0.501197,1.29955 -0.155068,0.42507 -0.310315,0.8988 -0.441551,1.34817 -0.131245,0.44945 -0.262515,0.91094 -0.382035,1.37251 -0.119605,0.46149 -0.214687,0.93521 -0.310307,1.40888 -0.09549,0.47364 -0.143378,0.75302 -0.202955,1.10525 -0.05952,0.3521 -0.10748,0.7409 -0.155034,1.12954 -0.04792,0.38884 -0.07171,0.66804 -0.09551,1.02028 -0.02251,0.35209 0,0.54653 0,0.80157 z m 6.109974,-16.37236 h 8.35345 q 0.97857,-1.43319 2.11228,-2.84211 c 0.77568,-0.9838 1.59908,-1.96758 2.47021,-2.93928 0.87116,-0.97169 1.68265,-1.82189 2.58959,-2.74494 0.90693,-0.92307 1.53942,-1.50603 2.38671,-2.25909 h -0.34593 l -0.58476,0.10893 -1.38426,0.32776 c -0.46543,0.10893 -0.91888,0.24283 -1.37239,0.3888 -0.45348,0.14594 -0.89498,0.29148 -1.34846,0.46157 -0.45352,0.16981 -0.88312,0.35206 -1.31274,0.54649 -0.42936,0.19418 -0.89498,0.40077 -1.31267,0.60731 -0.41766,0.20658 -0.84725,0.42507 -1.26495,0.65585 -0.41765,0.23093 -0.82342,0.46158 -1.19335,0.71657 -0.36984,0.25528 -0.7876,0.48588 -1.19333,0.74096 -0.40592,0.25518 -0.77569,0.53434 -1.19339,0.81372 -0.41765,0.2791 -0.73987,0.57082 -1.08594,0.86235 -0.34595,0.29152 -0.70406,0.59517 -1.03818,0.92308 -0.33422,0.32775 -0.66829,0.63157 -1.00242,0.97161 v 0 l -0.73992,0.7652 -0.70405,0.80166 c -0.19078,0.21851 -0.36986,0.44941 -0.54896,0.66803 l -0.27421,0.35208 z m 27.69774,-10.76109 c 0.81148,0.75298 1.59911,1.50603 2.38669,2.25909 0.7876,0.75298 1.76619,1.82186 2.57763,2.72061 0.81149,0.89881 1.65875,1.95548 2.4225,2.92714 0.76373,0.97161 1.44402,1.90685 2.10035,2.85425 h 8.35342 l -0.2625,-0.34018 -0.54893,-0.65587 -0.70405,-0.80159 -0.78767,-0.81377 c -0.3342,-0.34017 -0.66821,-0.66801 -1.00237,-0.97171 -0.33423,-0.30339 -0.69213,-0.6194 -1.0382,-0.91092 -0.34596,-0.29151 -0.71604,-0.58298 -1.08595,-0.86233 -0.36985,-0.27957 -0.73986,-0.55871 -1.12176,-0.81375 l -1.19334,-0.75306 c -0.40594,-0.25526 -0.81149,-0.48582 -1.19337,-0.71654 -0.38202,-0.23089 -0.84727,-0.44944 -1.26498,-0.6559 -0.41766,-0.20656 -0.85919,-0.40076 -1.31267,-0.6073 a 0.17900288,0.18218525 0 0 1 -0.0948,0 q -0.64436,-0.26719 -1.28881,-0.51007 c -0.42986,-0.15795 -0.87113,-0.31587 -1.32466,-0.44942 v 0 c -0.45347,-0.13345 -0.89498,-0.26715 -1.34846,-0.37644 -0.45349,-0.10893 -0.91882,-0.23088 -1.38423,-0.31578 l -0.57282,-0.12143 h -0.3103 z m 20.28699,14.48982 h -8.47281 q 0.79959,1.48173 1.46779,2.95131 c 0.47739,1.08103 0.89503,2.17412 1.2531,3.25508 a 27.828983,28.323734 0 0 1 1.33651,6.43724 h 8.05511 c 0,-0.25523 0,-0.53443 0,-0.80165 l -0.10684,-1.03236 c 0,-0.37643 -0.0948,-0.75302 -0.15523,-1.11737 -0.0602,-0.36453 -0.11918,-0.72881 -0.19077,-1.1053 v 0 c -0.0948,-0.46153 -0.20294,-0.93521 -0.32204,-1.39676 -0.11919,-0.4615 -0.23859,-0.93521 -0.38203,-1.39673 -0.14338,-0.46154 -0.28636,-0.91092 -0.4535,-1.36032 -0.16689,-0.4494 -0.33421,-0.8988 -0.52502,-1.33605 v 0 c -0.10685,-0.26716 -0.23864,-0.55866 -0.35816,-0.83805 v 0 c -0.11919,-0.25521 -0.2386,-0.53436 -0.38202,-0.81376 l -0.38201,-0.75303 -0.33423,-0.63154 z m -31.71933,-17.99997 1.59908,-0.29148 c 0.52509,-0.0844 1.06209,-0.14545 1.61103,-0.20658 0.54896,-0.0612 1.10981,-0.0969 1.65877,-0.12142 h 1.67071 c 1.10981,0 2.21958,0 3.31749,0.15795 0.54899,0 1.08595,0.12143 1.623,0.20655 l 1.611,0.29152 c 0.51316,0.0969 1.03824,0.21849 1.55137,0.35209 0.51313,0.13344 1.02629,0.27953 1.52752,0.43746 0.50119,0.15795 1.01433,0.32771 1.50356,0.51012 0.48931,0.18224 0.97858,0.38882 1.46784,0.59509 l 0.14337,0.0732 c 0.46547,0.19418 0.93081,0.41314 1.39621,0.64376 l 1.39624,0.72877 v 0 c 0.46539,0.25519 0.91884,0.5222 1.36042,0.78945 v 0 c 0.45346,0.27957 0.90693,0.55872 1.33655,0.86234 0.42984,0.30345 0.8473,0.583 1.25302,0.88665 0.40593,0.30341 0.82343,0.64373 1.19334,0.97166 0.3699,0.32774 0.7996,0.69224 1.19337,1.04449 0.39376,0.35208 0.78761,0.74095 1.19335,1.11744 v 0 c 0.35811,0.36446 0.71601,0.74087 1.06208,1.12955 0.34593,0.3888 0.69214,0.78945 1.01437,1.21452 0.32204,0.42508 0.64441,0.8138 0.95471,1.21459 l 0.90692,1.31178 v 0 c 0.29857,0.437 0.57279,0.88658 0.83537,1.33602 0.26249,0.44937 0.53696,0.92303 0.78756,1.39673 0.25076,0.47366 0.48929,0.93525 0.71603,1.42105 0.22688,0.4858 0.45346,0.99596 0.66828,1.48175 0.21468,0.48586 0.40593,1.00813 0.59668,1.53036 0.19076,0.52229 0.35812,1.03238 0.52506,1.56677 0.16693,0.53446 0.29816,1.04454 0.4294,1.56681 0.13104,0.52227 0.2508,1.05669 0.35813,1.60321 0.10685,0.54663 0.20297,1.09316 0.28638,1.62751 0.0828,0.53447 0.14337,1.09319 0.20297,1.65187 0.0602,0.55871 0.0948,1.12953 0.11918,1.68824 0.0229,0.55869 0,1.14169 0,1.70042 0,0.55866 0,1.12954 0,1.70036 0,0.57089 -0.072,1.11739 -0.11918,1.67611 -0.0485,0.55871 -0.11919,1.11739 -0.20297,1.664 v 0 c -0.0828,0.53434 -0.17905,1.08094 -0.28638,1.62751 -0.10685,0.54653 -0.21472,1.0567 -0.34597,1.57891 -0.13104,0.52229 -0.27463,1.04455 -0.42937,1.55463 -0.15523,0.51013 -0.32202,1.03243 -0.50119,1.5304 -0.17907,0.49798 -0.38204,0.99595 -0.58476,1.49392 a 0.89501448,0.91092625 0 0 1 -0.0721,0.15795 c -0.20296,0.48581 -0.41762,0.97165 -0.64442,1.44533 -0.22687,0.47367 -0.47732,0.95949 -0.72792,1.42102 -0.25077,0.46153 -0.51313,0.94739 -0.77567,1.39675 -0.26252,0.44944 -0.54894,0.89877 -0.83536,1.33601 -0.28642,0.43704 -0.58477,0.8624 -0.89501,1.28748 -0.31035,0.42507 -0.62057,0.83805 -0.94279,1.21459 v 0 c -0.33419,0.41315 -0.68017,0.81373 -1.02627,1.21455 v 0 c -0.35808,0.40076 -0.71599,0.77731 -1.08594,1.21454 v 0 q -0.5609,0.57089 -1.10978,1.09316 c -0.38203,0.34013 -0.7757,0.69227 -1.19341,1.02022 -0.41764,0.32778 -0.79952,0.65584 -1.19332,0.98382 l -1.27692,0.91087 c -0.4294,0.29151 -0.87118,0.58298 -1.31275,0.85022 -0.44153,0.26715 -0.90694,0.54658 -1.38421,0.8016 -0.47742,0.25525 -0.93088,0.49799 -1.40817,0.74089 -0.47736,0.24282 -0.96659,0.46155 -1.44401,0.66799 -0.47731,0.20659 -0.99043,0.41317 -1.50357,0.60733 -0.51313,0.19415 -1.01438,0.3645 -1.52751,0.53437 l -1.55135,0.43748 q -0.77569,0.20657 -1.57527,0.36448 l -1.59909,0.29151 c -0.52507,0.0846 -1.07397,0.14546 -1.62289,0.20657 -1.09791,0.10893 -2.20775,0.15795 -3.32951,0.15795 h -1.67061 c -0.54889,0 -1.09786,-0.0735 -1.64679,-0.12142 -0.54896,-0.049 -1.09791,-0.12143 -1.62295,-0.20659 -0.52509,-0.0844 -1.06209,-0.16982 -1.61103,-0.29147 -0.54896,-0.12143 -1.03825,-0.21851 -1.55138,-0.3521 -0.51314,-0.13343 -1.02627,-0.2791 -1.52749,-0.437 -0.5012,-0.15795 -1.00242,-0.32777 -1.49171,-0.51011 -0.48928,-0.18225 -1.00242,-0.38884 -1.49169,-0.59516 l -0.13125,-0.0735 c -0.46536,-0.19418 -0.94274,-0.41316 -1.40811,-0.64373 -0.46542,-0.23087 -0.93084,-0.47366 -1.38432,-0.72872 l -1.36042,-0.78948 -1.36042,-0.8745 c -0.42937,-0.29151 -0.84725,-0.59509 -1.26495,-0.89875 l -1.19335,-0.97163 c -0.40592,-0.34017 -0.79952,-0.69236 -1.19338,-1.04459 -0.39374,-0.35209 -0.77564,-0.74083 -1.19334,-1.10525 v 0 c -0.36984,-0.37642 -0.72791,-0.753 -1.06207,-1.12955 -0.33422,-0.3764 -0.69215,-0.78945 -1.01433,-1.21453 -0.32204,-0.42508 -0.65635,-0.82591 -0.96666,-1.21461 -0.310305,-0.3888 -0.59666,-0.85016 -0.883067,-1.29957 -0.286398,-0.4494 -0.572813,-0.88665 -0.847265,-1.33598 -0.274682,-0.44942 -0.536983,-0.92307 -0.78762,-1.40892 -0.250782,-0.48579 -0.489285,-0.94736 -0.716029,-1.43317 -0.226856,-0.48579 -0.453455,-0.97167 -0.668279,-1.46958 -0.214696,-0.49797 -0.405935,-1.00813 -0.59668,-1.53042 -0.19077,-0.52223 -0.358108,-1.03238 -0.513134,-1.55466 -0.155068,-0.52223 -0.310316,-1.05664 -0.441552,-1.57887 -0.131244,-0.52233 -0.250781,-1.0567 -0.358125,-1.60325 -0.107472,-0.54658 -0.202963,-1.09311 -0.286415,-1.63966 -0.08331,-0.54657 -0.142892,-1.08096 -0.202946,-1.63967 -0.0596,-0.55873 -0.09554,-1.12955 -0.119597,-1.68827 -0.02251,-0.55871 0,-1.14168 0,-1.70041 0,-1.12953 0,-2.25907 0.155034,-3.3765 0.0596,-0.55873 0.119597,-1.10524 0.202946,-1.65176 0.08331,-0.54657 0.179072,-1.08099 0.286415,-1.62753 0.107472,-0.54659 0.214688,-1.05668 0.34595,-1.57896 0.131244,-0.52227 0.274673,-1.0445 0.429366,-1.56681 0.155052,-0.52227 0.322049,-1.03236 0.501188,-1.53034 0.179055,-0.49799 0.382026,-0.99597 0.58476,-1.48174 a 0.50120812,0.51011871 0 0 1 0,-0.12142 v 0 q 0.310307,-0.72875 0.644387,-1.45753 c 0.238605,-0.47365 0.477381,-0.94736 0.727966,-1.42104 0.250773,-0.47368 0.513134,-0.93519 0.775674,-1.38457 0.262506,-0.44947 0.548921,-0.8988 0.835311,-1.34819 0.286415,-0.44945 0.584768,-0.86237 0.895032,-1.28746 0.31031,-0.42508 0.62057,-0.82587 0.94274,-1.21459 0.32205,-0.38878 0.68025,-0.81371 1.02629,-1.21453 0.34593,-0.40079 0.72796,-0.80161 1.0979,-1.21454 v 0 q 0.53698,-0.55871 1.10979,-1.09316 c 0.38204,-0.3521 0.7757,-0.69227 1.1934,-1.03236 0.41765,-0.34018 0.81144,-0.66807 1.19333,-0.97165 v 0 c 0.41766,-0.31581 0.83536,-0.61947 1.26497,-0.8988 0.42982,-0.27954 0.87111,-0.58298 1.31266,-0.86236 0.44157,-0.27911 0.90694,-0.54653 1.38432,-0.80156 0.47733,-0.25529 0.91887,-0.49797 1.3962,-0.72876 0.47733,-0.23093 0.96662,-0.46153 1.45589,-0.68017 v 0 c 0.50124,-0.21849 1.00241,-0.42507 1.4917,-0.60731 0.48927,-0.1822 1.01436,-0.36449 1.52751,-0.52223 0.51313,-0.15795 1.03818,-0.31582 1.55136,-0.44939 0.51314,-0.13344 1.03818,-0.25526 1.57523,-0.3645 z m 8.35352,5.68421 v 8.58703 h 8.04314 c -0.48922,-0.65589 -1.01434,-1.29963 -1.56329,-1.94339 -0.54895,-0.64372 -1.33655,-1.53029 -2.05255,-2.29548 -0.716,-0.76521 -1.47971,-1.55467 -2.2793,-2.33198 -0.79956,-0.77731 -1.40817,-1.33603 -2.148,-2.01618 z m 0,12.31576 v 12.64363 h 15.27483 a 24.547265,24.98367 0 0 0 -0.48926,-2.92713 26.790766,27.267056 0 0 0 -0.94273,-3.1943 30.191823,30.728578 0 0 0 -1.40814,-3.29151 c -0.53702,-1.0688 -1.19339,-2.14974 -1.81388,-3.23069 z m 0,16.38448 v 12.64367 h 11.13395 a 33.652544,34.250826 0 0 0 1.71841,-3.17004 28.05572,28.5545 0 0 0 1.32465,-3.26717 25.537745,25.991762 0 0 0 0.82342,-3.20644 22.864634,23.271129 0 0 0 0.36985,-3.00002 z m 0,16.38455 v 8.73274 c 0.78755,-0.68018 1.56323,-1.36031 2.30315,-2.05264 0.73982,-0.69229 1.64682,-1.56681 2.38669,-2.34412 0.73988,-0.77735 1.47973,-1.56677 2.15997,-2.34413 0.6802,-0.77731 1.12172,-1.33602 1.64684,-1.99185 z m -3.69942,8.73274 v -8.73274 h -8.52056 c 0.52509,0.66802 1.06209,1.33603 1.64684,1.99185 0.58471,0.65592 1.38426,1.55467 2.14803,2.33198 0.76374,0.77735 1.56328,1.56677 2.38669,2.35627 0.82345,0.78945 1.51555,1.37246 2.31513,2.05264 z m 0,-12.47362 v -12.64367 h -15.39429 a 22.435029,22.833885 0 0 0 0.36986,2.98784 23.330044,23.744812 0 0 0 0.83536,3.21862 27.089105,27.570701 0 0 0 1.31267,3.26717 c 0.50124,1.05666 1.08596,2.11334 1.71844,3.17004 z m 0,-16.38452 v -12.64363 h -10.62083 c -0.68025,1.08095 -1.27693,2.16189 -1.81391,3.23069 a 30.191823,30.728578 0 0 0 -1.40816,3.29151 26.790766,27.267056 0 0 0 -0.94275,3.1943 24.547265,24.98367 0 0 0 -0.48929,2.92713 z m 0,-16.37236 v -8.58703 c -0.73988,0.68015 -1.45588,1.34818 -2.13613,2.01618 -0.68019,0.668 -1.57522,1.53042 -2.29123,2.33198 -0.71603,0.80161 -1.42008,1.5304 -2.05256,2.29548 -0.63248,0.7652 -1.06209,1.2875 -1.56327,1.94339 z"
       id="path11"
       style="fill:#803300;stroke-width:0.264583" />
  </g>
</svg>
