<?xml version="1.0" encoding="UTF-8" standalone="no"?>
<svg
   version="1.0"
   viewBox="0 0 795 786"
   id="svg273959"
   sodipodi:docname="other_fire2.svg"
   inkscape:version="1.1.1 (3bf5ae0d25, 2021-09-20)"
   xmlns:inkscape="http://www.inkscape.org/namespaces/inkscape"
   xmlns:sodipodi="http://sodipodi.sourceforge.net/DTD/sodipodi-0.dtd"
   xmlns="http://www.w3.org/2000/svg"
   xmlns:svg="http://www.w3.org/2000/svg">
  <defs
     id="defs273963" />
  <sodipodi:namedview
     id="namedview273961"
     pagecolor="#505050"
     bordercolor="#eeeeee"
     borderopacity="1"
     inkscape:pageshadow="0"
     inkscape:pageopacity="0"
     inkscape:pagecheckerboard="0"
     showgrid="false"
     inkscape:zoom="0.80240837"
     inkscape:cx="39.256819"
     inkscape:cy="425.59376"
     inkscape:window-width="1920"
     inkscape:window-height="1057"
     inkscape:window-x="1912"
     inkscape:window-y="-8"
     inkscape:window-maximized="1"
     inkscape:current-layer="svg273959" />
  <path
     d="M250.8 629.7c3.4.2 9 .2 12.5 0 3.4-.2.6-.3-6.3-.3-6.9 0-9.7.1-6.2.3z"
     fill="#C30"
     stroke="#C30"
     stroke-width="4.8"
     id="path273853" />
  <path
     d="M398.4 34.8v7.7l1.2-6c1.7-7.7 1.7-8.2.1-8.8-1.1-.4-1.4 1.2-1.3 7.1zm-29.9 63.8c-.9 8.5.5 27.6 1.6 22.4.5-2.1.4-4.9-.3-6.9-.7-2.1-.8-6.8-.4-12.7.8-10.7.2-12.7-.9-2.8zm117.7 31.6c-.1 2 .3 4 .9 4.4.6.3.9 2.1.7 3.9-.3 3-.2 3.2 1.4 2.4 2.3-1.2 2.3-2-.1-5.1-1.1-1.3-2.1-4-2.4-5.9l-.4-3.4-.1 3.7zm-198.7 27.5c1.3 4.3 2.6 9.6 3 11.8l.8 4 .8-3c.7-2.3.3-4.1-1.7-8.2-1.5-2.9-2.4-6-2-6.8.3-.8.1-1.5-.4-1.5-.6 0-1-.6-1-1.4 0-.8-.4-1.7-.9-2.1-.5-.3.1 3 1.4 7.2zm5.3 15c-.1 2.8-.1 8.1.1 9.5.1.5.5.8.9.8s.6-1.6.4-3.5c-.2-1.9.1-4.1.7-4.9 1.2-1.4.5-4.6-1-4.6-.5 0-1 1.2-1.1 2.7zm42.6 1.9c.1 1.9.4 3.4.9 3.4.4 0 .7-.5.7-1.1 0-.6.7-.3 1.6.6.9.9 1.4 2.4 1.1 3.6-.4 1.5-.2 1.9.9 1.5 1-.4 1.4.2 1.4 2.1 0 1.4.3 2.3.7 2 .3-.4 1.2.1 2 1.1 2.1 2.4-5.3-11.5-7.5-14.3l-1.8-2.3v3.4zM453 209c0 1.1.7 2 1.5 2s1.5.6 1.5 1.3c0 1.8 2.3 6.7 3.2 6.7 1.2 0-.5-7.5-1.9-8.3-.7-.4-1.3-1.5-1.3-2.2 0-.8-.7-1.5-1.5-1.5s-1.5.9-1.5 2zm-179.4 27.2c.6 3.4.4 3.8-2 4.4-2.9.7-3.5 3.4-1.2 5.3 1.2 1 1.7.8 2.5-.8.6-1.1 1.1-2.7 1.1-3.6 0-.9.5-1.3 1-1 .7.4.8-.3.4-2.2-1.1-4.6-2.5-6.3-1.8-2.1zm-72.5 19.7c-.1 1.9-.6 5-1.3 6.8-.9 2.6-.9 3.6 0 4.5.9.9 1.2.9 1.2 0 0-.7.5-1.2 1-1.2.6 0 1.1 2.1 1.2 4.7.1 4 .2 4.2.5 1.3.2-1.9-.3-7.1-1.1-11.5-.9-4.9-1.5-6.7-1.5-4.6zm87.1 10.6c0 6 .1 6.5.9 3.7.5-1.7 1.2-3.2 1.5-3.2.4 0 .4.7.1 1.4-.4 1-.1 1.3.9.9.8-.3 1.4-1.9 1.4-3.9 0-3.9-.7-4.4-1.9-1.2-.8 2.2-.9 2.1-1.9-1.2-.9-3.2-1-2.9-1 3.5zm253.3 2.1c-.4 2.1-.9 4.7-1.2 5.6-.3 1.5 0 1.6 1.9.9 2.8-1 3.4-3.8 1.4-7.5l-1.5-2.9-.6 3.9zm-363.7-1.1c-1.2 2.1-1.6 6.1-.8 8 .8 1.8.9 1.7.9-.7.1-1.7.8-2.9 2.1-3.3 2.3-.7 2.7-2.5.6-2.5-.8 0-1.6-.5-1.8-1.2-.3-.7-.7-.8-1-.3zm26.6 23c0 7.1.1 9.9.3 6.2.2-3.7.2-9.6 0-13-.2-3.4-.3-.4-.3 6.8zm152.4-6.4c-1 .5-1.8 1.5-1.8 2.1 0 1.8 4.8 6.9 5.5 5.8.4-.6.1-1.7-.5-2.5-.7-.8-1-2.6-.8-4 .6-2.7.2-3-2.4-1.4zm47.9 9.8c-.9 1.6-1.7 3.6-1.7 4.4 0 .8-1.3 2.5-3 3.8-3.6 2.9-4 5.4-.7 4.3 3.4-1 5.7-3.5 5.7-6.1 0-1.2.9-3.2 2-4.3 1.1-1.1 2-2.7 2-3.5 0-2.5-2.5-1.7-4.3 1.4zm246 7.8c-.4 1.8 2 7.2 3.7 8.5.5.3 1.5.4 2.2.1.8-.3.4-1.3-1.2-3-1.3-1.4-2.4-3.4-2.4-4.4 0-2.4-1.8-3.3-2.3-1.2zm-492.2 5.7c-1.1.8-2.6 1.1-3.5.8-1.2-.5-1.2-.3.2 1.1 1.2 1.2 2.5 1.5 4.7 1.1 3.4-.7 3.3-.6 2.5-2.8-.8-2-1.5-2-3.9-.2zm190.8 7.6c-1.3.5-2.3 1.7-2.3 2.6 0 1-.5 1.4-1.5 1.1-2.2-.9-2.6.7-1.3 4.4l1.2 3.4.8-3.1c.4-1.7 1.9-3.6 3.3-4.4 1.4-.7 2.5-2.2 2.5-3.2s-.1-1.8-.2-1.7c-.2 0-1.3.4-2.5.9zm-14.3 3c-1.2.7-1.2 1.2.3 2.8.9 1 1.7 3.1 1.7 4.7 0 1.8.4 2.5.9 1.9 1.5-1.5 1.5-3.7 0-7.1-1.1-2.4-1.8-3-2.9-2.3zm336 2.6c0 1.2-.6 1.5-2.4 1-1.6-.4-2.6-.1-2.9.8-.9 2.3 4.4 3.1 6 1 1.5-2.1 1.7-4.4.3-4.4-.5 0-1 .7-1 1.6zm-434.8 7.6c-1.7 2.2-4.1 7.5-3.6 8 .2.3-.2 1.1-1.1 1.8-.8.7-1.5 2-1.5 2.9.1 2.7 4-2.7 4-5.5 0-1.7.4-2.2 1.6-1.7 1.2.4 1.4 0 .8-2.2-.5-2-.4-2.6.5-2.1.6.4 1.1.1 1.1-.8 0-1.9-.4-2-1.8-.4zm321.3 20.5c.7 4.3 1.9 6 3 4.4 1-1.8-.4-6.9-2.2-7.5-1.3-.5-1.4 0-.8 3.1zm72 3.2c.4 5 1.5 7 3.9 7.1.4 0 .5-.8.1-1.8-.4-.9-1.1-3.3-1.5-5.2-.4-1.9-.9-3.1-1-2.5-.1.5-.6.1-1.1-1-.7-1.4-.8-.4-.4 3.4zM486.2 371l.1 10.5.9-7.2c.5-4.5.5-8.5-.1-10.5-.7-2.6-.9-1-.9 7.2zm-166.6-7.3c-.9 1-.7 10.3.3 10.3s2.1-3.5 2.1-7.2c0-2.7-1.2-4.3-2.4-3.1zm307 4.8c-.3.8-1.6 1.7-3 2.1-2.2.5-2.3.8-1.1 2 1.7 1.8 2.6 1.8 1.9 0-.3-.7.2-1.6 1-1.9 1-.4 1.6-.1 1.6.8 0 1.4.5 1.6 2.8 1.4 1-.1.3-3-1.3-4.5-1.1-1.1-1.4-1.1-1.9.1zm-60.9 2.4c-.8 3.7 0 6.1 1.9 6.1 1.8 0 1.8-3.7 0-6.9l-1.3-2.3-.6 3.1zM488.5 383c-.3.5-.3 3.1.1 5.8.5 3.7.3 5.1-1 6.1-1 .9-1.6 2.8-1.5 5.5v4.1l1.6-3.5c.8-1.9 1.9-4.3 2.4-5.2 2.1-4.1.6-16.3-1.6-12.8zm-366.9 11.1c-.8 7.7-.7 19.9.2 25.9.4 2.7.8-3 .9-13.8.1-10 0-18.2-.1-18.2-.2 0-.6 2.8-1 6.1zm200.1 2.6c-.9 1.7.6 12.4 1.7 12 1.5-.5 1.9-3.2 1.1-8.3-.6-4-1.7-5.5-2.8-3.7zm-158 8.3c.3 1.9 1.1 4.2 1.8 5 .7.8 1.6 3 2 4.8.4 1.8 1.1 3 1.6 2.6 1.1-.7 1.2-4.4.1-4.4-.5 0-1.4-1.7-2-3.8-.6-2-1.8-4.6-2.7-5.7-1.4-1.9-1.4-1.8-.8 1.5zm438.3 5.8c0 5.3 1 7.1 2.8 4.9 1.9-2.2 1.7-4.2-.6-7.1l-2.2-2.9v5.1zm-329.3 3.9c-1.1 1-.8 10.6.3 12.3.7 1 1-.7 1-5.8 0-7.2-.1-7.8-1.3-6.5zm46.3 6.8c0 3 .5 5.5 1 5.5.6 0 1-2.5 1-5.5s-.4-5.5-1-5.5c-.5 0-1 2.5-1 5.5zm279.7 3.3c-.3 2-.9 4.7-1.3 5.9-.5 1.7-.2 2.3 1 2.3.9 0 1.6-.6 1.7-1.3.5-5.8.4-9.9-.2-10.2-.3-.3-.9 1.2-1.2 3.3zM359.1 428c-2.4 4.6-2.5 5-1.1 5 .6 0 1-.7 1-1.5s.6-1.5 1.4-1.5c1.4 0 2.6-2.1 2.6-4.6 0-2.6-1.8-1.4-3.9 2.6zm101.1 6c0 7.4.2 8.9.9 6.8.7-1.8.7-5.1.1-9.5l-.9-6.8-.1 9.5zm294.6 16c.2 7.4.6 13.7.8 13.9.7.8.2-16.3-.6-21.9-.4-3.3-.5-.2-.2 8zm-19.7-4.8c0 .4-1 3-2.1 5.8l-2 5 2.1-1.3c2.3-1.4 3.3-4.4 2.6-7.8-.2-1.3-.5-2.1-.6-1.7zm-599.5 9.3c-.4 1.9-1.1 3.5-1.6 3.5-.6 0-1 .7-1 1.5s.7 1.5 1.5 1.5 1.5-.7 1.5-1.5.5-1.5 1-1.5c1.2 0 1.3-5.7.1-6.4-.5-.3-1.2 1-1.5 2.9zm368.1 2.4-2.8 3.6 2.8.5c2.3.5 2.9.2 3.1-1.7.2-1.3.2-3.2 0-4.2-.2-1.6-.8-1.3-3.1 1.8zm166.1 5.7c-1.2 1.1-1 4.4.2 4.4.6 0 1 .9 1 2 0 2.5.6 2.5 3.6.1 1.9-1.5 2.1-2 .9-2.5-.8-.3-2.1-.3-2.9 0-1 .4-1.6-.3-1.8-2.1-.2-1.5-.6-2.3-1-1.9zM134.5 466c-.4.6-.1 2.6.5 4.3 1.7 4.5 4 9.7 4.3 9.7.2 0 0-2.4-.3-5.3-.6-5.5-3.3-10.7-4.5-8.7zm75.5.8c0 .5.7 1.2 1.5 1.6.8.3 1.5 1.3 1.5 2.1 0 1.4.3 1.4 3-.1 3.2-1.9 3.1-2.8-.3-3-1.2-.1-3-.5-3.9-.9-1-.4-1.8-.3-1.8.3zm475.2 3.1c-1.4 3.1-.6 9.4.9 7 .4-.8.3-1.6-.3-2-.6-.4-.4-1.6.7-3.5l1.6-2.9-.5 3-.5 3 1.3-3c1.1-2.2 1.1-3.2.3-3.7-1.8-1.2-2.1-1-3.5 2.1zm-616.1 7.2c0 4.6.4 10.6.9 13.4.5 3.2.6.2.3-8-.6-14.8-1.3-18-1.2-5.4zm662.1-3.1c-1.8 3.3-2.8 4-5.3 4-1.8 0-2.8.4-2.4 1 .4.6 1.6.8 2.6.5 1.1-.4 2.7-.1 3.5.6 2.5 2 4.6-1 4.2-5.9l-.3-4.2-2.3 4zm-568.8 2.2c.8 4 1.8 5.1 3.9 4.2 2.1-.7 2.2-2.4.3-2.4-.8 0-1.7-1.1-2-2.5-1-3.8-3-3.1-2.2.7zm432.6 4.7c-2.9.8-3.9 3.8-1.6 4.7.9.3 2.2-.1 3.1-.9.8-.8 2-1.7 2.7-1.9.6-.2.8-1 .4-1.6-.8-1.3-.9-1.3-4.6-.3zm-483 1.4c0 .9.5 1.9 1 2.2.6.4.8 1.1.4 1.6-.3.5 0 1.7.7 2.5 1 1.3 1 1.7-.1 2.4-.8.5-1.1 1.2-.7 1.6.3.4 1.5-.4 2.5-1.6l1.9-2.4 2.6 2.1c1.5 1.1 2.4 2.3 2 2.6-.3.4.3 1 1.3 1.4 1 .3 3.3 1.7 5 3 1.7 1.3 3.5 2.3 3.9 2.3.4 0-.8-1.2-2.8-2.8-9.8-7.5-12.6-9.9-15-13.1-1.7-2.2-2.7-2.8-2.7-1.8zm129.4 2.9c-.3.5 1.4 2.7 3.8 4.8 6.1 5.6 7.3 5.2 4.2-1.4-1.2-2.5-2.5-3.5-4.6-3.8-1.6-.3-3.1-.1-3.4.4zm417.2 5c-.5 1.1-.2 2.4.9 3.4 1.3 1.3 1.4 1.9.4 2.5-1.5.9-1.4 1.1 2.4 2.7 1.9.8 2.7 1.9 2.7 3.7 0 1.4.5 2.5 1 2.5.6 0 1 1 1.1 2.2 0 1.5.2 1.8.6.8.3-.8 1.3-2.3 2.1-3.3 1.4-1.6 1.4-1.7 0-1.2-1.1.4-1.9-.3-2.6-2.4-.6-1.7-1.6-3.1-2.3-3.1-.8 0-.7-.5.2-1.7 1.2-1.4 1.2-1.6-.2-1.1-1.8.7-4.4-1.9-5.2-4.9-.4-1.7-.4-1.7-1.1-.1zm95.3 4c-.1 2.4-.3 3.5-.6 2.5-.2-.9-1-1.7-1.7-1.7-2.3 0-2.6 1.3-.9 3.3 1.1 1.2 1.8 3.5 1.8 6.2 0 2.4.3 3.8.6 3.2.9-1.6 2.3-17.7 1.5-17.7-.3 0-.7 1.9-.7 4.2zm-188.6 5.2c-.4.7-2.6 1.7-4.7 2.2-2.6.6-4.1 1.7-4.7 3.2-.6 1.6-.5 2.2.6 2.2.8 0 1.5-.7 1.5-1.5 0-1 1-1.5 3-1.5 1.7 0 3.3-.6 3.6-1.4.3-.8 2.1-1.7 4-2.1 1.9-.3 3.2-1 2.9-1.6-.9-1.4-5.3-1.1-6.2.5zm133.2 5.3c-2.9.7-4.1 2.1-2.8 3.4 1.6 1.6 7.5.1 7.1-1.9-.3-1.8-1.5-2.2-4.3-1.5zM115 529.5c0 2.9.4 3.6 1.7 3.3 2.4-.5 2.7-4.5.3-5.8-1.8-1-2-.8-2 2.5zm-34.1 6.2c1.5 4.8 8.1 17 8.1 14.7 0-2.5-2.8-8.4-4-8.4-.8 0-2.3-3.8-2.1-5.6.1-.6-.5-1.7-1.3-2.4-1.3-1-1.4-.8-.7 1.7zm524.4 6c-.7.2-1.3 1.1-1.3 1.9 0 1 1.3 1.4 4.5 1.4s4.5-.4 4.5-1.4c0-2.2-4.4-3.3-7.7-1.9zm45.7.3c0 .5.7 1 1.5 1 1.5 0 1.9 1 1.6 4.2-.3 2.2 1.2 2.3 2.9.3.8-.9 3-1.5 5.7-1.5s4.2-.4 3.8-1c-.3-.6-1.6-.8-2.8-.5-1.2.3-3.9-.3-6.2-1.5-4.3-2.2-6.5-2.5-6.5-1zm-432.6 2.1c-.8 1.3 1.3 2.9 3.7 2.9 1.4 0 2.9-1.9 2.9-3.6 0-.9-5.9-.3-6.6.7zm-72.7 20.2c-.4 1-1.3 1.7-2.2 1.7-2.5 0-1.7 1.9 1 2.6 3.1.8 7.9 6.8 7.1 8.9-.6 1.6 1.1 1.8 5.4.6 2.2-.6 2.3-.8.7-1.4-1.1-.4-2.3-.5-2.8-.1-.5.3-.9-.4-.9-1.6 0-1.2-1.4-3.5-3.1-5.3-1.7-1.7-3.4-3.9-3.8-5-.7-1.8-.8-1.8-1.4-.4zm-43.7 7.2c3.5 4.8 6 7.6 6 6.8 0-.5-.6-1.5-1.2-2.1-1-1-1-1.7 0-3.2 1-1.7 1-2.1-.5-2.7-1-.4-1.9-.1-2.1.6-.3.9-.8.9-2-.1-1.6-1.2-1.6-1.1-.2.7zm605.8 8.7c-.3.7-.4 2.7-.3 4.4.2 2.7-.2 3.3-3.5 4.8-2.1.9-4 2.5-4.3 3.6-.4 1.6-.2 1.7 1.4.7 1-.6 1.9-1.5 1.9-1.9 0-.4 1.4-1.4 3-2.3 2.5-1.3 2.9-2 2.4-4-.5-1.9-.2-2.5 1.1-2.5 1 0 1.3.5.9 1.2s-.3.8.4.4.8-1.5.3-2.8c-.9-2.6-2.7-3.4-3.3-1.6zm-514.6 7.7c-1.1.6-1 1 .3 1.5.9.3 2.6.6 3.7.6 1.3 0 1.8.5 1.5 1.4-.6 1.5 3.6 3.1 5.3 2.1 1.4-.8 1.2-2.5-.1-2.5-.7 0-1.7-.6-2.3-1.4-1.4-1.8-6.7-2.9-8.4-1.7zm485.2 14.6c-.4.8-.1 2.2.6 3 1 1.2 1 1.5-.1 1.5-.8 0-2.7 1.1-4.3 2.5-1.6 1.4-3.3 2.5-3.8 2.5-.4 0-.8.4-.8 1 0 .5.5 1 1 1 1.1 0 7.1-3.9 8.1-5.3.3-.5 1-.9 1.5-.9.5-.1 1.8-.3 2.8-.6 1.8-.5 1.8-.6-.2-1.3-1.3-.5-2.2-1.7-2.2-2.9 0-2.3-1.8-2.7-2.6-.5zm-76.4 8.4c0 2 3.2 3.7 5 2.6.5-.3 1-1.5 1-2.6 0-1.4-.7-1.9-3-1.9s-3 .5-3 1.9zm-367 5c3.1 2.6 3.5 2.7 3.8 1.1.4-2.6 3.8-2.9 29.6-3 12.6 0 23.1-.2 23.4-.5.3-.3-13.1-.5-29.8-.5h-30.4l3.4 2.9zm282.4-1.4c.3.9 0 1.5-.9 1.5-.8 0-1.5.4-1.5 1 0 .5 1.5 1 3.4 1 2.8 0 3.4-.4 3.8-2.5.5-2.2.2-2.5-2.4-2.5-2.3 0-2.9.4-2.4 1.5zM237.5 622c-3.5.6-3 .8 3.5 1 4.1.1 8.4.4 9.5.5 12.5 1.4 15.5 1.5 15.5.7 0-.5-4.9-1.2-11-1.6-6-.3-11.5-.8-12.2-1-.7-.2-3.1 0-5.3.4zm-54.4 1.9c-1.5.9-.1 1.3 13.6 3.3 6.8.9 8.7.9 11-.2 2.6-1.3 2-1.5-8.7-2.1-6.3-.4-12.2-.9-13-1.3-.8-.3-2.1-.2-2.9.3zm382.9.1c0 .6 3.1 1 7.4 1 4.1 0 7.8-.5 8.1-1 .4-.6-2.3-1-7.4-1-4.7 0-8.1.4-8.1 1zm55.3 1.8c-.7.7-1.3 1.6-1.3 1.9 0 .8 15.1-.6 22.3-2.2l6.2-1.3-12.9.2c-9.2.1-13.3.5-14.3 1.4zM268.5 627c-.4.6 4.3 1 13.5 1s13.9-.4 13.5-1c-.4-.6-6-1-13.5-1s-13.1.4-13.5 1zm332 1-8 .6 7 .1c3.9.1 9-.2 11.5-.6 3.9-.8 4.1-.8 1-.8-1.9 0-7.1.4-11.5.7z"
     stroke-width="4.8"
     fill="#F33"
     stroke="#F33"
     id="path273855" />
  <path
     d="M400.6 14.5c-.4 1.6-1.2 4-1.8 5.2-.6 1.3-.8 2.6-.5 3 .4.3.7.1.7-.5 0-.7.6-1.2 1.4-1.2 1.7 0 2.5-3.6 1.5-7l-.6-2.5-.7 3zm67.1 48.8c-.3.7.5 2.9 1.7 4.8 1.9 3.1 2.3 3.4 4.3 2.4l2.3-1.2-2.3-2.1c-1.3-1.2-3.1-2.2-4.1-2.2-1.5 0-1.6-.3-.6-1.5.7-.9.8-1.5.2-1.5-.5 0-1.2.6-1.5 1.3zm-216 136.8c-.7 2.7.2 4.6 1.4 2.8.4-.7 1.1-1 1.5-.6.4.3.1 1.3-.6 2.2-1.1 1.3-1 1.4.4.9.9-.3 1.6-.1 1.6.5s.4 1.1.9 1.1c1.4 0 .2-3.2-2.3-6.3-2.3-2.9-2.3-2.9-2.9-.6zm316.4 5.8c-1.2 2.3-2.1 4.4-1.9 4.7.3.2 1.8-.3 3.5-1.1 2.7-1.4 5-5.2 3.8-6.4-.3-.2-.5.1-.5.7 0 1.8-1.8 1.4-2.2-.4-.2-1.1-1.1-.2-2.7 2.5zm66 15.8c0 1.2-.8 2.8-1.6 3.7-1.9 1.9-1.9 5.3 0 5.3 1.7 0 2.9-5.1 2.2-8.8-.4-2.2-.4-2.2-.6-.2zM80.5 398c-2 5.9-1 9.4 1.8 6.5 1-.9 1.7-3.1 1.7-5 0-1.8.3-4 .6-4.9.4-1 .1-1.6-.9-1.6s-2.2 1.9-3.2 5zm662.6 1.5c-.1 1.6-.4 3.9-.6 5-.4 1.4.1 2.3 1.9 3.1 2.4 1.1 2.5 1.1 1.9-2-.3-1.7-1.2-4.5-1.9-6.1l-1.2-3-.1 3zM237.4 592.9c.4.6 1.7 1.1 2.9 1.1 1.8 0 1.9.2.7 1-1.8 1.2 3.9 1.2 8.5 0 3.1-.8 2.2-1.2-3-1.5-1.6 0-4.5-.5-6.4-.9-2.4-.6-3.1-.5-2.7.3zm339.2 0c-1.8.7-1.9.8-.2 1.4 1 .4 2.4.3 3.1-.3.7-.6 2.1-.7 3.1-.3 1.7.6 1.6.8-.6 1.4-2 .6-1.7.7 1.6.8 3.8.1 5.4-1 5.4-3.5 0-.7-10.4-.3-12.4.5z"
     stroke-width="4.8"
     fill="red"
     stroke="red"
     id="path273857" />
  <g
     fill="#F30"
     stroke="#F30"
     stroke-width="4.8"
     id="g273863">
    <path
       d="M398.5 16.9c-.6 1-2 4-3.2 6.6-1.2 2.5-3.2 5.9-4.3 7.5-2 2.8-2 3.2-.6 5.2 2.3 3.2 1.9 4.8-.3 1.8l-1.9-2.4-2.8 5.9c-1.5 3.3-2.8 6.2-2.9 6.5 0 .3-.5 1.9-.9 3.7-.4 1.7-1.4 3.7-2.2 4.4-.8.6-1.4 2.1-1.4 3.3 0 1.1-.7 3-1.5 4-.8 1.1-1.5 3.2-1.5 4.8 0 1.5-.5 2.8-1.1 2.8-.7 0-1 1.3-.7 3.4.2 1.9 0 3.2-.4 3-.4-.3-.8.1-.9.8-.3 6-.8 11.5-1.9 18.3-.6 4.4-.9 10.5-.5 13.5.3 3 .6 8.1.5 11.2-.1 3.5.3 5.8.9 5.8.7 0 1.1 2.6 1.1 6.4 0 4.2.5 6.9 1.4 7.9.8.7 1.2 2.4.9 3.9-.3 1.4 0 2.9.6 3.2.6.4 1.1 1.9 1.1 3.4.1 3.2 2.3 11.8 3.3 12.8.4.4.7 1.8.7 3.1 0 1.4.5 3.4 1.2 4.6 1.3 2.5 1.3 33.4-.1 35.1-.5.6-.8 1.8-.8 2.8.1 2.5-3.2 12.9-5.2 16.8-1 1.9-3 4.1-4.3 4.9-2.2 1.3-2.9 1.2-7.1-.9-2.5-1.3-4.5-2.6-4.4-2.9 0-.3-.9-2.9-2.2-5.6-1.2-2.8-2.8-7.5-3.6-10.5-1.2-5.1-2.7-9.1-7.8-21.2-1.1-2.6-2.4-4.5-2.9-4.2-.4.3-.8-.6-.8-2 0-1.8-.4-2.4-1.4-2-1.1.4-1.3 0-.9-1.5.3-1.2-.2-2.7-1.1-3.6-.9-.9-1.6-1.2-1.6-.6s-.3 1.1-.7 1.1c-.5 0-.8-1.5-.9-3.4 0-1.9-.8-4.1-1.7-5.1-.9-.9-1.7-2.1-1.7-2.7 0-.6-1.2-2.2-2.7-3.6-2.5-2.3-2.7-2.4-3.5-.6-.7 1.8-.8 1.8-.7-.1.2-4.1-.1-4.6-9.1-14.6-2.2-2.4-4-4.7-4-5.2 0-.4-.6-.7-1.3-.7-.7 0-2.9-1.6-4.9-3.5-2.8-2.7-3.7-3.2-4.2-2-.7 1.9-2.6 1.9-2.6 0 0-.8.5-1.5 1.2-1.5.6 0-.6-1.5-2.7-3.4-2.6-2.3-5.2-3.6-8.3-4.1-2.7-.4-4-1-3.3-1.4 1.4-.9-1.6-3.3-5.7-4.5-1.2-.4-4.2-1.8-6.5-3.2-3.9-2.2-8-3.5-4.8-1.5 1.2.8 1.2 1.1 0 2.4-1.2 1.3-1.6 1.3-3.4-.1-1.1-.8.1.6 2.8 3.2 2.6 2.6 4.7 4.9 4.7 5.2 0 .5 5 7.5 6 8.4.4.3 1.4 2.3 2.3 4.5 4 9 6.2 13.5 6.9 13.5.3 0 .4.8.2 1.7-.3 1 .6 4 1.9 6.6 1.6 3.1 2.4 6.1 2.2 8.5-.1 2 0 2.7.2 1.4.2-1.2.8-2.2 1.3-2.2 1.2 0 2.1 3 1.3 4.3-.5.7-.8 12.2-.9 25.7-.1 18.2-.5 26.3-1.7 31.4-1.1 5.2-1.3 7.5-.4 9.3.8 1.8.8 2.6-.1 3.2-1.6 1-3.7 16.1-2.7 19.7.7 2.8.7 2.8 1.6.6 1.2-3.2 1.9-2.7 1.9 1.2 0 2-.6 3.6-1.4 3.9-1.1.4-1.3.1-.9-1.1.3-.9.3-1.4-.2-1-.4.4-1.3 3.1-1.9 6-2.2 9.4-4.8 6.9-6.1-5.7-.4-3.9-1.5-8.6-2.5-10.5-.9-1.9-2-5.9-2.3-8.9-.4-3-1.3-6.1-2.2-7.1-.8-.9-1.5-2.3-1.5-3.1 0-.9-.7-2.4-1.5-3.5-.8-1-1.5-3.1-1.5-4.6 0-2.9-1.6-4.4-4.2-4-.9.2-2-.2-2.4-.9-.5-.9-.1-1 1.4-.7 3.2.9 2.9-3.2-.3-6.2-1.4-1.3-2.5-3.1-2.5-3.9 0-.9-.9-2.7-2-4.1-1.1-1.4-2-3.2-2-4 0-1.3-.1-1.3-1 0-.8 1.3-1.1 1.3-1.9.1-1.1-1.7-3.1-.6-3.1 1.7 0 .9.7 2.5 1.4 3.4 1.7 2.3 1.4 62-.3 62.6-.6.2-1.1 1.6-1.1 3 0 3.5-2.9 20.1-3.9 22.7-.5 1.1-1.3 3.2-1.9 4.6-.6 1.5-.8 3.8-.5 5 .3 1.7.2 2-.5 1.1-.7-1-1.1-.6-1.5 1.7-.4 1.7-.5 3.6-.3 4.3.1.7.1.9-.2.5-.6-1.1-3.2 1.3-3.2 3 0 .7-.9 2.3-2 3.5-1.4 1.5-1.8 2.9-1.3 4.6.4 1.9.3 2.3-.7 1.7-1-.6-1.1-.2-.6 2 .6 2.2.4 2.6-.8 2.2-1.2-.5-1.6 0-1.6 1.7 0 1.3-1.6 4.4-3.5 6.9s-3.5 5.3-3.5 6.1c0 .9-.4 1.6-.8 1.6-.5 0-1.7 1.9-2.8 4.2-1 2.4-3.1 5.6-4.6 7.3-1.5 1.6-2.8 3.6-2.8 4.3 0 .7-.7 1.5-1.5 1.8-.8.3-1.7 1.4-2 2.4-.4 1.2-2 2.1-4.6 2.5-5.7 1-8.4-1.1-10.5-8.1-1.8-6.4-1.2-20.8 1.2-28.2 3.7-11.4 5.2-25 5.1-47.3-.2-20.8-.7-25.1-2.7-21.9-1.5 2.4-2.4-1.6-1.1-4.8 1.6-3.9.9-12.1-2.3-23.7-3.7-13.7-3.5-13.3-4.6-11.5-.8 1.2-1 1.1-1-.5-.2-5.1-3.1 5.6-3.4 12.2-.2 4-.8 7.8-1.4 8.5-.6.8-2.3 4.9-3.7 9.3-1.5 4.4-3.1 8.4-3.6 8.9-1.4 1.5-1.1 3.6.6 3.6 2.2 0 1.8 1.8-.5 2.5-1.3.4-2 1.6-2.1 3.3-.1 1.7-.3 2.1-.6.9-.2-.9-.8-1.7-1.2-1.7-1.4 0-3 4.7-2.4 7.1.4 1.3.2 2-.3 1.6-2.2-1.3-6.2 4.7-4.5 6.7 1.3 1.5.4 2.6-2.1 2.6-2 0-2.5 2.6-.5 3.3.7.2.8.8.3 1.3s-1.1.4-1.3-.4c-.7-1.8-2.1-1.5-2.8.8-.6 2-6.5 11.2-9 14-.7.8-2.6 4-4.1 7-1.6 3-3.7 6.4-4.6 7.4-1 1.1-2 2.9-2.4 4-.9 3.6-3.8 9.1-5.1 9.9-.7.4-1.3 1.5-1.3 2.4 0 .8-1.1 3.7-2.5 6.5-1.4 2.7-2.5 6.1-2.5 7.4 0 1.4-1 4.6-2.2 7.2-2.4 5.4-3.8 10.3-4.2 15.2-1.9 20.5-2.5 32-2.1 39.5.6 12.8.5 12.3 1.5 10 .7-1.4.8.2.6 4.9-.2 4.5.1 7.8 1.1 9.7.8 1.6 1.2 3.3.8 3.9-.3.5-.1 1 .4 1 .6 0 1.1 1.3 1.1 2.8 0 1.6.8 4.4 1.7 6.3 1 1.9 1.9 4.5 2.1 5.9.3 2.3 1.3 3.4 2.8 3 1.6-.4 4.4 5.8 4.4 9.6 0 2.5.6 4.7 1.5 5.4.8.7 1.5 2.5 1.5 4s.9 3.5 2.1 4.6c1.2 1 3 3.6 4.1 5.7 1 2.1 2.5 4 3.3 4.4.8.3 1.5 1.3 1.5 2.3 0 1 .7 2.1 1.6 2.4 1 .4 1.4 1.5 1.2 3.3-.3 2.5-.8 2.8-4.2 3.1-2.2.2-3.6-.1-3.2-.6.3-.5-.3-1.2-1.4-1.5-1-.3-2.1-.2-2.3.2-.2.3-.2 0-.1-.6.3-1-4.9-4.2-7.6-4.7-.3-.1-2.7-1.5-5.4-3.1-2.6-1.7-5.7-3.5-6.8-4.1-1-.6-1.9-1.5-1.8-1.8.1-.4-1.1-1.7-2.6-2.8l-2.7-2.2-1.9 2.4c-1 1.2-2.2 2-2.5 1.6-.4-.4-.1-1.1.7-1.6 1.1-.7 1.1-1.1.2-2.3-.7-.8-1.2-1.9-1.1-2.3.3-2.1-1.4-5.2-3.5-6.4-1.3-.6-2.9-2.1-3.7-3.2-.8-1.2-2.4-3.3-3.7-4.8-1.2-1.5-2.2-3.5-2.2-4.4 0-1-1.1-3.4-2.5-5.4-1.4-2-2.5-4.2-2.5-4.9 0-.7-.4-1.3-1-1.3-.5 0-1-.9-1-1.9 0-1.1-.5-2.3-1-2.6-.6-.3-1-1.5-1-2.6s-.7-2.7-1.5-3.5c-.8-.9-1.6-2.9-1.6-4.5-.2-3.5-.2-3.5-1.8-8.1-.7-2.1-.9-4.3-.5-4.9.4-.8.3-.9-.4-.5-1.3.8-1.8-5.7-1.3-17.8.3-6.7.3-6.9-1.4-5.2-1.3 1.3-2 1.4-2.5.6-.5-.9-.9-.9-1.4-.1-.4.6-.5 1.5-.2 2 .4.5 0 1.1-.6 1.4-1 .3-.9.8.2 2.2.8 1 1 1.6.3 1.2-1.6-1-3.3 4.6-3.3 10.9 0 3-.4 5.4-.8 5.4-1.8 0-3.1 7-2.9 14.7.2 4.8-.1 8.4-.7 8.6-.5.2-1.1 1.9-1.3 3.8-.5 5.9 1.7 45.2 2.8 48.7.6 1.8 1.2 4.2 1.3 5.5.2 1.2.6 2.9.9 3.7.5 1.5 1.5 5.6 2.1 9.6.2 1.2.9 3.1 1.5 4.3.7 1.1.9 2.1.5 2.1-.3 0 .5 1.6 2 3.5 1.4 1.9 2.6 3.8 2.5 4.2-.2 1.5 1.3 5.3 2.1 5.3 1.2 0 4 5.9 4 8.2 0 2 4.8 9.8 6 9.8.5 0 1.1-.6 1.3-1.3.3-.6.3.3 0 2-.4 2.6-.2 3.3 1.1 3.3.9 0 1.5.3 1.5.8-.5 3 3.9 8.2 5.2 6.1.4-.7 1.5-.9 2.5-.5 1.3.5 1.5.9.6 1.8-1.8 1.8-1.5 3.2 1.8 6.6 1.8 1.9 3.6 2.9 4.5 2.6.8-.4 1.5-.1 1.5.5s-.4 1.1-1 1.1c-.5 0-.7.7-.4 1.5.4.8 1.2 1.5 2 1.5.7 0 2.8 1.6 4.7 3.5 1.9 1.9 3.7 3.2 4 2.8.4-.3.7.1.7 1.1 0 .9.3 1.5.8 1.2 1.2-.7 7.4 2.3 6.7 3.4-.4.6-1.1.8-1.6.5-1.6-1.1-1 0 1.3 1.9 1.8 1.6 2 1.6 1.5.2-.6-1.4-.3-1.5 1.5-.5 1.6.9 1.8 1.3.7 2-1 .6-1.1.9-.1.9 2.4 0 2.7.2 3.5 1.6.4.8 1.5 1.4 2.4 1.4.8 0 1.3.6 1 1.3-.2.7.6 1.8 1.9 2.4 1.3.6 2.4.7 2.4.3 0-.5-.6-1-1.2-1.3-.7-.2-1-.7-.7-1.1.3-.3 1.6.3 2.9 1.4 1.5 1.3 1.8 2 .9 2-.8 0 0 .8 1.6 1.9 1.7 1 3.2 1.5 3.5 1 .3-.4 1.9-.1 3.5.6 2.2 1 2.5 1.4 1.1 1.4-3.8.2 1.5 3 5.6 3.1 2.1 0 4.3.6 4.9 1.3.7.7 2.5 1.1 4.1.9 1.5-.2 4-.1 5.4.2 2.5.7 2.6.8.8 2.2-1.8 1.4-1.7 1.5 1.1.9 3.5-.7 2.5-.7 17.9.1 10.2.6 11.7.9 10.2 2-1.7 1.2-1.7 1.3.5 1.8 5.1 1 30.4 1.3 53.9.7 13.5-.4 20-.8 14.6-.9-6.9-.1-9.7-.5-9-1.2 1.6-1.6 27-.9 26.7.7-.3 1.2.3 1.2 11.2-.3 4.3-.6 4.6-.8 2.5-1.5l-2.5-.7 2.5-.1c1.9-.1 1-.9-4-3.3-3.6-1.7-6.6-3.5-6.8-4-.2-.4-.9-.8-1.7-.8-.7 0-1.8-.7-2.5-1.5-1-1.2-5.1-1.5-24.9-1.5-26.5.1-29.8.4-30.3 3-.3 1.6-.7 1.5-3.8-1.1l-3.4-2.9 29.9-.2 30-.1-19.5-.8c-28.9-1.1-39.9-1.7-41-2.4-.5-.3-3.7-.9-7.2-1.4-6.9-.9-18.2-3.8-21.2-5.3-2.5-1.3-.4-2.8 4.1-2.8 2.7 0 3.1-.3 2.6-1.8-.7-1.6-.6-1.6 1.1.1 1.3 1.2 2.8 1.6 5.4 1.2 2-.3 9.6-1 16.9-1.6 16.8-1.3 26.8-3 13.8-2.2-5.1.3-10.1 0-11.5-.6l-2.5-1h2.8c1.8-.1 2.6-.5 2.1-1.2-.4-.8.3-.9 2.7-.3 4.5 1 10.5 1.1 14.9.3 2.8-.5 2.1-.7-3.2-.8-11-.2-31.7-2-41.3-3.7-11.1-2-27.7-6.2-28.9-7.5-.6-.5-1.8-.9-2.7-.9-1 0-3.4-1-5.4-2.1-2-1.2-3.8-1.9-4.1-1.6-.4.3-1.5-.3-2.7-1.4-1.1-1-2.7-1.9-3.5-1.9-.7 0-2-.7-2.8-1.5-.8-.8-2.2-1.1-3.1-.8-.9.4-1.4.2-1-.3.3-.5-1.8-2.6-4.8-4.6-4.1-2.8-5.2-3.2-4.8-1.7.3 1 2 3.4 3.9 5.3s3.4 4.4 3.4 5.6c0 1.2.4 1.9.9 1.6.5-.4 1.7-.3 2.8.1 1.6.6 1.5.8-.7 1.4-4.3 1.2-6 1-5.4-.6.8-2.1-4-8.1-7.1-8.9-3-.8-3.3-2.2-.5-2.9 1.1-.3 2-1 2-1.6 0-.7-3.5-4.7-7.7-9.1-9.9-9.9-13.5-14.4-14.8-17.8-.6-1.5-1.6-3.7-2.3-4.9-.6-1.2-1.2-3.4-1.2-4.8 0-2.5.3-2.7 2.7-2 1.6.3 3.7 1.7 4.8 2.9 2.6 3 12.5 10 12.5 8.9 0-.4.5 0 1.1.9.5 1 2.1 1.8 3.4 1.8 1.4 0 2.5.4 2.5.9s1.7 1.5 3.8 2.2c2 .6 4.2 1.6 4.8 2.1.7.5 2.7 1 4.5 1.2 1.9.2 5 1 6.9 1.8 2 .9 3.8 1.1 4.1.6.3-.6.9-.3 1.2.5.3.7 2 1.4 3.9 1.5 1.8.1 7.8.6 13.3 1.1 8.1.7 12.4.5 22.5-1 6.9-1 13.9-2.3 15.5-2.8 2.8-.9 2.6-.9-2-1-5.6-.1-8.1-1.3-7-3.1.5-.8 2.3-1 5.6-.6 6.1.8 8.1 1.5 7.3 2.7-.3.5 0 .9.5.9.6 0 1.1-.4 1.1-1 0-.9-7.5-5-9.2-5-2.5 0-16.5-11.5-26.1-21.4-11.5-11.9-18.9-21.9-25.4-34.6-1-1.9-2-3.7-2.3-4-1.2-1-6-11.7-6-13.2 0-.8-.3-1.8-.7-2.2-2.3-2.3-7.3-23.1-8-33.1-.3-3.9-.8-7.5-1.2-8-1-1.4-1.4-28.9-.6-36.9 1.1-9.7 2.8-8.4 4.8 3.6 1 5.7 2.5 12.5 3.4 15.3 2.5 8.1 7.6 18.5 8.6 17.8.6-.3.7-.1.3.6-1.6 2.5 26.8 37.1 30.4 37.1.5 0 1.2.9 1.5 2 .3 1.1 1.2 2 1.9 2s3.1 1.7 5.4 3.7c6 5.5 11.9 10.3 12.5 10.3.4 0 4.3 2.5 8.7 5.5 4.4 3 8.7 5.5 9.4 5.5.8 0 1.9.7 2.6 1.5.7.8 1.9 1.5 2.6 1.5.8 0 1.4.5 1.4 1.1 0 .5.5.7 1 .4.6-.3 1-.2 1 .3 0 .4 1.6 1.6 3.5 2.5l3.5 1.7v-11.6c0-13.4.6-15.1 8-21.7 2.7-2.5 5-5.1 5-5.9 0-1 .3-.9 1 .2s1.2 1.2 2 .4c.8-.8 1.1-5.2.8-13.2-.1-6.6 0-11.6.3-11 .4.6 1-2.5 1.4-6.8.4-4.4 1.5-11 2.6-14.9 1-3.8 1.9-8.1 1.9-9.5 0-1.4.7-3.4 1.5-4.4.8-1.1 1.5-2.9 1.5-4.1 0-1.2.4-2.5.8-3 .4-.6 1.4-2.8 2.1-5 1.3-4.1 2.1-6 6.6-15.5 2.7-5.7 3.3-6.8 5.5-11 .8-1.4 2.2-4.2 3.2-6.2s2.2-4 2.8-4.3c.5-.3 1-1.5 1-2.5s1.3-3.3 2.9-5.1c1.6-1.7 3.7-5 4.7-7.3 1-2.2 2.1-4.3 2.4-4.6.4-.3 3.3-4.3 6.5-9 8.6-12.5 10.6-15 12-15 1.5 0 0 11.1-1.7 12.1-.6.4-.7 1.2-.3 1.9.5.9.4 1.1-.3.6-.8-.5-1.2 0-1.2 1.3 0 1-.6 3.2-1.4 4.8-3.2 6.4-9.6 31.6-11.6 45.3-.6 4.1-1.6 10.4-2.2 14-1.6 9.7.6 47.8 3.2 54.8 1 2.7 1.6 3.1 3.8 2.7 4.8-.9 30.6-3.5 34.8-3.5h4.1l1.8-5.8c.9-3.1 2.5-7.6 3.6-9.9 1-2.4 1.9-4.9 1.9-5.7 0-.8.5-1.8 1-2.1.6-.4 2.1-2.8 3.3-5.3 2.7-5.5 7.7-14.2 9.2-15.9.5-.7 3.5-4.8 6.5-9.2 3-4.5 6.1-8.1 6.8-8.1.6 0 1.2-.5 1.2-1.1 0-1.4 9.6-12.3 22.4-25.4 11.9-12.2 23.2-26.5 28.6-36.1 1.9-3.5 4.1-6.9 4.8-7.6.6-.6 1.2-2 1.2-3s.4-1.8.8-1.8c.5 0 1.4-1.7 2-3.9.7-2.1 1.9-4.4 2.7-5.1.8-.7 1.5-2 1.5-2.9 0-.9 1.6-5.6 3.5-10.4 1.9-4.9 3.6-10.7 3.8-13 .3-3.3.8-4.2 2.3-4.2 2.6 0 3.7 4.3 7.3 28 .6 3.8 1.8 11.5 2.6 17 .9 5.5 2 14.5 2.5 20s1.5 13.6 2.1 18c1.7 11 1.6 55.1-.1 63.5-.7 3.6-1.5 8.5-1.7 11-.3 2.5-.9 4.9-1.3 5.5-.4.5-1.5 3.3-2.4 6.1-2.1 6.4-7.4 14.6-12.1 18.8l-3.6 3.2 4.3 2c2.4 1 6.6 3.7 9.3 6 3.3 2.6 6.5 4.3 9 4.7 6.1.9 14.7 2.6 17.3 3.3 1.6.5 2.2.2 2.2-1 0-.9-.4-1.6-1-1.6-.5 0-1-.9-1-1.9 0-1.1.5-2.3 1-2.6.6-.3 1 .2 1 1.1 0 2.6.7 1.3 1.4-2.8.6-3.4.5-3.7-2-4l-2.6-.3 3-3.8 3.1-3.8.3 3.3c.3 3.4.6 1.9 4.4-20.2 1.9-11 2.8-50.4 1.4-59-2.6-15.9-3.9-22.7-4.9-25.5-.6-1.7-1.6-5.1-2.3-7.8-.7-2.6-1.6-4.7-2.1-4.7s-.6-.8-.2-1.9c.3-1.1-.5-3.9-2-6.6-1.4-2.7-2.5-5.7-2.5-6.8 0-1-1.4-4.5-3.1-7.7-2.5-4.8-2.9-6.2-1.9-7.9 1.2-2.4 3.1-1.8 6.4 1.8 1.5 1.7 2.2 1.9 2.9.9.6-.9.7-.4.3 1.3-.4 1.9.4 3.6 3.5 7.5 2.3 2.7 4.5 5 5 5.2.5.2.9.9.9 1.7 0 .7.7 1.8 1.5 2.5.9.7 3.2 4.4 5.1 8.1 3.2 6.1 4 6.9 6.5 6.9 2.3 0 2.9.4 2.9 2.2 0 2.1 0 2.1-1.4.2-3.4-4.6-2.1 1.8 1.5 7.6.5.8 1.4 2.6 2 4 .6 1.4 1.6 3.2 2.3 4 .7.8 1.6 2.7 2 4.2.3 1.6 1.1 2.8 1.6 2.8.6 0 1 .8 1 1.8 0 2.2 3.4 6.5 4.4 5.5.4-.4.6.7.4 2.4-.1 1.7.6 4.2 1.5 5.6.9 1.5 1.7 3.1 1.7 3.7 0 1.6 3.4 9 4.1 9 .4 0 .5.9.2 1.9-.3 1.1.2 3.4 1 5.3.9 1.8 1.8 4.9 2.1 6.8.3 1.9 1.5 9.1 2.6 16 1.8 10.5 2 15.1 1.6 29-.3 9.1-.9 18.2-1.2 20.4-.4 2.1-.3 3.6.2 3.3.5-.3.7 1.8.5 4.6l-.5 5.2-.5-4-.6-4-1.3 6c-.8 3.3-1.8 6.8-2.3 7.7-1.4 2.7-1.1 4.8.8 4.8 1.3 0 1.4.3.5 1.2-.7.7-1.2 2.9-1.2 5 0 3.4.2 3.8 1.8 2.9 1-.5 1.8-1.9 1.9-3.2.3-2.9 1.1-3.6 5.7-4.5 3.2-.6 3.8-.4 3.4.8-.8 1.9 3.6 1.2 5.3-.8.9-1.2.6-1.3-2.1-.7-2.5.5-3.2.3-2.8-.8.6-1.7 4.5-2.4 6.1-1 1.5 1.2 13.4-4.4 12.9-6.1-.1-.5.2-.7.7-.4.5.4 1.3.1 1.7-.5.3-.6 2.1-1.7 3.8-2.4 5.1-2.2 15.2-9 20.9-14.1.7-.6 1.9-1.5 2.8-2 5.3-3 28.2-24.8 29.3-27.9.6-1.6.5-1.8-.5-.8-1.7 1.7-2.9 1.6-2.9-.2 0-.8.8-1.5 1.8-1.5.9 0 3.1-1.4 4.9-3 1.8-1.7 3.7-3 4.2-3 .6 0 1.1-.9 1.1-2s.5-2 1-2c.6 0 1-.7 1-1.5s.4-1.5.8-1.5c.5 0 1.9-2.1 3.1-4.8 1.3-2.6 3.4-6.9 4.7-9.5 1.4-2.9 2.4-6.8 2.5-9.5 0-2.6.3-4.1.6-3.4.7 1.9 2.3.4 2.3-2.3 0-1.3.4-2.7 1-3 .6-.3 1-2.9 1-5.6 0-6.6 1.2-8.8 5-8.7 1.6.1 2.7.5 2.4 1-.3.4-.6 12.2-.8 26.1-.2 19.8-.7 26.7-2 32.1-1.4 5.7-1.5 7.4-.5 9.3 1 1.8 1 2.8-.1 5-1.1 2.5-1.3 2.6-1.9.9-.6-1.5-.9-1.1-1.8 1.8-.6 2-.7 3.4-.2 3 .5-.3.9.7.9 2.1 0 2 .4 2.6 1.5 2.1.8-.3 2.2-.3 3 0 1.2.5 1 1-.9 2.5-2.9 2.3-3.6 2.4-3.6.4 0-.9-.5-2.2-1.2-2.9-1-1.1-1.5-.8-2.5 1.2-.7 1.3-1.3 2.9-1.3 3.5 0 1.9-12.1 25.7-13.1 25.7-.5 0-.9.7-.9 1.5s-.9 1.9-2 2.5c-1.1.6-2 1.8-2 2.8 0 .9-1.3 2.8-3 4.2-1.6 1.4-3 2.8-3 3.3 0 1.1-11.9 12.7-13 12.7-.6 0-1 .7-1 1.5 0 .9-.8 1.8-1.7 2.2-1 .3-2.5 1.2-3.3 2-2.5 2.2-10.1 7.7-12.9 9.2l-2.6 1.4 2.8 1c4.5 1.5 3.4 3.7-1.8 3.7-3.3 0-4.5-.4-4.5-1.5 0-1.6-.9-1.9-3.4-.9-1.4.5-1.3.9.7 2.4 3 2.3 16 5.6 16.5 4.1.5-1.6 3.9-1.4 4.5.2 1.2 3.2 29.2 2.7 35.2-.6 1.1-.6 3.6-1.4 5.5-1.8l3.5-.7-4.1-.1c-2.6-.1-4.6.5-5.4 1.4-1.7 2-3.2 1.9-2.9-.3.3-3.2-.1-4.2-1.6-4.2-.8 0-1.5-.5-1.5-1 0-1.5 2.2-1.2 6.5 1 2.2 1.2 4.9 1.9 5.9 1.6 1.1-.3 2.5-.1 3.1.4.7.6 2.2.4 3.9-.5 1.6-.8 3.9-1.5 5.2-1.5 1.3 0 2.4-.4 2.4-1 0-.5 1.2-1.3 2.7-1.7 1.6-.3 5.1-2.1 8-4 2.9-1.8 5.6-3.3 6.1-3.3.6 0 1.2-.7 1.6-1.5.3-.8 1.1-1.5 1.7-1.5.7 0 2.5-1.4 4-3.1 3.8-4.2 5.9-3.4 5.9 2.4 0 2.7-.6 4.9-1.5 5.7-.8.7-1.5 2.2-1.5 3.3 0 2.7-6.3 12-11.6 17.1-9.5 9.1-11.6 10.9-16.2 13.3-13.8 7.3-15.8 8.3-16.7 8.3-1.2 0-9.8 4.2-10.5 5.2-.3.4-1.2.6-2 .6-5.4-.3-8.3 1.4-4.2 2.5 1.2.3 1.1.5-.6.6-1.3 0-3.1-.3-4-.7-2.3-1.2-12 1.9-11.5 3.5.5 1.5-4.3 1.8-4.9.4-.1-.4-3.7-.3-7.8.5-4.1.7-11.6 1.6-16.7 1.9-6.9.6-9.3 1.1-9.8 2.3-1 2.8.9 3.2 24.8 4.8 9.3.7 9.7.8 9.7 3 0 1.8-.8 2.5-3.7 3.3-12.5 3.3-14.6 3.9-13 4 1.8.1 2.4 3.6.7 4.6-1.8 1.1-5-.6-5-2.7 0-1.8-.4-2-3.2-1.4-7.7 1.6-14.7 2.6-19.8 2.7-3 .1-4.3.4-2.7.6 1.5.2 2.7.9 2.7 1.5s-1.4.8-3.7.4c-8.8-1.4-31.4-1.8-35.7-.6-2.9.8-5.9.9-8.8.4l-4.3-.8 5-.7c4.8-.6 4.6-.6-2.5-.8-4.1-.2-10-.6-13.1-1-5.4-.6-5.8-.5-9.3 2.5-2.1 1.8-7.2 5.1-11.4 7.3-6.8 3.5-7.3 4-4.7 4.1 1.7.1 4.8.3 7 .5 23.5 2.4 50.1 3.2 49 1.5-.4-.6 1.2-1 4.2-.9 2.6.1 3.9.3 2.8.6s-2.4.9-3 1.5c-.7.6 5.9.9 19 .7 11-.1 21.4.1 23 .5 2.4.6 2.7.5 1.5-.4-1.1-.8 2.1-1 13.5-.5 8.3.3 14.5.2 13.8-.2-.7-.5-.9-1.4-.4-2.1.5-.9 5.2-1.4 16.4-1.7 15.5-.4 15.6-.4 23.1-4 4.2-2 7.6-4.1 7.6-4.6s1-.9 2.3-.9c1.8 0 1.9-.2.7-1.1-1-.7-1.1-1.2-.3-1.5.6-.3 2.4-1.6 4-3 1.5-1.3 3.4-2.4 4.2-2.4 1.1 0 1.1-.3.1-1.5-1.3-1.6-.7-4.5 1-4.5.5 0 1 .9 1 1.9 0 2.6 1.5 3.4 4.8 2.6 2.5-.7 2.5-.8.7-1.5-1.8-.8-1.7-.9.7-.9 1.6-.1 2.7-.6 2.5-1.3-.1-.6 2.2-2.7 5.1-4.6 2.8-1.9 5.2-4 5.2-4.7 0-.7 1.5-2 3.3-2.8 1.8-.9 4.9-3.3 6.9-5.4 1.9-2.1 4.4-4.4 5.4-5.1 1.1-.7 1.2-.9.4-.5-.8.4.4-1.2 2.7-3.5 2.4-2.4 5-5.6 5.8-7.2.9-1.7 1.9-3 2.4-3 1.5 0 8.5-10.6 12.1-18.3 1.2-2.6 2.6-4.7 3.1-4.7s.9-.9.9-1.9c0-1.1.5-2.3 1-2.6.6-.3 1-2.1 1-3.9 0-1.9.6-3.9 1.3-4.5.8-.6 2-3.6 2.7-6.6.7-3 1.6-5.5 1.9-5.5.7 0 1.5-7.3 1.5-13.2 0-2.1-.7-4.5-1.7-5.6-1.8-1.9-1.4-3.2 1-3.2.7 0 1.4.8 1.4 1.7.2 2.5 1.7-7.8 2.4-16.7.3-4.1.1-14.9-.5-24-1.4-20.1-1.5-20.8-2.3-21.6-.4-.4-.7-3.2-.7-6.3-.1-3.3-.7-6.4-1.5-7.5-.8-1-1.7-3.9-2.1-6.5-.6-4-2.5-7-4.6-7.1-.3 0-.9 3-1.2 6.7-.4 3.8-1.1 8.3-1.7 10.1-.6 1.8-1.1 5.7-1.2 8.7-.1 3-.3 5.2-.6 4.9-1-.9-3.1 6-3.1 10.1 0 3.3-.6 4.9-3 7.3-1.9 2.1-2.7 3.7-2.3 4.8.4 1.2.3 1.5-.5 1-.7-.4-1.2-.2-1.2.5 0 1.2-4.1 7.7-6.5 10.5-.5.7-2.3 2.8-4 4.8-9.3 11-26.1 25.6-29.4 25.6-.6 0-.8.7-.4 1.6.5 1.3 0 1.5-2.6 1.1-1.7-.3-2.9-.1-2.5.4.3.5-.6.9-1.9.9-1.4 0-3 .6-3.6 1.4-2.9 3.4-11.1 3-11.1-.5 0-1-.4-1.9-1-1.9-.5 0-1-1.1-1-2.5 0-1.8-.8-2.9-2.7-3.7-3.8-1.6-3.9-1.8-2.4-2.7 1-.6.9-1.2-.4-2.5-1.1-1-1.4-2.3-.9-3.4.7-1.6.7-1.6 1.1.1.8 3 3.4 5.6 5.2 4.9 1.4-.5 1.4-.3.2 1.1-.9 1.2-1 1.7-.2 1.7.7 0 1.7 1.3 2.2 3 .6 1.6 1.5 3 2 3s2.1-1.9 3.5-4.2c1.5-2.4 3.3-4.7 4-5.1.8-.4 1.4-1.4 1.4-2.2 0-.8.9-3 2.1-4.9 1.1-1.9 1.8-3.9 1.5-4.4-.3-.5.4-1.8 1.5-2.8 1.5-1.4 1.9-2.6 1.5-4.8-.8-3.6 1.4-8.8 3.3-8.1 2.3.9 4.1-1.5 4.1-5.5 0-2 .3-4 .7-4.4 1.8-1.8 3.5-8.8 3.8-15.6.3-8.8.4-9.3 1.5-6 .8 2.4.8 2.3.9-.8.1-1.7.5-3.2 1-3.2 2.2 0 3.2-45 1.1-50.1-.7-1.6-1-3.2-.7-3.5.3-.4-.3-2.9-1.3-5.8-1.1-2.8-2-6.8-2.2-8.8-.1-2-.6-3.4-1-3.2-.4.3-.8-.5-.9-1.8-.1-3.8-.9-7.2-1.9-8.2-.6-.6-1-1.8-1-2.7 0-.9-.7-2.3-1.6-3-.9-.7-2-2.2-2.5-3.4-.5-1.1-1.3-2.7-1.8-3.5-.5-.8-1.2-2.2-1.5-3-.3-.8-1.7-3.3-3.1-5.5-1.3-2.2-2.9-5-3.5-6.3-.5-1.2-1.5-2.2-2.1-2.2-.7 0-1-.3-.6-.6.3-.3.1-1.1-.4-1.8-3.2-3.6-10.9-14.6-10.9-15.4 0-.6-.6-1.2-1.4-1.5-.8-.3-2.2-2.2-3.1-4.1-1-2-2.1-3.6-2.5-3.6-.7 0-1.7-2.8-2-5.5-.1-.6-.9-1.9-1.9-3-2.6-2.9-3.7-5-2.2-4 1.4.8-1.5-4-3.6-6.3-.7-.7-1.3-2.3-1.3-3.5 0-1.3-.6-3.1-1.4-4.2-.7-1.1-1.4-2.2-1.4-2.5 0-.3-.5-1.7-1.1-3.1-.5-1.4-1.5-5.4-2.2-8.9-.7-3.9-2.1-7.2-3.6-8.8-1.7-1.9-2-2.8-1.2-3.8.8-.9.9-3.3.4-7.1s-1-5.2-1.4-4c-.8 2.1-2.1 2.4-3.1.7-.7-1.1-2.1 2.5-2.6 6.5 0 .5-.4 1.7-.7 2.5-3.5 8.4-4.3 12.6-6.3 30.5-.3 2.7-1 5.4-1.5 5.9-1.2 1.3-1.2 35.2.1 37.5.9 1.8 3.9 14 4.3 17.3.1.9.5 1.4.9 1.2.4-.3 1 .5 1.2 1.8 2 10 3.9 16.7 4.6 16.3.4-.3 1 1 1.2 2.8.3 1.7.9 4 1.3 5.1.7 1.5.5 1.7-1.3 1.2-1.8-.6-2.2-.2-2.7 3.1-.4 2.1-.9 4.6-1.2 5.5-.2 1 0 1.8.5 1.8 1.1 0 2.3 3.6 1.5 4.4-.9.9-3.3-.6-3.3-2 0-.8-.6-1.1-1.6-.7-.8.3-1.3 1.2-1 1.9.7 1.8-.2 1.8-2-.1-.9-.8-2.5-1.5-3.7-1.5-2 0-10.9-8.6-12.1-11.7-.3-.7-1-1.3-1.5-1.3s-1.3-.9-1.6-2c-.3-1.1-1.2-2.6-1.8-3.2-1.9-2-8.9-12.8-9.1-14.1-.3-1.8-3.8-7.1-5.4-8-.7-.5-1-1.6-.7-2.6.3-.9-.8-4.2-2.5-7.4-1.6-3.1-3.1-6.8-3.3-8.2-.1-1.3-.6-2.7-1-3.1-.4-.4-.7-1.8-.7-3.1 0-1.2-.4-2.3-1-2.3-1.1 0-2.7-5.6-3.5-13-.3-3-1-7.1-1.5-9-1.6-6.1-3.7-21.9-3-22.7.3-.4.4-8.7 0-18.3-.3-9.6-.4-18-.1-18.5 1.1-2 1.7-12.3.7-13.2-.6-.6-4.8 1.8-6.4 3.7-.7.8-2.2 3.4-3.3 5.8-1.2 2.3-2.5 4.5-3 4.8-.5.3-.9 1.2-.9 2.1 0 .9-1.1 3.1-2.5 4.9-1.4 1.9-2.5 4.6-2.5 6.4 0 1.7-.4 2.9-.9 2.6-1.3-.9-2.1 1.9-2.2 8.2-.1 4-.3 4.9-.8 3.2l-.7-2.4-1.3 3.1c-.7 1.7-1.1 4.7-1 6.7.2 1.9-.2 4.1-.9 4.8-1.5 1.5-1.6 4-.1 5.5 1.9 1.9.6 5.6-2.4 6.6-1.6.5-3.1.6-3.5.2-.7-.7-1.2-6.8-1.7-21-.4-11.7-1.5-20.5-2.6-20.5-.5 0-.9-2.1-.9-4.8 0-4.1-1.5-13.9-3.6-23.9-.3-1.8-1.1-3-1.7-2.6-.6.4-.7-1-.3-4.2.5-3.3.4-4.5-.3-4-.6.3-.9 1-.6 1.5.3.5.1 1.1-.4 1.4-.5.4-.7-2.2-.4-6.4.3-4.5.1-7.5-.6-8.4-.7-.8-1.4-3.1-1.6-5.2-.8-7-1.6-10.8-3-13.9-.7-1.7-2-5.3-2.8-8-3.6-11.2-10.8-30.9-11.8-32.1-.5-.7-1.2-2.5-1.5-4-.3-1.6-1-3.4-1.6-4.1-.6-.7-.7-1.3-.2-1.3.5 0 .5-.4-.1-.8-.5-.4-2.3-3.4-4-6.7-1.6-3.3-3.3-6.2-3.7-6.3-.5-.2-.8-1.2-.8-2.2 0-1-1-3.1-2.3-4.7-1.3-1.5-2.6-3.5-2.9-4.4-1-2.6-7.5-12.4-9.2-13.8-.9-.7-1.6-2.1-1.7-3 0-1.1-.2-1.2-.6-.3-.4 1-.8.9-1.8-.5-1.1-1.5-1.5-1.5-2.9-.4-1 .9-1.3 1.8-.7 2.5.4.6 1.3 2.4 1.9 4.1.6 1.6 1.1 2.3 1.1 1.4.1-.9.8-2 1.7-2.3 1.3-.5 1.5-.2.9 1.1-1.4 3.3-1.8 6.6-.8 6 .6-.4 1 .7 1.1 2.5 0 1.7.7 3.5 1.4 3.9.7.4.9 1.1.5 1.5-.4.4 0 1.8.8 3.1.9 1.3 1.5 3.8 1.4 5.6 0 1.7.4 4.6.9 6.4.6 1.7.8 3.4.5 3.6-.2.3.2 2.5 1 4.9.8 2.3 1.8 7.4 2.2 11.2.5 4.7 1.4 7.9 2.8 9.9 2.1 2.7 2.1 2.9.4 4.2-1.5 1.1-1.8 2.7-1.7 9.6.1 4.6-.3 11.5-1 15.4-.6 3.8-1.5 10.8-2 15.4-.6 5-1.5 9-2.5 10-.8 1-1.5 2.9-1.5 4.3s-.7 2.8-1.5 3.2c-.8.3-1.5 1.4-1.5 2.5s-.5 3.1-1.1 4.5c-.9 1.9-.8 2.9.5 4.7 2 2.9 2 4 .1 3.3-.8-.4-1.5-1.2-1.5-2 0-2.8-1.8-1.3-3.9 3.1-2.5 5.3-2.6 5.9-.6 5.1.8-.3 1.5-.1 1.5.5s-1 .9-2.2.7c-1.6-.2-2.6.5-3.6 2.4-1.3 2.8-5.2 3.9-5.2 1.5-.1-.6-.2-6.4-.3-12.7-.3-11.5-.7-14.3-2-15.6-.4-.4-.7-1.5-.7-2.3 0-.9-.9-2.5-2.1-3.5-1.4-1.2-2-2.5-1.6-4.2.2-1.3 0-2.4-.4-2.4-.5 0-.9-.7-.9-1.5s-.4-1.5-.9-1.5-1.4-1.4-2.1-3c-.7-1.7-2.2-3.7-3.2-4.5-1.1-.7-1.7-1.8-1.4-2.3.3-.6-.2-1.3-1.2-1.6-1-.3-2.5-1.8-3.4-3.3-.9-1.6-3.2-4.5-5.1-6.5-1.9-2.1-4.6-5.2-6-7-1.3-1.8-3.4-4.4-4.6-5.8-1.1-1.4-3.1-3.9-4.5-5.5-1.4-1.7-3.8-4.6-5.4-6.5-2.7-3.2-5.6-7.8-5.7-9 0-.3-1-2.1-2.2-4-1.2-1.9-2.7-5.8-3.3-8.5-.6-2.8-1.7-6-2.3-7.2-.5-1.3-.8-2.5-.5-2.9.3-.3 0-2.9-.8-5.7-1.9-7.3-2.4-15.5-2.8-44.9-.2-19.2 0-25.5.8-25.2 1.3.5 4.3-9.3 3.2-10.3-.3-.4-.6.3-.6 1.5 0 1.3-.6 2.2-1.5 2.2-.8 0-1.5.5-1.5 1.2 0 .6-.3.8-.7.5-.3-.4-.1-1.8.6-3.1.8-1.3 1.2-2.9 1-3.5-.2-.6-.9-.3-1.4.8zM415.2 168c.7 1.6 1.6 3 2.1 3 .4 0 1.2 1.1 1.7 2.5.5 1.3 2.1 4.3 3.6 6.7 4.6 7.1 7.4 12.8 7.4 14.8 0 1 .4 2.1.9 2.4.4.3 1.4 3.4 2.1 6.8.7 3.5 1.7 6.7 2.1 7.2.5.6.9 6.2.9 12.6 0 7.7.4 12 1.2 12.8 1 1 .7 1.5-1 2.7-1.2.9-2.4 3.2-2.8 5.3-.4 2-1.4 5-2.2 6.7-.8 1.6-1.5 4.6-1.4 6.5 0 2.6-.2 3-.7 1.6-.8-2-.8-2-1.4 0-1.4 3.9-4.5 8.3-13.2 18.8-6.5 7.9-10 12.7-10.8 14.8-.3 1-1.1 1.8-1.7 1.8-.5 0-1 .6-1 1.4 0 .7-.7 1.9-1.5 2.6-1.8 1.5-8.9 12.2-9 13.5 0 .5-1 2-2.3 3.3-1.8 1.8-2.1 2.7-1.2 3.6 1.3 1.7.4 4.3-1.8 5.1-1.9.6-6.2 6.7-6.2 8.8 0 .7-.8 2.3-1.7 3.7-1.2 1.7-1.3 2.5-.5 2.8.7.2 1.2 1.1 1.2 1.9 0 1.2-.3 1.3-1.4.4-1.1-.9-1.7-.4-3 2.6-1 2.1-2.4 5-3.2 6.5-.7 1.4-1.4 3.6-1.4 4.8 0 1.3-.6 2.8-1.4 3.4-.7.6-2.5 4.5-3.9 8.6s-3.3 9.2-4.2 11.3c-1.5 3.6-1.5 4 0 5.1 1.9 1.4 1.7 5.7-.2 6.4-.8.2-1.3-.7-1.3-2.5l-.1-2.8-1.4 2.5c-.8 1.4-1.4 3.2-1.5 4.1 0 .9-.8 3.1-1.7 5-.9 1.9-1.7 5.2-1.8 7.4 0 2.3-.6 4.5-1.5 5.1-1.3 1.1-2.6 5.3-4.9 15.4-1.7 7.6-5.2 10.4-7.1 5.6-1.8-4.7-2.6-19.3-1.9-33.1.9-18.6 1.9-28.6 2.9-31 .4-1.1 1.3-4.9 2-8.5 1.3-6.9 2.5-12.7 3.6-17.4.6-2.5.4-2.8-1-2.3-1.3.5-1.5.2-1-2.1.4-1.5 1.1-3.6 1.5-4.7.7-1.8.8-1.8.9.5.1 2.3.2 2.4 1.4.7.8-1 1.7-3.8 2.1-6.2.3-2.5 1.3-5.2 2.2-6 2.1-2.1 1-3-1.6-1.3-1.2.7-2.5 2.6-2.9 4.3l-.8 3-1.2-3.4c-1.3-3.7-.9-5.3 1.3-4.4.9.3 1.5-.1 1.5-1.1 0-.9 1.3-2.2 3-2.8 3.3-1.4 9.9-12.8 7.4-12.8-.8 0-1.1-.6-.8-1.4.3-.8 1.1-1.3 1.7-1.1 1.1.4 7.7-11.7 7.7-14.1 0-.6.7-1.7 1.5-2.4s1.5-2 1.5-3 .7-2 1.5-2.4c.8-.3 2.1-1.8 2.7-3.3.7-1.5 1.7-3.1 2.2-3.5.5-.3 1-3 1.1-5.8.1-3.3.6-5.5 1.6-6 .8-.6 1.5-.6 1.7 0 .7 1.8 2 1 3.2-1.9.6-1.6 1.8-3.2 2.7-3.5.8-.3 1.2-1 .8-1.6-.3-.5.3-1.8 1.3-2.8 1.3-1.3 1.8-2.8 1.5-4.6-.5-2.5 1.1-3.8 1.9-1.4.5 1.3 5.8-4 5.8-5.8 0-.6.7-1.7 1.5-2.4.9-.7 2.7-3.8 4.1-6.7 2.4-5 2.5-5.6 1-7.2-1.7-1.9-2.2-5.1-.7-5.1.5 0 1.3.9 1.6 2.1.7 2 .8 1.9 2.6-1 3-4.9 5.1-25.7 3.5-33.6-.2-1.1-.7-4.8-1.1-8.3-.4-3.4-1.1-6.5-1.6-6.7-1.7-1.1.4-3.5 3.1-3.5 2.2 0 3.1.7 4.2 3zm40.8 40.5c0 .7.6 1.8 1.3 2.2 1.4.8 3.1 8.3 1.9 8.3-.9 0-3.2-4.9-3.2-6.7 0-.7-.7-1.3-1.5-1.3s-1.5-.9-1.5-2 .7-2 1.5-2 1.5.7 1.5 1.5zm-182 33.1c0 .8-.5 2.4-1.1 3.5-.8 1.6-1.3 1.8-2.5.8-1.9-1.6-1.8-4.7.4-5.2 3-.8 3.2-.7 3.2.9zm85.2 43.9c-.2 1.4.1 3.2.8 4 .6.8.9 1.9.5 2.5-.7 1.1-5.5-4-5.5-5.8 0-1 2.7-3.1 4.1-3.2.3 0 .4 1.1.1 2.5zm49.8 7c0 .8-.9 2.4-2 3.5s-2 3.1-2 4.3c0 2.6-2.3 5.1-5.7 6.1-3.3 1.1-2.9-1.4.7-4.3 1.7-1.3 3-3 3-3.8 0-2.3 3.3-7.3 4.7-7.3.7 0 1.3.7 1.3 1.5zm-140 10.8c1.6 7.2.8 33.3-1.3 42.1-.9 3.8-1.5 7.2-1.2 7.4.3.3.5-.2.5-1.1 0-1 .5-1.7 1-1.7.6 0 1 .6 1 1.3 0 1.9-2 3.6-3.5 3.1-.8-.3-1.5.7-1.9 2.9-.3 1.9-1.5 5.2-2.6 7.5s-2 4.7-2 5.4c0 .8-.7 2.3-1.5 3.4-.8 1.2-1.1 2.4-.8 2.8.4.3-.3 1.6-1.3 2.9-3 3.3-6.5 19.6-6.2 28.4.2 4 .7 7.3 1.1 7.3.5 0 .5.5.1 1.2s-.8 2.8-.7 4.8c.1 5.4 3.2 21.6 4.7 24.7 3.3 6.6 3.8 8.2 3.1 10.2-1.3 4.2-5.4 2.3-12.2-5.9-3.5-4.1-6.3-8.2-6.3-9.1 0-.9-.6-1.9-1.3-2.2-1.5-.6-4.1-6.7-7.9-18.9-2.2-7-2.5-9.3-2.3-23 .2-12.6.6-16.3 2.3-21.1 1.5-3.9 1.7-5.7.9-5.7-.8-.1-.7-.5.3-1.3.8-.7 2.7-3.7 4.2-6.7 2.1-4.4 2.4-5.6 1.2-5.8-1.7-.4-1.7-.7-.3-3.3.7-1.4 1.4-1.7 2.3-1 1.7 1.5 4-.3 3.3-2.8-.3-1.1-.2-2 .2-1.9 2 .2 3-.4 3.7-2.5.4-1.2 1.5-3.3 2.5-4.6 1.1-1.3 1.9-3.1 1.9-3.9 0-.9.8-2.4 1.8-3.5 1.7-1.9 1.6-2-1-1.3-1.6.4-2.8.2-2.8-.3 0-1.3 3.5-3.2 5.1-2.9.6.2 1.5-.8 1.9-2.2.4-1.4 1.7-4.4 2.9-6.8 1.9-3.7 2-4.3.6-4.8-.8-.3-1.5-1.7-1.5-3 0-2.2.3-2.3 2-1.4 1.6.9 2 .8 2-.7.1-1 .7-3.5 1.4-5.5.8-2.2 1-4 .4-4.6-.5-.5.3-.9 2.1-1 2.8-.1 3.1.3 4.1 5.1zm294.4-2.1c.8 1.3 2.4 5.3 3.6 9 1.2 3.8 2.6 7 3.1 7.4.5.3.9 1.5.9 2.8 0 1.2.6 3 1.3 3.9 1.1 1.6 1.2 1.4 1.2-1.4 0-1.8.6-3.4 1.3-3.6.8-.3 1.2.8 1.2 3.5 0 2.3-.5 4.2-1.2 4.5-1 .3-.9.8.2 2.2.8 1 2.5 3.9 3.7 6.4 1.6 3.4 2.2 4 2.2 2.3.1-1.2.6-2.2 1.1-2.2.6 0 1-.7 1-1.5s.5-1.5 1-1.5c.6 0 1 .6 1 1.4 0 .8-.4 1.8-1 2.1-.5.3-1 1.5-1 2.5s-.5 2-1.1 2.2c-.6.2-.1 1.2 1 2.2 1.9 1.7 2.1 1.8 2.1.2 0-.9.4-1.4 1-1.1.6.4.5 1.3-.2 2.4-1.3 2.1.1 4.1 3.5 5.4 1 .4 1.6 1.1 1.3 1.6-.8 1.2 1.3 7.2 3.1 9.1 1.2 1.3 1.3.9.7-2.8-.5-3-.3-4.2.6-4.2.8 0 1.1 1.8.9 5.7-.1 3.2.4 7.1 1 8.8 3 7 5.1 18.3 5.1 27.7 0 8.7.2 9.9 2.4 12.5 1.7 2.1 2.1 3.4 1.5 4.9-1.2 3.3-2.8 3.8-3.8 1.2-.9-2.3-.9-2.2-1.6.7-.4 1.6-.8 3.5-1 4.2-.2.7-.1 1.4.3 1.7.7.4.8 4.3.3 10.3-.1.7-.8 1.3-1.7 1.3-1.2 0-1.5-.6-1-2.6.4-1.5.3-2.3-.3-2-1.2.8-5.1 8.3-5.1 10 0 .7-.7 2-1.6 2.7-.9.8-2.8 3.1-4.1 5.2-3.4 5.4-10.5 12.7-12.3 12.7-3.1 0-4.5-1.7-3.3-4.2.6-1.3 2.5-5.3 4.2-8.9 3-6.4 4.1-10 2.1-6.9-2 3-1.1-1.8 1-5.5 1.7-3 2-5.4 2-16 0-6.8-.4-12.6-.9-12.9-.4-.3-1.1-2.7-1.3-5.3-.3-2.7-1.2-6.4-2.1-8.3l-1.6-3.5.5 4.5c.4 3.7.3 4.2-.7 2.6-.7-1.1-.9-3.6-.5-6.2.7-5.2-.9-10.7-2.5-8.4-.8 1.1-.9 1-.4-.7.6-2.2-3.9-17.8-5.6-19.7-.5-.6-.9-2-.9-3.2 0-1.3-.4-2.5-.8-2.8-.5-.3-1.4-3.1-2.1-6.3-.7-3.2-1.5-6.7-1.7-7.8-.3-1.1-.9-7.8-1.4-14.9-.5-7.1-1.4-13.4-2-14-1.6-1.6-1.2-3.9.5-3.2 1 .3 1.5-.1 1.5-1.4 0-2.7 1.8-7 3-7 .5 0 1.6 1 2.4 2.2zm89.6 1.7c0 1 1.1 3 2.4 4.4 1.6 1.7 2 2.7 1.2 3-.7.3-1.7.2-2.2-.1-1.7-1.3-4.1-6.7-3.7-8.5.5-2.1 2.3-1.2 2.3 1.2zm-490.6 4.7c.8 2.1.8 2-3.1 2.9-3.9.8-4.4-.6-1.1-2.9 2.8-2 3.4-2 4.2 0zM339.1 325c-.5 3-2.1 3.4-2.1.5 0-1.6-.8-3.7-1.7-4.7-1.5-1.6-1.5-2.1-.3-2.8 1.1-.7 1.8-.1 2.9 2.3.8 1.8 1.3 3.9 1.2 4.7zm333.9-4.7c0 .7-.6 2.1-1.3 3.1-1.6 2.1-6.9 1.3-6-1 .3-.9 1.3-1.2 2.9-.8 1.8.5 2.4.2 2.4-1 0-.9.5-1.6 1-1.6.6 0 1 .6 1 1.3zm-112.5 28.8c.7 3.1-.2 5.6-1.5 4.2-.5-.4-1.2-2.5-1.5-4.6-.6-3.1-.5-3.6.8-3.1.9.3 1.9 1.9 2.2 3.5zm-73.3 25.2-.9 7.2-.1-10.5c0-8.2.2-9.8.9-7.2.6 2 .6 6 .1 10.5zM322 366.8c0 3.7-1.1 7.2-2.1 7.2s-1.2-9.3-.3-10.3c1.2-1.2 2.4.4 2.4 3.1zm247 7.9c0 2.6-2.5 3.1-3.4.8-.3-.8-.3-2.9.1-4.6l.6-3.1 1.3 2.3c.7 1.3 1.3 3.4 1.4 4.6zm-78 13.9c0 3-.4 6.2-.9 7.2-.5.9-1.6 3.3-2.4 5.2l-1.6 3.5v-4.1c-.1-2.7.5-4.6 1.5-5.5 1.3-1 1.5-2.4 1-6.1-.7-5-.2-7.3 1.5-6.3.5.4.9 3.1.9 6.1zm-166.5 11.8c.8 5.1.4 7.8-1.1 8.3-1.1.4-2.6-10.3-1.7-12 1.1-1.8 2.2-.3 2.8 3.7zm-157.3 8.8c.6 2.1 1.5 3.8 2 3.8 1.1 0 1 3.7-.1 4.4-.5.4-1.2-.8-1.6-2.6-.4-1.8-1.3-4-2-4.8-.7-.8-1.5-3.1-1.8-5-.6-3.3-.6-3.4.8-1.5.9 1.1 2.1 3.7 2.7 5.7zm106.8 12c0 5.1-.3 6.8-1 5.8-1.7-2.6-1.2-13 .7-13 .2 0 .3 3.3.3 7.2zm47 .3c0 3-.4 5.5-1 5.5-.5 0-1-2.5-1-5.5s.5-5.5 1-5.5c.6 0 1 2.5 1 5.5zm42 3.9c0 2.5-1.2 4.6-2.6 4.6-.8 0-1.4.7-1.4 1.5s-.4 1.5-1 1.5c-1.4 0-1.3-.4 1.1-5 2.1-4 3.9-5.2 3.9-2.6zm-225 29.7c0 1.6-.4 2.9-1 2.9-.5 0-1 .7-1 1.5s-.7 1.5-1.5 1.5-1.5-.7-1.5-1.5.4-1.5 1-1.5c.5 0 1.2-1.6 1.6-3.5.7-4.1 2.4-3.7 2.4.6zm77.7 12.3c3.4.2 3.5 1.1.3 3-2.7 1.5-3 1.5-3 .1 0-.8-.7-1.8-1.5-2.1-.8-.4-1.5-1.1-1.5-1.6 0-.6.8-.7 1.8-.3.9.4 2.7.8 3.9.9zm516.9 12.4c-1.2 1.2-1.8 1.3-3 .3-.8-.7-2.4-1-3.5-.6-1 .3-2.2.1-2.6-.5-.4-.6.6-1 2.4-1 2.5 0 3.5-.7 5.3-4l2.3-4 .3 4.2c.2 2.7-.2 4.6-1.2 5.6zm-568-4.3c.3 1.4 1.2 2.5 2 2.5 1.9 0 1.8 1.7-.3 2.4-2.1.9-3.1-.2-3.9-4.2-.8-3.8 1.2-4.5 2.2-.7zm435 5.7c.4.6.2 1.4-.4 1.6-.7.2-1.9 1.1-2.7 1.9-.9.8-2.2 1.2-3.1.9-2.3-.9-1.3-3.9 1.6-4.7 3.7-1 3.8-1 4.6.3zm-350.2 7.4c3.1 6.6 1.9 7-4.2 1.4-4.8-4.2-4.9-5.9-.4-5.2 2.1.3 3.4 1.3 4.6 3.8zm453.4 17.6c.4 2-5.5 3.5-7.1 1.9-1.3-1.3-.1-2.7 2.8-3.4 2.8-.7 4-.3 4.3 1.5zm-584.2 24.1c-.1 1.2-1 2.3-1.9 2.5-1.3.3-1.7-.4-1.7-3.3 0-3.3.2-3.5 2-2.5 1.3.7 1.9 1.8 1.6 3.3zm83 59.3c.6.8 1.6 1.4 2.3 1.4 1.3 0 1.5 1.7.1 2.5-1.7 1-5.9-.6-5.3-2.1.3-.9-.2-1.4-1.5-1.4-1.1 0-2.8-.3-3.7-.6-1.3-.5-1.4-.9-.3-1.5 1.7-1.2 7-.1 8.4 1.7zm320.6 25.9c-.4 2.1-1 2.5-3.8 2.5-1.9 0-3.4-.5-3.4-1 0-.6.7-1 1.5-1 .9 0 1.2-.6.9-1.5-.5-1.1.1-1.5 2.4-1.5 2.6 0 2.9.3 2.4 2.5zM255 622.6c6.1.4 11 1.1 11 1.6 0 .8-3 .7-15.5-.7-1.1-.1-5.4-.4-9.5-.5-6.5-.2-7-.4-3.5-1 2.2-.4 4.6-.6 5.3-.4.7.2 6.2.7 12.2 1zm326.5 1.4c-.3.5-4 1-8.1 1-4.3 0-7.4-.4-7.4-1s3.4-1 8.1-1c5.1 0 7.8.4 7.4 1z"
       id="path273859" />
    <path
       d="M444.1 363.6c-1.2 1.5-2.1 2.9-2.1 3.3 0 .3-1.9 2.6-4.1 5.1-2.2 2.5-7.1 9-10.7 14.5-9 13.5-8.9 13.4-10.9 18-.9 2.2-3 6.4-4.5 9.2-3.1 5.7-11.8 27.3-11.8 29.1 0 1.4 2.3 1.9 11.7 2.6l7.1.6.7-3c.4-1.7 1-3 1.4-3 .4 0 1.2-1.5 1.9-3.3 1.6-4.4 5.6-8.1 7.7-7.3 1.5.5 1.6 1.8 1 9.9l-.7 9.2 9.4 2.3c5.1 1.2 10.3 2.5 11.5 2.8 1.7.5 2.2.1 2.5-1.8.3-2.2.5-2.1 2.2 1.1l1.8 3.4 1.7-3.9c4.7-10.4 5.3-14.1 4.8-27.3-.2-6.9-1.2-15.5-2.1-19.1-2.5-9.8-6.8-23-7.5-23-.4 0-.7-.8-.8-1.8-.2-3-6.5-20.2-7.4-20.2-.4 0-1.7 1.2-2.8 2.6zm17 77.2c-.7 2.1-.9.6-.9-6.8l.1-9.5.9 6.8c.6 4.4.6 7.7-.1 9.5z"
       id="path273861" />
  </g>
  <g
     fill="#FC0"
     stroke="#FC0"
     stroke-width="4.8"
     id="g273873">
    <path
       d="M408.6 169.2c.3 2.4 1 5.6 1.6 7.3 1.9 6 2.2 21.6.4 30.3-1.6 7.8-2.3 9.8-6.6 19.7-1 2.2-2.1 5-2.4 6.2-.4 1.1-1.3 2.4-2.1 2.7-.8.3-1.5 1-1.5 1.6 0 .6-.6 1.8-1.2 2.5-5 5.4-12.4 15.7-13.2 18.3-.4 1.1-1.7 3.1-3.1 4.6-1.3 1.4-2.6 3.4-3 4.6-.6 2-4.5 8.8-7.7 13.8-1 1.5-2.1 3.4-2.4 4.2-1.5 3.3-12.6 26.6-13.5 28.2-.5 1-.9 2.4-.9 3.1 0 .7-.9 3-2 5.2s-2 4.8-2 5.8-.6 3.3-1.4 5c-.8 1.8-1.7 4.8-2 6.7-.3 1.9-1 5.7-1.6 8.5-.6 2.7-1.6 8-2.3 11.7-.7 3.6-1.5 7-1.9 7.4-.5.4-.8 2.8-.8 5.3s-.5 7.3-1 10.6-1 13.2-1.1 22c-.2 17.9 1.2 27.8 3.8 27.3 1.7-.3 1.9-.8 4.8-11.8.9-3.6 2.3-7.9 3-9.5.7-1.7 1.9-5.6 2.6-8.8.7-3.2 1.6-6 2.1-6.3.4-.3.8-1.5.8-2.7 0-1.3.6-3.1 1.3-4.2.8-1.1 2-4.1 2.7-6.8.7-2.6 1.7-5 2.1-5.3.5-.3.9-1.2.9-2.1 0-2 4.8-14.4 6.1-15.7.5-.6.9-1.8.9-2.9 0-1 .9-3.5 2-5.5s4.7-9.6 8.1-16.7c3.4-7.2 7.1-14.4 8.3-16 1.2-1.7 2.7-4.1 3.4-5.5 2-4.1 12.1-18.5 19.9-28.4 15.4-19.5 21.3-29.3 22.8-38.3.4-2.4 1.1-4.5 1.6-4.9 1.2-.7 1.2-28.1 0-28.8-.5-.3-1.2-2.6-1.5-5-1.2-7.7-5.4-18.1-10.6-26.1-1.1-1.7-2.4-4-3-5.3-1.2-2.7-5.1-8.4-6.5-9.4-.5-.4-1.8-.8-2.8-.8-1.5 0-1.6.6-1.1 4.2zm5.2 1c1.1 1.8 3.6 6 5.7 9.3 5.6 9.2 9.2 17.2 11.5 25.9 2.9 11 2.4 35-1 43.1-4.5 11.2-15.1 27.5-22.8 35.5-1.4 1.4-3.2 3.6-4 5-.9 1.4-3.3 4.7-5.3 7.5-12.1 16.3-26.3 44.1-35.9 70-1.3 3.3-2.6 6.9-3.1 8-4.6 11.4-11.1 31.1-14.4 44-4.8 18.5-6.1 15.4-5.8-14 .1-18.6.5-24.3 2.6-36.5 4.8-27.3 9.1-42.2 17.5-60.5 6.4-14 16-32.7 19.8-38.5 1.6-2.5 3.1-5 3.4-5.5 1-2.1 14.5-22 15.5-23 3-2.7 8.6-13.4 10.9-20.5 1-3 2.2-6.9 2.8-8.5 1.9-5.7 2.1-23.4.4-32.6-.9-4.7-1.6-9.3-1.6-10.2 0-2.7 1.6-2 3.8 1.5zm52.8 99c-1 3.8-.5 6.7.5 3 1.9-6.4 3.6-3.1 5.7 10.8l.9 6.5.2-4.9c.2-7.4-3-17.6-5.5-17.6-.6 0-1.4 1-1.8 2.2zm-4.4 15c-1.8 4.7-3.2 9.2-3.2 10 0 .9-.7 2.1-1.5 2.8-.8.7-1.5 2.2-1.5 3.4.1 1.9.2 1.8 1.6-.7 2.1-3.9 8.5-21.9 8.1-23-.1-.5-1.7 2.9-3.5 7.5zm11.9 7.5c0 1 .4 4 1 6.8.5 2.7 1.4 8.4 1.9 12.5.6 4.1 1.7 12.2 2.5 18l1.4 10.5-.4-8c-.2-4.4-1-13-1.9-19-.9-6.1-1.9-13.4-2.2-16.3-.6-4.9-2.5-8.5-2.3-4.5zm-209.9 9c-.5 1-1.5 4.5-2.2 7.8-1.4 6.7-6.7 20-10 25.5-.5.8-2.4 4.1-4.2 7.4-1.8 3.2-4.1 7-5 8.5-4.1 6.4-8.7 16.2-11.4 24.1-2.7 8-2.9 9.4-2.8 24.5.1 12 .5 16.9 1.6 19.6.9 2 1.9 5.5 2.3 7.7.4 2.3 1.1 4.4 1.6 4.8.5.3.9 1.2.9 2.1 0 .9 1 3 2.3 4.7 1.2 1.7 2.9 4.3 3.6 5.8 2.4 4.7 11.1 13.8 13.2 13.8 2.5 0 3.5-2.5 2.2-5.3-8.2-17.6-10.7-43.3-5.9-61.3 1.3-4.9 3.4-10.9 4.8-13.4 1.3-2.5 3-6.7 3.8-9.3.7-2.6 1.7-5 2.1-5.3.5-.3.9-1.2.9-2s.9-3.5 2-5.8c1-2.4 2.5-7 3.1-10.2 1.6-8.5 2.3-36.3.9-41.3-1.2-4.4-2.4-5.2-3.8-2.4zm3.3 18.6c0 18.6-1.6 26.6-8.6 44.3-2.9 7.1-5.5 13.3-5.9 13.9-.5.5-1.8 3.9-3.1 7.5-1.8 5.3-2.3 9.4-2.7 21.9-.5 17.5.5 25.3 4.9 38.1 3 8.8 2.7 11.5-1 8.3-6.4-5.3-15.6-21.3-18.1-31.2-.5-2.2-1.5-6-2.1-8.4-.6-2.3-1.2-9.8-1.2-16.7 0-11 .3-13.5 2.8-21 3.3-10.1 7.1-18 13.3-27.5 7.4-11.6 12.9-23.4 16.3-35.3 4.3-15 5.4-13.8 5.4 6.1zm291.6-14.2c-2.2 10 .5 35.6 5.1 48.9 1.6 4.7 4 11.9 5.4 16 1.4 4.1 3.2 8.9 4 10.7.8 1.7 1.4 3.7 1.4 4.5 0 .7.9 3.7 2 6.6 1.1 2.9 2 6.8 2 8.7 0 1.8.5 3.7 1 4 .6.4 1 6 1 13.5s-.4 13.1-1 13.5c-.5.3-1 2.1-1 4 0 1.8-1.6 6.6-3.5 10.6-3.9 8.3-4.5 11.9-1.7 11.9s17.2-16.7 17.2-19.9c0-1.3 2.6-6.5 4.6-9.1 2.5-3.3 4.8-15.7 5.1-28.5.6-17.5-1.1-24.7-9.4-42-1.3-2.8-3.3-6.4-4.3-8-1.1-1.7-2.3-3.7-2.7-4.5-.3-.8-1.7-2.8-2.9-4.3-1.3-1.5-3.3-4.7-4.4-7-1.1-2.3-3.2-6.2-4.5-8.7-1.4-2.5-2.5-5.3-2.5-6.2 0-.9-.4-1.9-.9-2.3-.6-.3-2-3.8-3.2-7.8-3.5-11.3-5.1-12.4-6.8-4.6zm3.7.6c.5 1 2.2 5.4 3.7 9.8 3.4 10.1 6.1 15.4 14.4 28.5 13.6 21.6 17.9 33.4 18.8 51.5.4 10.2.2 13.2-1.6 20.3-1.2 4.6-2.6 9.1-3 10-8.1 16.5-12.3 23.1-17.5 27.4-4.1 3.5-4.7 1.9-1.5-4.5 3.4-6.8 5.7-16.5 6.4-26.7.9-12.1-2.1-27-9.6-48-9.3-25.9-10-28.4-11.5-37.5-.7-5-1.4-14.3-1.4-20.8 0-11.3.8-13.9 2.8-10zm-109.1-.7c-.9 1.1-1.7 2.5-1.7 3.2 0 .6-.6 1.9-1.4 2.7-.7.9-3 4.7-5.1 8.6-2 3.8-4.3 7.7-5.1 8.5-2.4 2.6-6.5 7.9-6.7 8.6-.3 1.1-12 13.8-20.1 21.9-8.7 8.6-18 19.4-17.4 20.1.3.2 2-1.2 3.8-3.3 1.8-2.1 8-8.8 13.9-14.8 18.4-19 26.6-29.3 34.8-44 8.1-14.6 8.6-15.7 5-11.5zm40.8 3.9c-.3 1.1.7 4.2 2.5 7.7 1.6 3.2 3 6.5 3 7.2 0 .8 1.1 4 2.4 7.1 1.4 3.1 3.2 8.3 4.1 11.6.9 3.3 2.3 8 3 10.5 3.1 9.6 4.8 24.7 5.2 45.1.4 17.4.1 22.8-1.6 34-3.3 20.7-3.9 24.1-6.1 30.9-1.1 3.4-2 7.4-1.9 8.9.1 2.6.1 2.6 1.1-.4.5-1.7 1.3-3.9 1.8-5 1-2.6 3.5-14.6 5.5-26.5 4-23.8 3.8-57.2-.4-77-3.8-17.7-5-22.8-6.5-26.1-.8-1.9-2.7-6.6-4.2-10.4-1.4-3.9-3.5-8.7-4.6-10.8-2.9-5.8-1.2-5.8 3.9-.2 3.8 4.3 4.2 4.5 2.8 1.8-1.7-3.7-7.3-10.3-8.5-10.3-.5 0-1.1.8-1.5 1.9zM328 313.2c-3 4-15.8 23.4-18.5 27.9-1.1 1.9-3.2 5.4-4.7 7.9s-3.6 6.1-4.6 8c-1 1.9-2.4 4.6-3.2 6-2.2 4.2-2.8 5.3-5.5 11-4.5 9.5-5.3 11.4-6.6 15.5-.7 2.2-1.7 4.4-2.1 5-.4.5-.8 1.8-.8 3s-.7 3-1.5 4.1c-.8 1-1.5 3-1.5 4.4 0 1.4-.9 5.7-1.9 9.5-2.4 9-4.4 27.9-3.9 37.5.4 7.5.4 7.4.6-2.1.4-17.5 5.5-44.6 10.8-56.6.8-1.7 1.4-3.6 1.4-4.2 0-2.9 20.3-43.2 22.2-43.9.4-.2.8-.8.8-1.3 0-1.2 20.6-32.5 22-33.4 1.5-.9 1.2 3-.5 7.2-2.1 4.9-1.8 5.5.5 1.3 2.2-4.1 2.6-10 .7-10-.7 0-2.4 1.4-3.7 3.2zm183.3 15.7c8.7 13 10 15.4 22.1 38.5 10.2 19.4 17.4 40.5 20.7 60.1.6 3.8 1.1 15.1 1.1 25-.1 15.4-.4 19.6-2.6 29-1.3 6-2.8 12.1-3.2 13.5-.7 2.2-.6 2.4.9 1.1.9-.7 1.7-2.4 1.7-3.7 0-1.2.5-3.5 1.1-5 4-10.8 5-41.8 1.8-61.4-1.1-6.9-2.3-14.1-2.6-16-.3-1.9-.9-4-1.3-4.5-.4-.6-1.3-3.3-2-6-.8-2.8-2-6.1-2.7-7.5-.7-1.4-1.3-3.1-1.3-3.7 0-.7-.9-2.7-2-4.5-1.1-1.8-2-4.3-2-5.5 0-1.2-.5-2.5-1-2.8-.6-.4-2.4-3.4-4.1-6.8-5.1-10.5-11.3-22-13.4-25.2-1.2-1.7-2.7-4.4-3.5-6-2.8-5.9-10.6-16.5-12.2-16.5-.4 0 1.6 3.5 4.5 7.9z"
       id="path273867" />
    <path
       d="M326.8 328.3c-1 2.3-1.8 5-1.8 5.9 0 .9-.4 1.9-.9 2.2-.5.3-1.6 3.8-2.6 7.8-.9 4-2 8.2-2.5 9.3-.9 2.3-3.3 13.6-5.2 24.5-1.5 8.9-1.5 46.9.1 54.5 1.1 5.4 1.1 7.1-.5-25-.4-7-.2-14.7.4-18.5.6-3.6 1.6-9.9 2.2-14 2-13.8 8.3-38.4 11.7-45.7.9-1.7 1.4-3.6 1.2-4.2-.2-.6-1.2.8-2.1 3.2zm154.6 18.3c.3 1.6 1.1 11.7 1.7 22.5 1.1 18.7.8 27.4-1.7 47.4-.4 3.3-.3 3.6.6 1.7 3.6-8.3 3.4-71.6-.3-73.9-.5-.3-.7.6-.3 2.3zm-38.8 17.3c-1.4 2.1-2.9 4.1-3.3 4.2-1.5.7-9.1 10.8-17.1 22.9-5.6 8.5-15.6 29.4-21 44-3.1 8.4-3.2 9-2.2 9 .6 0 1-.5 1-1.1 0-1.9 8.7-23.4 11.8-29.2 1.5-2.8 3.6-7 4.5-9.2 2-4.6 1.9-4.5 10.9-18 3.6-5.5 8.1-11.6 9.8-13.5 1.8-1.9 4.3-5.1 5.6-7.2 2.3-3.6 4.2-5.4 4.9-4.6.5.4 8.6 23.1 11.4 31.8 4 12.1 5.4 19.9 5.8 32.5.5 12.3.3 13.4-2.2 20-3.6 9.6-3.9 11.1-2.2 11.8 3.5 1.3 14.2-12.1 17.3-21.7.9-2.8 2-5.5 2.5-6 .5-.6.8-2.8.8-5-.1-2.3-.3-3.2-.6-2.1-1.4 6-5.5 16.9-8.3 21.8-3.7 6.6-9.7 12.4-11.3 10.8-.7-.7-.7-1.4 0-2.3.6-.7 2-4.4 3.3-8.1 1.8-5.5 2.2-8.9 2.1-18.6-.1-13.2-3-26.6-9.6-44.1-2-5.2-4.3-11.5-5.2-14-3.2-9.4-4.9-10.2-8.7-4.1zm-289.2 24.8c-.7 6.9.1 28.5 1.6 42.8 1.2 12 6.1 31.9 8.3 34.1.4.4.7 1.4.7 2.2 0 1.5 4.8 12.2 6 13.2.3.3 1.3 2.1 2.3 4 5.7 11.4 14.4 23.2 25.4 34.6 9.9 10.2 23.6 21.4 26.2 21.4 1.5 0 9.1 4.1 9.1 4.9 0 1.2-11.3 3.8-23.5 5.5-9.2 1.3-26.1.8-32.9-.8-1.2-.3-1.6-.2-.9.5 1.5 1.5 18.8 3 26.8 2.4 15.7-1.3 30.8-5 31.3-7.7.2-.9-1.7-2.3-5-3.8-10.5-4.7-25.5-17.2-37-30.9-6.4-7.5-9.6-11.9-16.7-23.1-6.6-10.3-14.2-30.5-17.1-45.6-3.5-17.8-4.9-52.1-2.1-53.8.4-.3 1.3 2.8 2 6.7 1.3 7.5 5.2 20 7.8 25.2 5.8 11.5 22 32 33.8 42.7 12.1 11.1 28.6 22.8 45.5 32.3 4.7 2.7 9.4 5.5 10.4 6.4 1.8 1.5 1.8 1.5.8-.5-.6-1.1-2.9-2.9-5.1-3.9-2.3-1-4.1-2.2-4.1-2.7 0-.4-.6-.8-1.4-.8-.7 0-1.9-.7-2.6-1.5-.7-.8-1.9-1.5-2.7-1.5-.8 0-5-2.5-9.4-5.5s-8.2-5.5-8.5-5.5c-.6 0-4.3-2.9-12.8-10.3-2.4-2-4.8-3.7-5.4-3.7-.6 0-1.4-.9-1.7-2-.3-1.1-1-2-1.5-2-1.1 0-8.3-7.2-15.5-15.5-16.2-18.6-23.2-32.8-27.1-54.8-2.1-11.8-3.9-12.9-5-3zm521.7 18.8c-.1 11.3-.7 21.2-1.7 26.5-.8 4.7-1.9 10.8-2.4 13.7-.5 2.9-1.4 6.1-1.9 7.2-.6 1.1-1.1 2.7-1.1 3.6 0 .9-.9 3.5-2 5.7-1.1 2.3-2 4.8-2 5.5 0 2.4-11.9 25.3-13.2 25.3-.4 0-.8.5-.8 1.1 0 3.1-18.5 23.7-27.4 30.4-2.1 1.7-5.9 4.6-8.3 6.6-4.9 4-6 4.6-14.5 8.3-8.4 3.6-7.9 4.4 4.2 7.9 13.9 4 41.1 5.6 48.5 2.8 2.4-.9 1.8-.9-3.5-.3-11.6 1.3-30 0-41-2.9-1.9-.5-5.4-1.3-7.7-1.9-2.4-.6-4.3-1.4-4.3-1.9 0-.4 1.9-1.6 4.3-2.5 8.5-3.6 11.3-5.2 17.9-10.3 3.7-2.9 6.9-5.3 7.2-5.3 1.3 0 21.6-21.6 21.6-22.9 0-.5.9-1.6 2-2.6s2-2.4 2-3.1c0-.7.6-1.7 1.3-2.1 1.2-.8 3.1-4 6.9-11.8 1.1-2.2 2.8-5.7 3.9-7.8 1-2.2 1.9-4.7 1.9-5.6 0-.9.4-2.1.9-2.7 1.4-1.5 5.1-13.5 7.3-23.6 1.4-6.9 2.1-14.7 2.5-30.3.3-11.6.3-21.9 0-23-.2-1.1-.5 6.1-.6 16zm-291.6-12.7c-2 1.3-11.4 16.9-12 19.8-.4 1.7 1.1-.2 3.5-4.6 2.3-4.1 5.5-9.4 7.1-11.8 1.5-2.3 2.7-4.2 2.6-4.2-.1 0-.7.4-1.2.8z"
       id="path273869" />
    <path
       d="M669.6 398.5c-.4 1.6-1.1 3.8-1.7 4.7-.5 1-.9 2.6-.9 3.5 0 1.7-7.1 16.4-11.8 24.6-3.4 5.8-6.4 9.7-7.6 9.7-.6 0-1.7 1.2-2.3 2.8-3 6.6-30.2 31.2-44.8 40.5-2.7 1.7-5.2 3.4-5.5 3.8-.3.3-1.5.9-2.8 1.3-1.2.4-3.4 1.8-5 3-2.8 2.4-17.2 10-28.5 15.1-3.7 1.6-6.7 3.4-6.7 3.9 0 .4.6.6 1.3.3 9.7-4 13.3-5.7 19.4-8.8 9.8-5.1 16.7-9.2 17.1-10.1.2-.4.8-.8 1.4-.8.5 0 3-1.5 5.6-3.2 2.6-1.8 5.8-3.9 7.1-4.6 10.2-5.4 36.7-30.2 48.4-45.4 7.5-9.7 19.9-38.1 18.4-42.1-.3-.7-.8.1-1.1 1.8zm-301 21.1c-.9.8-1.6 2-1.6 2.5s-.9 2.8-1.9 5.2c-1.8 4-5.1 13.9-5.1 15.2 0 .3.5.3 1 0 .6-.3 1-1.3 1-2.1 0-2 4.5-13.7 7.1-18.7 2.2-4 2-4.7-.5-2.1zm55.2 16.6c-1.9 3.5-3.8 7.3-4.2 8.5-1.2 3.9.8 2.5 2.8-2 2.6-5.7 5.6-9.8 6.6-9.2.5.3.7 3.8.5 7.8-.4 7-.4 7 .5 1.7.4-3 .8-7.2.9-9.3.2-6-2.8-4.9-7.1 2.5zm-78.3 24.3c-13.1 1.8-23.5 4.6-24.5 6.5-.7 1.4-.2 1.7 3.8 2.1 5.9.5 31.3.1 32-.5.2-.3.7-2.5.9-5.1.6-5.2 1.7-4.9-12.2-3zm47 .9c-.2.6-.6 2.3-.9 3.7l-.6 2.7 11.3-.2c10.6-.1 11.2 0 11.2 1.9 0 2.4 2.6 3.2 10.8 3.4 4.1.1 5.7-.3 5.7-1.2 0-2.1-6.6-4.7-12-4.7-3.8 0-5-.4-5-1.5 0-.8-1.2-1.7-2.7-2.1-1.6-.3-3.6-.8-4.7-1.1-5.1-1.4-12.8-1.9-13.1-.9zm-67.2 18.5c.3.9 2 5.2 3.9 9.7l3.3 8.1 9 1.2c5 .7 10.6 1.4 12.5 1.7l3.5.5V483h-5c-2.7 0-10.1-1.1-16.3-2.4-10-2-11.3-2.1-10.9-.7zm76.6 3.6c-.3.2-3.5.5-7.1.6l-6.6.2-.6 3.6c-.3 2-.6 5.5-.6 7.8v4.3h4.8c4.4 0 11.9-1.3 12.8-2.2.2-.3 1-3.7 1.7-7.6l1.4-7.2H405c-1.5 0-2.9.2-3.1.5zm84.9 21.2c-2.9.5-6.3 4.7-5.2 6.5.5.7.3.8-.6.3-.7-.4-1.5-.3-1.9.2-1.2 1.8-8.1 6.5-13.8 9.4-3.2 1.7-4.9 2.8-3.8 2.5 1.1-.3 3.7-.6 5.8-.8 3.1-.2 5.6-1.7 12.9-7.4 4.9-4 9.7-8.2 10.5-9.3 1.5-2.2 1.6-2.2-3.9-1.4zM120 527.5c0 1.4.6 3.6 1.2 4.8.7 1.2 1.7 3.4 2.3 4.9 2.3 6.2 17.3 21.4 28.1 28.5 4.3 2.9 8.4 5.7 9.1 6.3.7.5 1.6 1 2.1 1 .4 0 3.9 1.6 7.8 3.5 3.8 1.9 7.6 3.5 8.5 3.5.8 0 1.9.4 2.5.9 1.2 1.3 17.8 5.5 28.9 7.5 10.6 1.8 31.4 3.6 42.6 3.6 6 0 8 .3 7.7 1.2-.3.7-1.8 1.6-3.4 2-2.6.6-2.6.7.6.4 1.9-.2 5.3-1.1 7.5-1.9l3.9-1.5-8.4-.5c-4.7-.4-15.7-1.1-24.5-1.7-34.9-2.3-61.5-10.4-84.7-25.6-7.5-4.9-23.2-19.8-24.9-23.7-.5-1.2-2-4-3.4-6.2-5.1-8.4-2.1-10 5.7-3 5 4.5 6.1 5.2 18 11.2 6.6 3.4 21.8 8.4 24.7 8.2.9-.1 0-.6-1.9-1.3-1.9-.6-3.9-1.4-4.5-1.7-.5-.4-2.8-1-5-1.4-2.2-.4-4.4-1-5-1.5-.5-.4-2.7-1.3-4.7-1.9-2.1-.7-3.8-1.7-3.8-2.2 0-.5-1-.9-2.1-.9-2.4 0-14.2-7.9-17.4-11.6-1.1-1.2-3.2-2.6-4.7-2.9-2.5-.7-2.8-.5-2.8 2zm581.7.5c-4.1 4.6-23.8 16-27.6 16-.9 0-2.1.4-2.6.8-.6.5-3 1.4-5.5 2.1-2.5.7-5.8 1.9-7.5 2.6-6 2.7 1 1.6 9.8-1.5 15.2-5.4 25.9-10.9 31.7-16.6 6.9-6.6 7.8-3.9 2.4 7-4.6 9.4-13.3 19-23.7 26-8 5.3-20.5 11.6-23 11.6-.7 0-1.7.4-2.2.9-2.1 1.9-33.5 10.1-38.6 10.1-1.5 0-3.9.5-5.5 1-1.6.6-9.9 1.4-18.4 1.9l-15.5 1 15.5-.4c16.7-.4 32.2-2.7 47.5-7 5-1.4 10.5-3 12.3-3.4 1.8-.5 4.3-1.6 5.7-2.5 1.3-.9 2.9-1.6 3.6-1.6 1.1 0 12.9-5.6 18.4-8.9 5.6-3.2 21.5-18.5 21.5-20.7 0-.6.9-1.9 2-2.9s2-2.8 2-4c0-1.1.7-3 1.5-4.1 1.9-2.5 2-10.4.2-10.4-.8 0-2.6 1.3-4 3zm-144.2 63.9c-.3.5 1.8 1.6 4.7 2.5 7 2 35.4 5.6 43.1 5.5 4.9-.1 3.6-.4-6.3-1.4-22.2-2.3-31.1-3.6-34.3-5l-3.2-1.3 3-.5c2.2-.3 1.7-.4-1.7-.6-2.6 0-4.9.3-5.3.8zM227 598.5c-10.5 1-11.4 1.2-5.5 1.3 3.9 0 11.3-.5 16.5-1.2 11.9-1.7 5.5-1.7-11-.1zm-24.9 2.4c-1.1.7-1 1.1.5 1.9 2.9 1.5 14.4 4.5 18.9 4.8 5.2.5 3.8 0-6-2.2-4.4-.9-8.9-2.2-10-2.8-1.9-.9-1.8-1.1 1-1.7l3-.7-3-.1c-1.6 0-3.6.3-4.4.8zm415.9.1 2.5.7-2.8 1.1c-4.3 1.8-14.3 3.9-27.2 5.8-9.4 1.4-17.6 1.8-37.5 1.6-14-.1-28.9-.6-33-1-4.1-.5-7.9-.7-8.5-.3-3.3 2 51.8 3.8 68.3 2.2 20.6-1.9 41.5-6.6 42-9.4.3-1.3-.3-1.7-3-1.6-3.1.1-3.1.2-.8.9zm-389 7.9c3.7 1.2 14.9 2 39.3 2.7 18.5.6 21.7.5 21.2-.7-.4-1.1-4.4-1.4-21.8-1.4-11.6 0-25.7-.3-31.2-.7-5.5-.4-8.9-.3-7.5.1z"
       id="path273871" />
  </g>
  <path
     d="M397.5 468c-8 .6-6.6 1.3 5.5 3 7.5 1.1 8.9.6 9-2.7 0-1.3-.2-1.3-14.5-.3zm87.7 25.7c.3 2.6.6 2.8 5.7 3.1 3 .2 5.8-.1 6.4-.7 1.2-1.2-6.2-5.1-9.8-5.1-2.3 0-2.6.4-2.3 2.7z"
     stroke-width="4.8"
     fill="#F60"
     stroke="#F60"
     id="path273875" />
  <g
     fill="#FF0"
     stroke="#FF0"
     stroke-width="4.8"
     id="g273881">
    <path
       d="M410 168.7c0 .9.7 5.5 1.6 10.2 1.7 9.2 1.5 26.9-.4 32.6-.6 1.6-1.8 5.5-2.8 8.5-2.3 7.1-7.9 17.8-10.9 20.5-1 1-14.5 20.9-15.5 23-.3.5-1.8 3-3.4 5.5-3.8 5.8-13.4 24.5-19.8 38.5-8.4 18.3-12.7 33.2-17.5 60.5-2.1 12.2-2.5 17.9-2.6 36.5-.3 29.4 1 32.5 5.8 14 3.3-12.9 9.8-32.6 14.4-44 .5-1.1 1.8-4.7 3.1-8 9.6-25.9 23.8-53.7 35.9-70 2-2.8 4.4-6.1 5.3-7.5.8-1.4 2.6-3.6 4-5 4.9-5.1 16.5-21.7 19.2-27.5 5.7-12.2 5.8-12.8 6.3-29.6.3-11.4.1-14.8-1.7-21.5-2.3-8.7-5.9-16.7-11.5-25.9-2.1-3.3-4.6-7.5-5.7-9.3-2.2-3.5-3.8-4.2-3.8-1.5zm57 104.5c-2 7.7-7.2 22.2-10.3 28.3-12.1 24.4-20.7 36.2-42.8 59-5.9 6-12.6 13.2-14.9 16-2.4 2.7-4.6 5.2-5 5.5-1.3 1-11.7 15.7-15.2 21.5-7.1 11.9-14.5 27.8-16.6 35.7l-1 3.8h6.2c3.5 0 11.7.3 18.4.7 11.4.6 12.2.5 12.8-1.3 5.4-16.3 16.9-41.2 23.6-51.4 8-12.1 15.6-22.2 17.1-22.9.4-.1 1.9-2.1 3.3-4.2 3.8-6.1 5.5-5.3 8.7 4.1.9 2.5 3.2 8.8 5.2 14 6.6 17.5 9.5 30.9 9.6 44.1.1 9.7-.3 13.1-2.1 18.6-1.3 3.7-2.7 7.4-3.3 8.1-.7.9-.7 1.6 0 2.3 1.6 1.6 7.6-4.2 11.3-10.7 9.3-16.6 13.2-42.8 11-75.9-1-15.6-2-25.9-6-58-.4-3.3-1.5-10.1-2.4-15.2-.9-5.1-2.1-12.4-2.6-16.3-.6-4-1.7-7.8-2.5-8.6-1.2-1.3-1.5-.9-2.5 2.8zm-201.7 30c.3.9.2 1.8-.2 2-.5.2-2.1 4.6-3.5 9.8-2.9 10.3-8.7 22.4-15.8 33.5-6.2 9.5-10 17.4-13.3 27.5-2.5 7.5-2.8 10-2.8 21 0 6.9.6 14.4 1.2 16.7.6 2.4 1.6 6.2 2.1 8.4 2.5 9.9 11.7 25.9 18.1 31.2 3.7 3.2 4 .5 1-8.3-4.4-12.8-5.4-20.6-4.9-38.1.4-12.5.9-16.6 2.7-21.9 1.3-3.6 2.6-7 3.1-7.5 2-2.7 11.2-27.7 12.7-34.9 2.3-10.5 2.6-37.8.4-39.8-1.2-1.1-1.3-1-.8.4zM560 315.7c0 6.5.7 15.8 1.4 20.8 1.5 9.1 2.2 11.6 11.5 37.5 7.5 21 10.5 35.9 9.6 48-.7 10.2-3 19.9-6.4 26.7-3.2 6.4-2.6 8 1.5 4.5 5.2-4.3 9.4-10.9 17.5-27.4.4-.9 1.8-5.4 3-10 1.8-7.1 2-10.1 1.6-20.3-.9-18.1-5.2-29.9-18.8-51.5-8.3-13.1-11-18.4-14.4-28.5-5.3-15.5-6.5-15.4-6.5.2zm-230.1-3.1c-2.7 3.1-20.9 31.3-20.9 32.3 0 .5-.4 1.1-.8 1.3-1.9.7-22.2 41-22.2 43.9 0 .6-.6 2.5-1.4 4.2-3.2 7.3-6.9 22.5-9.1 37.1-1.5 9.6-2.1 28.6-1 28.6.4 0 2-.7 3.6-1.6 5.6-2.8 31.7-10.4 36.2-10.4 1.5 0 1.8-.6 1.3-2.8-3.3-17.3-4.2-53.2-1.8-67.2 1.9-10.9 4.3-22.2 5.2-24.5.5-1.1 1.6-5.3 2.5-9.3 1-4 2.1-7.5 2.6-7.8.5-.3.9-1.2.9-2.1 0-.9 1.6-5.6 3.6-10.6 1.9-4.9 3.4-9.8 3.2-10.9-.3-2-.3-2-1.9-.2zm166.1-1.1c0 .3.8 2.2 1.9 4.3 1 2 3.1 6.8 4.5 10.7 1.5 3.8 3.4 8.5 4.2 10.4 1.5 3.3 2.7 8.4 6.5 26.1 4.2 19.8 4.4 53.2.4 77-2.1 12.9-4.5 24.2-5.5 26.1-.5.9-1.2 3.2-1.5 5.2-.7 3.3-.5 3.5 2.6 4.2 13.3 2.9 27.5 9.3 35.1 15.6l4.8 4 1-2.3c.5-1.3 1.9-7 3.1-12.8 1.7-8.4 2.1-14 2.1-28 0-18.4-.8-25.5-4.7-41.1-4.2-16.6-10.1-30.5-25.4-59.4-10.4-19.6-29.1-45.3-29.1-40zm-340.4 77.3c-2.4 3.9-1.2 34.6 2.1 52.2 2.7 14.8 10.8 36.7 17.4 47 7.1 11.2 10.3 15.6 16.7 23.1 11.5 13.7 26.5 26.2 37 30.9 6.6 3 6.4 4.8-.8 7-24.2 7.7-57.3 5.2-80-6-12.2-6-13.7-6.9-18.8-11.5-7.8-7-10.8-5.4-5.7 3 1.4 2.2 2.9 5 3.4 6.2 1.7 3.9 17.4 18.8 24.9 23.7 23.2 15.2 49.8 23.3 84.7 25.6 8.8.6 19.8 1.3 24.5 1.7l8.4.5-3.9 1.5c-5.6 2.1-25.9 5.1-39.5 5.8-17.2.9-22.4 1.5-21.3 2.6 1.9 1.9 17 5 31.3 6.4 12.8 1.3 52 2.1 52 1.1 0-.2-.7-2-1.5-3.9-1.7-4.1-2-21.6-.5-28.1.5-2.5 2.5-5.5 5.4-8.5l4.5-4.6-2.5-3c-2.4-2.9-2.5-3.3-2.2-18.8l.3-15.7-5-1.6c-13.4-4.4-25.9-13-29.3-20.3-1.4-2.8-4.3-4.9-14.7-11.1-25.2-14.7-37.5-24.4-54.4-42.5-7.6-8.2-18.4-23.2-22.4-31-2.7-5.3-5.9-15.7-7.6-24.5-1-4.9-2-7.9-2.5-7.2zm516 4.4c-1.7 12.9-11 34.9-19.3 45.6-11.7 15.2-38.2 40-48.4 45.4-1.3.7-4.5 2.8-7.1 4.6-2.6 1.7-5.1 3.2-5.6 3.2-.6 0-1.2.4-1.4.8-.7 1.7-19.8 11.9-31 16.6l-6.8 2.8v6.7c0 4.2-.7 8-1.9 10.7-2 4.4-8.2 9.9-15 13.4l-4.3 2.1 2 2.2c3.4 3.7 4.2 7.3 4.2 19.8 0 9.9-.3 12.6-2 15.8-2.4 4.8-8.3 9.9-15.3 13.4-4.8 2.3-5.6 3.1-6.5 6.9-.8 3.1-.8 4.4 0 4.9 4.3 2.7 60.1 3 77.3.5 12.9-1.9 22.8-4 27.2-5.8l2.8-1.1-2.5-.7c-1.4-.5-6.2-.8-10.7-.9-16.7-.2-52-5.9-49.6-8.1.4-.4 11.7-1.3 25-1.9 13.3-.6 25.4-1.6 26.8-2.1 1.5-.6 3.8-1 5.3-1 5.2 0 36.6-8.2 38.7-10.1.5-.5 1.5-.9 2.2-.9 2.5 0 15-6.3 23-11.6 10.4-7 19.1-16.6 23.7-26 5.7-11.6 4.6-13.3-3.6-5.9-2.8 2.5-5.4 4.5-5.9 4.5s-3 1.3-5.6 2.9c-6.3 3.8-21.9 9.6-31.9 11.8-14 3-35.9 2-51.4-2.4-12.1-3.5-12.6-4.3-4.2-7.9 8.5-3.7 9.6-4.3 14.5-8.3 2.4-2 6.2-4.9 8.3-6.6 8.9-6.7 27.4-27.3 27.4-30.4 0-.6.4-1.1.8-1.1 1.3 0 13.2-22.9 13.2-25.3 0-.7.9-3.2 2-5.5 1.1-2.2 2-4.8 2-5.7 0-.9.5-2.5 1.1-3.6.5-1.1 1.4-4.3 1.9-7.2.5-2.9 1.6-9.3 2.5-14.2 1.9-10.7 1.8-44.6-.1-45.2-.7-.2-1.4 1.7-1.8 4.9z"
       id="path273877" />
    <path
       d="M426.3 435.7c-1 1.5-2.8 4.5-3.8 6.6-1.7 3.3-1.8 3.9-.5 4.7.8.5 2.7 1 4.1 1 2.5 0 2.6-.3 3.2-6.8.6-7.8-.3-9.5-3-5.5zm-64 23.1c-3.9.3-4.3.6-4.3 3 0 1.5-.3 3.8-.7 5.1l-.6 2.4 16.9-.8c9.3-.4 17.1-.8 17.2-1 .2-.2.7-1.9 1.2-3.9l.8-3.5-5.2-.5c-7.1-.8-20.3-1.2-25.3-.8zm-56.2 16c-3.2 4.6-2.7 7.9 1.8 12.3 4 3.7 17.7 9.9 22.1 9.9 2.5 0 2.4-.4-2.5-11.6l-3.3-7.7-6.4-2.4c-3.4-1.4-7-2.7-7.9-2.9-1.1-.4-2.4.5-3.8 2.4zm113.6 5.7c-6 1.2-11.2 2.6-11.7 3.1-.9 1.1-3.2 13.6-2.5 14.2.9 1 14.1-2.9 20.1-5.8 8.4-4.1 9.6-5.6 8.3-10.3-.5-2-1.5-3.6-2.2-3.6-.7.1-6.1 1.2-12 2.4zm-62.3 3.4c-.8.8-.3 14.6.5 16 .8 1.2 3.7 1.5 14.6 1.4 7.4 0 13.7-.2 13.9-.4.2-.2.6-4.1.9-8.6l.6-8.2-15-.3c-8.3-.2-15.3-.1-15.5.1zM497 502.5c-2.5.8-5.4 2.5-6.5 3.8-1.1 1.4-5.7 5.4-10.3 9.1-4.5 3.6-7.7 6.6-7 6.6.7 0 4.4-.9 8.3-2 14.3-4.1 22.5-9.9 22.5-16.1 0-3.3-.5-3.4-7-1.4z"
       id="path273879" />
  </g>
  <g
     fill="#600"
     stroke="#600"
     stroke-width="4.8"
     id="g273891">
    <path
       d="M483 486.4c0 2.9-10.7 11.4-19.8 15.7l-9.2 4.4v4.6c0 3.6.6 5.4 2.8 8.1l2.8 3.5 7.2-3.4c5-2.4 8.7-5.2 12.2-9l5-5.5v-9.9c0-5.4-.2-9.9-.5-9.9s-.5.6-.5 1.4zm4.5 121-4 1.2V626l-4.5 1.4c-2.5.8-6.4 2-8.7 2.6-3.5.9-4.3 1.5-4.3 3.4 0 2.3.3 2.4 7.8 2.5 5 0 9.9.8 13.7 2.1 3.2 1.1 6.6 2 7.6 2s3.5 1.1 5.5 2.5c2.1 1.4 5.1 2.5 7 2.5 4.2 0 8.4 1.6 8.4 3.2s7.2 5.8 10 5.8c2.5 0 3.7-2.5 2-4.5-1.4-1.7-.6-4.6 2-7 2-1.8 2.1-1.8 5.2.5 2.6 1.9 3.9 2.2 8.4 1.7 3-.3 5.6-.1 5.9.4 1.4 2.2 10.5-.3 10.5-2.9 0-2.1 2.7-2.5 5.4-.7 3 2 2.6 3.5-1 3.5-1.7 0-2.4.6-2.4 1.9 0 2.3 1.9 3.1 7.5 3.1 2.7 0 4.7.6 5.6 1.6 1 1.2 2.6 1.5 6.6 1.2 3.7-.3 5.7-.1 6.4.9.8.9 3.7 1.3 8.8 1.3 6 0 8.1.5 10.1 2 1.4 1.1 3.2 2 4 1.9 1.8 0 6-3.3 6-4.8 0-1.6-6.6-2.4-9.9-1.3-3.1 1.1-4.1.7-4.1-1.5 0-1.5 6.2-4.3 9.6-4.3 1.7 0 2.4-.6 2.4-1.9 0-2.5-1.9-3.1-10.5-3.1-4.1 0-7.7-.5-8-1-.9-1.4-6.2-1.3-7.1.2-.5.8-1 .7-1.8-.4-.6-.8-2.4-1.9-4.1-2.5-2.5-.9-2.9-1.5-2.7-3.9.2-1.6.9-3.2 1.5-3.6.7-.4-4.6-.8-11.8-.8-19.5 0-55.1-1.7-75.5-3.6-9.8-.9-10-1.3-2.4-4.9 7-3.2 17.4-10.7 17.4-12.5 0-.6-3.1-1-6.9-1-3.8 0-8-.4-9.3-.9-1.4-.5-3.9-.4-6.3.3zm181.3 10.3c-.4.9-6.2 3.9-9.5 4.8-2.4.7-3.2 2.5-1 2.5.7 0 2.3-.7 3.5-1.6 1.2-.8 2.2-1 2.2-.5 0 .6.7 1.1 1.5 1.1s1.5.6 1.5 1.4c0 1.9 8.7 3.8 11.1 2.5 2.5-1.3 3.9-1.1 3.9.5 0 .8 1.5 1.7 3.4 2 1.9.4 4.5 1.5 5.7 2.5 2.9 2.3 5.9 1.6 5.9-1.5 0-1.2.5-2.6 1-2.9.6-.3 1-1.7 1-3.1 0-1.3-.4-2.4-1-2.4-.5 0-1-.6-1-1.3 0-.8-1.3-1.4-3.2-1.5-1.8-.1-5.6-.4-8.4-.8-2.8-.3-6.8-.1-8.9.5-3.4.9-4 .8-5.6-1-.9-1.1-1.9-1.6-2.1-1.2zM157 620.6c-2.1.7-9.1 1.2-17.5 1.2-7.7 0-18.5.5-24 1.1-15.3 1.7-54.7 3.1-56.7 2-.9-.5-4.3-.9-7.6-.9-6.7 0-7.9 1.2-5.6 5.1.7 1.3 1.7 3.2 2 4.1.3 1 1.4 1.8 2.3 1.8 4.2 0 11.3 3.3 12.2 5.7 1.2 3.1 1.2 2.9-.7 4.7-2.3 2.3-4.1 2-5.8-1.2l-1.5-2.7-.1 3.9c0 3.7-2 15.6-2.7 16.6-.2.2-1.9.3-3.9.2-1.9-.2-4 0-4.6.4-.6.4-2.3.9-3.7 1-9.4 1.2-10.6 1.8-10.9 5.2-.2 2.4.1 3.2 1.2 3.2 1.3 0 1.6 1.2 1.6 5.2 0 8.3.1 8.3 14.1 8 13.5-.4 15.9.5 15.9 5.9 0 4.9 1.7 7.9 4.4 7.9 1.4 0 2.8.4 3.1 1 .3.5 2.4 1 4.5 1 3.2 0 3.9-.4 4.2-2.3.2-1.7 1.1-2.3 4.3-2.7l4-.5-2.3-2.1c-2-1.9-7.2-10.9-7.2-12.7 0-.4 1.3-.7 2.9-.7 5.5 0 5.3-3.9-.4-8-3.8-2.7-3.8-3.3-1.2-12.9 1.3-4.7 8.2-12.5 12.1-13.7 1.2-.3 3-1.4 4.1-2.4 1.1-1 3.4-2 5-2.3 4-.6 9.8-2.9 11-4.3 1.2-1.4 7.8-2.6 12.5-2.4 4.8.3 4.4.3 15.1-.9 11.5-1.3 18.4-3 26.1-6.6 6.8-3.1 8-4.5 4.1-4.5-1.6 0-3.7-.6-4.8-1.3-1.6-1.1-2.7-1.1-5.5-.1zm592.5-.6c-6 .4-18.1.8-26.7.9l-15.8.1v5.5c0 4.2-.5 6-2.1 7.6-2.7 2.7-1.8 5.2 1.5 4.3 2-.5 2.7 0 4.1 2.9 1 2.1 3 4.2 4.9 5.1 2.9 1.3 3.2 1.9 2.8 4.6-.2 1.8.3 4.8 1.3 7 1.4 3.1 1.5 4.3.6 5.4-.6.7-1.1 2.7-1 4.2.3 5.6-2.3 19.9-4.2 23-2.6 4.3-2.5 8.4.1 8.4 1.1 0 2 .4 2 1s2.7 1 6 1c4.4 0 5.8-.3 5.4-1.3-.3-.8 1.1-1.7 4-2.5 2.4-.8 6.6-3 9.3-5.1l5-3.7 7.4.7c8.5.8 12.9.2 14.5-1.9.7-1 1.1-6.3 1-14.1l-.1-12.6-2.5-.3c-1.4-.2-3.5-.8-4.7-1.4-1.7-.8-2.6-.8-3.8.2-1 .8-1.5.9-1.5.1 0-.6-1.4-1.1-3.1-1.1-3.8 0-10.9-5.3-10.9-8.1 0-3.2 3-6.9 5.6-6.9 1.7 0 2.4-.6 2.4-1.9 0-1.1-.4-2.3-1-2.6-1.6-1-1.2-3.2 1.3-6 2-2.4 2.9-2.6 9.5-2.6 8.3 0 8.9-.6 7.5-6.6-1-4.4-1.1-4.4-18.8-3.3z"
       id="path273885" />
    <path
       d="M306.9 628.4c-1.4 1.4-85 2.5-97.4 1.3-3.8-.3-6.4-.4-5.7-.1 3 1.4-.2 3.2-6.8 3.9-8.2.9-19.3 3.5-20.9 4.9-1 .9-3.5 1.6-5.9 1.6-2.3 0-4.2.4-4.2.9s-2.2.9-4.9.9c-2.6 0-5.7.5-6.9 1.1-1.1.6-4.3 1.1-7.1 1.1s-5.1.4-5.1.8c0 1.2 4.6 3.2 7.3 3.2 1.2 0 3.3 1.2 4.6 2.6 1.8 1.9 3.3 2.5 5.7 2.2 2.6-.2 4.2.5 7 3 4.3 3.8 7.1 4.2 7.6.9.4-3.2 5.2-3.1 5.6.1.2 1.3-.2 2.9-.8 3.7-.6.8-.9 1.9-.5 2.5 1 1.6 8.1 1.2 9.5-.5.7-.8 2.5-1.5 4.1-1.5 3.7 0 11.9-2.2 11.9-3.2 0-.4 1-1.2 2.1-1.9 1.6-.8 2.7-.8 4.4.1 2.8 1.5 8.8.6 10.5-1.5.8-1 3.2-1.5 7.1-1.5 3.3 0 5.9-.4 5.9-.9 0-.9 14.7-.7 15.7.3 1 .9-7.9 4.6-11.4 4.6-2.2 0-3.6.6-4.3 2-.7 1.4-2.1 2-4.4 2-1.9 0-3.9.6-4.5 1.4-.6.7-2.5 1.6-4.2 2-5 1-17.3 7.3-18.7 9.5-.9 1.5-1.9 2-3.5 1.6-1.4-.4-4.4.5-8.2 2.4-3.3 1.7-6.6 3.1-7.4 3.1-.7 0-3.7-2.4-6.5-5.3-4.6-4.7-12.2-9.3-18.3-11.2-1.3-.3-2.3-1-2.3-1.5 0-.4-2.6-2.1-5.7-3.7-3.2-1.6-6.8-3.6-8.1-4.4-2-1.2-2.4-1.2-3.3.1-.5.8-.9 3.5-.8 6 .1 2.5-.3 5.7-.9 7.2-1 2.3-1.5 2.6-3.4 1.9-1.6-.6-2.6-2.1-3.4-5.3-1.5-5.9-3.1-8.8-5-8.8-2.5 0-3.4 4.4-2.4 12.8.5 4.4.6 8.8.4 9.9-.3 1.1.4 4.3 1.6 7.2 2.5 5.7 2.1 11.4-.7 12.5-2.8 1.1-4.7-2-4.9-7.7-.1-3.3-1.8-10-4.6-18.2-3.8-11.1-4.7-13-6.7-13.3-4.9-.7-16.3 16.3-19.7 29.4-1.3 5.1-1.3 5.9.1 7.4.9 1 3.4 2 5.5 2.4 3.7.6 4 .9 4 3.9 0 1.7.3 4.9.6 7 .6 3.2 1 3.7 2.7 3.1 1.6-.5 1.9-.3 1.4 1.1-1.1 2.7.4 6.6 2.9 7.5 1.3.5 2.4 1.6 2.4 2.5 0 .8 1 1.7 2.3 2 1.2.4 2.7 1.6 3.2 2.8 1.6 3.5 10.1 5.6 23.1 5.6 10.3.1 11.3-.1 12.6-2 1.6-2.5 11-4 12.2-2 .9 1.4 8.3 1.5 9.1.1.3-.6 2.6-1 5-1s4.6-.4 4.9-.8c.3-.5 3-.7 6-.4 5.5.4 5.5.4 6.9-3.1.9-1.9 2.3-3.9 3.2-4.5 1.3-.6 1.6-1.7 1.3-3.6-.4-2 .1-3.1 1.8-4.5 1.3-1 2.4-2.6 2.4-3.5 0-.9 1.2-2.1 2.7-2.7 2.2-.8 3-.7 4 .7s1.5 1.5 2.8.4c1.8-1.5 2.9-.7 3 2.3 0 1.5.9 2.4 3.1 3 2.9.8 3.5.6 7.4-3.3 4.5-4.5 19-14.3 23-15.5 1.4-.4 6.8-2.4 12-4.5 7.5-2.9 12.3-4.1 23-5.4 15.6-1.9 17.8-2 20.6-1.1 1.5.5 2.3 0 3.2-1.9.8-1.8 1.9-2.6 3.7-2.6 1.3 0 4.8-.9 7.6-2 2.9-1 5.6-1.7 6.1-1.4 1.3.8 4.8-.6 4.8-1.9 0-1.6 11.8-13.1 15.5-15.1 1.7-.8 3.9-2.2 4.9-3.1 1.9-1.4 1.9-1.5.1-3.5-2.6-2.9-10.1-1.9-13.1 1.8-1.8 2.2-3 2.6-8 2.8-3.2.1-7.7.8-9.9 1.6s-8.5 2.5-14 3.7c-11.2 2.6-21.5 5.6-38.6 11.3-6.3 2.1-14.2 4.3-17.4 4.9-3.3.6-7.5 1.9-9.5 2.9-5.5 2.8-10.3 3.6-25 4.2-5.2.3-5.5.2-5.8-2.3-.2-1.4.4-3.1 1.2-3.9.9-.7 1.6-1.8 1.6-2.4 0-1.3 11.3-5.6 14.7-5.6 1.2 0 3.5-.5 5-1.1 6.6-2.7 10-4.2 12.8-5.6 1.7-.9 4.8-2.5 7-3.6s5.2-2.8 6.6-3.8c1.4-1 4.8-2.3 7.5-3 2.7-.6 5.8-1.7 6.9-2.4 1.1-.7 5.4-2.4 9.6-3.8 4.2-1.4 10-3.7 12.8-5.1 2.8-1.5 7.1-2.9 9.6-3.2 2.4-.4 5.7-1.5 7.2-2.5 6.6-4.4 9.9-5.9 13-6 2.5 0 2.6-.1.8-.9-2.1-.9-16.8-1.3-17.6-.6zM619.3 649c0 3.7.2 4 2.7 4 1.5 0 3.3-.6 3.9-1.4.7-.8 2.3-1.7 3.7-2 1.7-.5 2.4-1.2 2.2-2.4-.4-2.1-5.3-2.8-7.4-1.1-1.1.9-1.8.9-2.6.1-2-2-2.5-1.4-2.5 2.8zM422 657.1c-1.9.6-9.8 1.4-17.5 1.9-20.3 1.3-22.5 1.7-22.5 4.4 0 2.4-3.6 6-6.1 6.2-2.6.2-7.8 2.8-8.4 4.1-.6 1.8.5 4.5 1.8 4 .5-.1 2 .7 3.3 2 1.3 1.3 3 2.3 3.8 2.3.8 0 2.3 1.6 3.2 3.5 1.2 2.6 2.3 3.5 4.1 3.5 1.6 0 2.7.7 3 2 .3 1.1 1.1 2 1.9 2 .7 0 1.7.6 2.1 1.2.9 1.4 3.4 3.2 7.3 5 1.4.7 3.6 2 4.9 3 1.3 1 3.6 1.8 5.1 1.8 2.9 0 4-1.5 4-5.4 0-2.1 2.7-5.6 4.3-5.6.4 0 .7 1.8.7 3.9 0 2.7-.8 4.9-2.5 6.9-1.4 1.7-2.5 3.5-2.5 4.1 0 .6-.6.8-1.4.5-.8-.3-1.7 0-2.1.6-.3.6-.3.9.2.8 1.1-.4 1.3.5 1.3 5.1 0 3-.4 4-2 4.4-3.3.9-2.3 3.2 2.5 5.5 2.5 1.2 4.7 2.2 4.9 2.2 1 0 3.6-7.2 3.6-10.1 0-6.9 8.1-14.2 11.8-10.5 1.9 1.9 2.5 14.2.9 21.5-1 5.1-.9 5.5 1.2 7.2 2.1 1.7 2.3 2.7 2.5 15.6.2 11.5.5 13.9 1.8 14.1.9.2 2.5-.8 3.6-2.2 1.1-1.5 2.5-2.6 3.1-2.6.5 0 2.6-.8 4.6-1.7 2.8-1.4 3.6-2.3 3.4-4.3-.2-4.7 0-4.9 3.8-4.7 3.2.2 3.9-.2 5.1-2.7.8-1.6 2.3-3.1 3.3-3.3 1-.3 1.6-.9 1.4-1.4-.3-.4.1-1.1.8-1.6 1.2-.7 3.4-6.9 4-11.4.2-1 .7-2.3 1.3-3 .6-.8.9-3.5.8-6.1-.2-3.1.2-5 1.2-5.8 1.7-1.5 1.9-12.2.2-17.1-1.4-4.3-8.8-13.9-10.7-13.9-1 0-1.1-.3-.2-1.4.9-1 .8-1.6-.4-2.6-1.2-1-2.1-.8-5 1-1.9 1.2-3.5 2.6-3.5 3.1 0 .6-.5.7-1 .4-.6-.4-2.8.8-5 2.5l-3.9 3.1-2.5-4.4c-3-5.1-3.5-12.1-1.1-16.7.8-1.6 1.2-3.6.9-4.5-.7-1.8-5.5-4.5-8.1-4.5-1 0-2.7-.7-3.7-1.5-2.2-1.7-2.6-1.7-7.6-.4zm-26.1 21.3c.6.4 1.1 1.6 1.1 2.7 0 2.6 5.8 5.1 9.9 4.3 2.8-.6 3.1-.4 3.1 2 0 2.7-1.6 3.3-4.8 1.7-.9-.5-3.7-1.7-6.2-2.7-2.5-1-5.4-2.6-6.6-3.6-1.1-1-4-2.2-6.4-2.6-2.4-.4-4.5-1.3-4.7-1.9-.3-.9 1.4-1.2 6.5-.9 3.9.2 7.5.7 8.1 1zm91.1-15.3c0 .6.9 2.4 2 3.9 1.1 1.6 2.3 4.9 2.6 7.4.6 4 1 4.6 3 4.6 1.2 0 2.6-.5 2.9-1 1.1-1.8 14.6-1.1 19.4 1 2.4 1.1 5.2 2 6.3 2 1.1 0 3.5.7 5.4 1.6 1.9.9 3.7 1.4 4 1.1.4-.3 1.8.5 3.2 1.9 1.5 1.3 3.3 2.4 3.9 2.4.7 0 2.1.9 3 2 1 1.1 2.3 2 2.9 2 2.1 0 6.3 2.7 8.4 5.3 1.2 1.5 4.8 4.5 8 6.8 3.5 2.5 6 5 6.2 6.3.6 4.3 9.1 2.7 10.9-2.1 1.4-3.7 5-2.9 8.5 1.7l2.9 4h7.2c3.9 0 7.4-.4 7.7-.8.3-.4 2.1-.6 4-.4 3.9.4 4.7 2.4 2.4 5.4-1.3 1.6-8.8 3.3-8.8 1.9 0-.4-1.8-1.2-4-1.7-3.2-.9-4-.8-4.5.4-.6 1.7 1.2 4.2 3.1 4.2.8 0 2 1.1 2.6 2.5 1.3 2.8 2 3 5 1.4 2.9-1.6 18.5-1.4 20.4.2 2.4 2 16.1 3.9 27.9 3.9 13.8-.1 16.9-.6 19.8-3.6 1.2-1.3 2.8-2.4 3.5-2.4 2.4 0 7.2-4.1 7.2-6 0-1.1.9-2.4 1.9-2.9 2-1.1 3.3-7.2 3.3-14.9 0-4.4 1.2-6.2 3.7-5.5 2.4.6 3.5-1.1 2.7-4.3-.4-1.5-1.4-2.4-2.6-2.4-2.3 0-3.5-1.8-3.2-4.7.2-1.1-.2-2.4-.7-2.8-.6-.3-1.1-1.8-1.1-3.3 0-4.1-1.1-7.2-2.5-7.2-1.7 0-2.4 1.9-3.1 8.7-.4 3-1.3 5.7-1.9 6-.9.3-1.2 2.2-.9 5.8.2 4.3-.1 5.7-1.7 7.1-1.1.9-2.2 3.5-2.5 5.6-.4 2.1-1.1 3.8-1.5 3.8-.5 0-1.5 1.2-2.1 2.6-.7 1.4-2.5 3.2-4.1 4-2.6 1.4-3.1 1.4-5.4-.1l-2.5-1.7.5-12.1c.4-10.8 1.9-18.3 4-20.3.4-.4.7-2 .7-3.6 0-3.4-2.3-3.8-5.4-.9-1.2 1.1-3.8 2.2-5.8 2.6-4.6.9-5 .1-5.2-8.8l-.1-6.2-3.2-.3c-2.4-.2-3.3.1-3.3 1.2 0 .9-1.2 2.3-2.7 3.3-3.2 1.9-9.3 7.8-9.3 8.9 0 1-3.3 3.3-4.8 3.4-.7 0-2.2.9-3.4 2-1.2 1.1-3.2 2-4.5 2-1.3 0-3.8.7-5.5 1.6-4.3 2.2-12.5 1-15.1-2.2-1-1.3-2.5-2.4-3.3-2.4-.8 0-1.7-.7-2-1.5-.4-1-2-1.5-4.6-1.5-3.8 0-3.9.1-3.6 3 .2 2.4-.4 3.4-3.1 5.4-3.7 2.7-5.1 2.6-5.1-.4 0-3.1-3.9-5-10.2-5-4.7 0-5.9-.4-6.8-2-.8-1.5-2.1-2-5.5-2-4.5 0-4.5 0-4.5 3.4 0 1.9-.4 3.8-1 4.1-.5.3-1 .2-1-.4 0-.6-1.9-1.9-4.2-3-2.4-1.1-3.5-2-2.5-2.1.9 0 1.7-.6 1.7-1.4 0-1-1.6-1.7-4.7-2.1-2.7-.3-6.6-1.3-8.8-2.1-2.3-.8-5.2-1.4-6.6-1.4-1.4 0-4.4-.9-6.8-2.1-3.4-1.6-4.5-1.8-5.7-.8-1.2 1-2 .8-4.3-.9-1.6-1.2-4.2-2.4-5.7-2.8-1.6-.4-3.8-1.3-4.9-2-2.3-1.7-6.5-1.8-6.5-.3z"
       id="path273887" />
    <path
       d="M364 701c0 2.4-6.9 6-11.7 6h-3.4l.6 5.2c.8 6.9 2.6 13.1 4.1 14 .7.5 1 1.6.7 2.7-.7 2.7 6 15.3 10.2 18.9 1.9 1.8 4.6 3.2 5.9 3.2 1.2 0 3.3 1.2 4.7 2.6 1.3 1.4 5.5 4.2 9.3 6.3 3.8 2 7.8 4.2 9 4.8 4.6 2.8 9.7.8 6.5-2.4-.7-.7-.8-1.7-.3-2.5 1.8-2.7 3.4-8.4 3.4-11.9 0-2 .7-5.8 1.5-8.5 1.7-5.8 1.9-9.4.4-9.4-.6 0-.8-.8-.4-1.9.5-1.5-.1-2.2-3-3.1-4.4-1.5-4.4-2.5 0-4.1 3.4-1.3 4.7-2.9 2.3-2.9-.6 0-2.1-.8-3.2-1.8-1.2-1.1-4.8-2.9-8.1-4.2-3.3-1.3-6.4-2.7-7-3.2-.5-.4-2.3-.8-4-.8-1.9 0-3.9-.8-5-2-1-1.1-2.3-2-2.8-2-.6 0-2.5-1.1-4.3-2.5-3.9-3-5.4-3.2-5.4-.5z"
       id="path273889" />
  </g>
  <g
     fill="#936"
     stroke="#936"
     stroke-width="4.8"
     id="g273897">
    <path
       d="M343.6 444.8c-.3.3-14 2-20.6 2.6l-4.5.4-.3 5.1c-.2 3.6.1 5.6 1.2 6.7.9.8 1.6 2.5 1.6 3.6 0 1.4.5 1.8 1.6 1.4.9-.4 3.7-1.1 6.3-1.7 2.5-.6 5.3-1.4 6.1-1.8.8-.4 3.9-.9 6.8-1 3-.1 6.3-.6 7.6-1.1 1.2-.4 3.3-.6 4.7-.4 3.8.7 4.7-.6 5.4-7.9l.7-6.7-8.2.2c-4.5.2-8.3.4-8.4.6zm54.6 1.1c-1.2.7-1.9 2.8-2.7 8.5-.2 1.5-1 3.4-1.6 4.2-.9 1.2-.5 1.4 2.2 1.4 1.9 0 5 .4 6.9 1 1.9.5 5.1 1.1 7.1 1.4 3.1.4 3.8.1 4.8-2 .6-1.4 1.1-3.1 1.1-3.7 0-.7.8-2.9 1.9-4.9 2.2-4.5 1.7-4.9-7.9-5.4-3.6-.2-7.4-.6-8.5-.9-1.1-.2-2.6-.1-3.3.4zm31.1 6.3c.4 1.4.9 5.8 1.2 9.9.4 4 1 7.8 1.4 8.4.4.5.8 2.1.9 3.4.1 2.9.3 3 3.5 3.3 2.2.2 2.7.7 2.7 3.1 0 1.9-.4 2.6-1.2 2.1-.7-.5-.8-.3-.3.6.4.7.2 1.6-.5 2-.9.6-.9 1.3-.1 2.8.6 1.1 1.1 3 1.1 4.1 0 1.2.4 2.1.8 2.1 1 0 4.5 6 3.5 6-.4 0 0 .5 1 1.1.9.5 1.7 1.5 1.7 2.2.1 3.6 1.6 3.8 8.1 1.4 28-10.5 36.4-23.1 23.8-35.5-4.2-4.2-17.7-12.1-21.7-12.8-.8-.1-2.1-.6-3-1-.9-.4-2.1-.8-2.7-.9-.5-.2-3.7-1-7-2-3.3-.9-7.7-1.9-9.9-2.2-3.7-.5-3.8-.4-3.3 1.9zm-160.9 13.4c-6.6 5.1-7.2 5.8-9 10-2.4 5.6-1.1 9.8 4.5 15.4 4.6 4.6 16.7 11.8 17.8 10.6.3-.3-.1-2-1-3.8-.9-1.8-1.7-4.4-1.9-5.8-.2-1.4-.7-3.1-1.1-3.8-.5-.6-.5-1.2-.1-1.2.3 0 .1-.7-.6-1.4-.6-.8-1.6-6.3-2.2-12.3-.5-5.9-1.1-10.9-1.2-11.1-.2-.1-2.5 1.4-5.2 3.4zm53.6 4.6c0 .3.8 2 1.8 3.7 2.3 4.2 9.9 6.4 28.5 8.5l4.7.6v-12.9l-17.5-.3c-9.6-.2-17.5 0-17.5.4zm69.5-.1c-1.1 1.6-1.8 5.3-1.9 9.4-.1 4.4-1 4.1 10.7 3.7 5.7-.2 8.8-3 9.2-8 .2-2.7-.1-3.2-1.9-3.2-3.6-.1-10-1.1-12.8-2-1.7-.5-3-.5-3.3.1z"
       id="path273893" />
    <path
       d="M482 471.3c0 .2.7 2.1 1.5 4 .8 2 1.5 5.9 1.5 8.7 0 3.7.4 5 1.5 5 .8 0 3 .9 4.9 1.9 1.9 1.1 3.7 1.7 4 1.4.3-.4.6-.1.6.5 0 .7.3 1.2.8 1.2.8-.1 4.5-7.7 4.9-10.4.2-1.1.8-2.5 1.4-3.2 1.9-2.3 1.9-5.4 0-5.4-1 0-2.1-.3-2.4-.6-.4-.4-1.9-.8-3.4-1-4.2-.5-9.4-1.3-12.5-2-1.6-.3-2.8-.4-2.8-.1zm2.8 29.6c-.3 3.5-.2 3.8 1.7 3.1 1.1-.4 2.6-.5 3.4-.2.8.3 1.1 0 .7-.7-.4-.6-.2-.9.7-.5 1.5.5 3-.9 4-3.9.6-1.5 0-1.7-4.7-1.7h-5.4l-.4 3.9zm-150.5-1.1c.6.8 1.2 1.9 1.3 2.6.1.6 1.5 3.6 3.1 6.6 3.3 6.1 5 6.8 15.9 6.9l5.1.1-1.2-6.6c-.7-3.6-1.5-6.8-1.9-7.1-.3-.3-5.7-1.3-12-2.2-9.4-1.4-11.3-1.4-10.3-.3zm213.8-.6c-.1 2-5.1 12.2-6.3 12.6-1.1.5-1 3.9.1 4.6.5.3 1.4-.1 2.1-.9.9-1.1.9-1.5.1-1.5s-.8-.6.1-2c.7-1.1 2.1-2 3-2 2.2 0 3.2-5.3 1.9-9.5-.5-1.7-1-2.2-1-1.3zm-146.3.3c-.2.2-3.3.7-6.9 1-9.3.9-8.9.5-8.9 8.6v7.2l6.1-.7c3.4-.3 7.2-.6 8.4-.6 2.1 0 2.3-.6 3-6.7.4-3.6.9-7.2 1.2-8 .5-1.2-1.8-1.9-2.9-.8zm26.7 32.8c-4.9 1-9.1 1.9-9.1 2-.1.1-.4 1.2-.8 2.3-.8 2.8 1.3 3.4 12.2 3.4h8.2v-3.8c0-5.8-.5-6-10.5-3.9zm-59.9 26.5c5.7 8.2 7.2 9.8 8 8.9.4-.3-.7-2.3-2.3-4.4-1.6-2.1-3.8-5.2-4.8-7-1-1.7-2.7-3.4-3.7-3.6-1.4-.4-.6 1.2 2.8 6.1zm2.4-4c0 .5.7 1.5 1.5 2.2.8.7 1.5 1.8 1.5 2.4 0 .6.9 2.2 2 3.6 1.8 2.3 2 2.4 2 .4 0-1.1-.5-2.5-1.1-3.1-.6-.6-1.6-2.1-2.3-3.4-1.1-2.3-3.6-3.8-3.6-2.1zm19.9 3.8c-.1.5-.1 1.3 0 1.7.1.4.4 2.4.7 4.5.3 2 .7 3.8.7 3.8.9.7 12.5 1.2 13.5.6.8-.6 1-2.2.6-5.5-.6-3.9-1-4.7-2.8-4.7-1.1 0-4.5-.3-7.3-.6-2.9-.4-5.4-.3-5.4.2zm23.1 6v4.9l10.1-.6c6.4-.4 10.4-1.1 10.9-1.8.4-.7 1.1-1.2 1.5-1.2.5.1.9-1 1.1-2.4.3-2.4 0-2.5-4.9-2.5-2.9 0-8.2-.3-11.9-.7l-6.8-.6v4.9zm15.9 24.8c-.2.3-7.8.7-16.8 1-9.1.4-16.6.8-16.8 1-.6.5 15.8 1.6 25.7 1.6 8.9 0 9.6-.1 9.7-2 .2-1.8-.7-2.6-1.8-1.6zm-90.4 17.2c-2.2.8-4.6 1.4-5.5 1.3-2.6-.2-6.4.1-5.9.5.2.2 5.1 1.4 10.8 2.5 13.1 2.7 29.9 4.8 46.1 5.6 11 .5 13.2.4 18-1.4l5.5-2h-6c-8.8-.2-29.9-2.8-41.7-5.2-13.9-2.9-16.6-3.1-21.3-1.3zm88 7.4c-6 .3-10.8.7-10.5.8 2.2 1.1 12.2 1 20.5-.2 10.5-1.5 8.2-1.6-10-.6z"
       id="path273895" />
  </g>
  <path
     d="M269 463.7c-11.9 7.8-15 16.8-9 25 1.7 2.2 4.2 4.8 5.8 5.8 2.5 1.5 2.5 1.5-.4-1.2-11-10-9.5-19.8 4.6-29.5 1.4-.9 2.3-1.7 2-1.7-.3-.1-1.7.6-3 1.6zm208.1 4.9c2 2.1 4.2 4.9 4.8 6.1 1.9 3.7 1.3 8.7-1.5 12.9-1.5 2.1-1.9 3.2-1 2.4 4.5-3.7 6-12 3-16.8-.9-1.5-3.3-4-5.3-5.6l-3.6-3 3.6 4z"
     stroke-width="4.8"
     fill="#969"
     stroke="#969"
     id="path273899" />
  <path
     d="M361.6 444.9c-.4.6-.5 1.1-.3 1.1s-.1 2.8-.8 6.2l-1.1 6.3 16.6.1 16.7.1 2.1-6.5c1.2-3.6 1.9-6.8 1.6-7.1-1.1-1.2-34.2-1.3-34.8-.2zm-48.1 3.8c-8.3 1.6-24.3 6.2-30.5 8.8l-7.5 3.1.3 9.5c.3 8.5 3.2 21.9 6.1 28.4.5 1.1 1.2 2.7 1.4 3.6.9 2.8 20.9 8.3 41.6 11.3 14.1 2.1 16.4 2.1 15.2-.2-.5-.9-1.2-2.4-1.6-3.2-.3-.8-1.8-3.7-3.3-6.4-2.7-4.6-3.2-5-11.3-7.8-4.6-1.6-9-3-9.6-3-.7-.1-1.3-.5-1.3-1 0-.4-.5-.8-1-.8-1.2 0-2.4-.9-7.1-5.2-3.4-3.2-4-8.1-1.1-9.7.9-.6 1.3-1.1.9-1.1-1.5 0 2-2.8 3.9-3.1 1-.1 3.7.5 5.8 1.4 4.8 2.1 8.6 3.1 8.6 2.4 0-1.5-2.6-6.3-3.8-7-.9-.6-1-1.2-.3-2.1.8-.9.5-3.7-1-9.7-1.1-4.6-2.1-8.4-2.2-8.5-.1 0-1.1.1-2.2.3zm105.2 3.3c-.9 2.2-1.7 4.6-1.7 5.3 0 .7-.7 2.2-1.5 3.3-2.1 2.8-1.9 3.1 2.3 3.9 2 .4 4.2 1 4.7 1.5.6.4 2.1 1.1 3.5 1.5 1.4.4 3.1 1.5 3.8 2.4 1.2 1.4 1.3 1.2.8-1.4-.3-1.7-1-6.6-1.6-10.9-1-8.3-1.8-9.6-6-9.6-2 0-2.9.8-4.3 4zm-31.2 16.6c-.5.1-7.2.4-14.7.7-7.6.2-14.1.6-14.4 1-.7.7-.7 11.8.1 12.5.2.2 6.9.6 14.8.8l14.4.5 1.1-7.3c1.1-7.1.8-8.9-1.3-8.2zm23.1 5.5c-1.1 3.5-1.2 6.8-.2 7.2 1.1.4 10.6-1 13.6-2.1.8-.3 2.6-.7 4-.9 3.2-.5 4.1-1.5 3.1-3.1-1.2-2-19.9-3-20.5-1.1zm94.8 4.4c-.3 1.9-1 3.3-1.4 3-.5-.3-1.2.9-1.5 2.7-.4 1.8-1.4 4.6-2.2 6.2-1.2 2.3-1.3 3.4-.4 4.7 1 1.8-.3 3.9-1.6 2.5-.6-.6-3.2 2.3-3.3 3.7 0 .7 3.3.4 7-.8 1.2-.4 2-.2 2 .5 0 .6.5.8 1 .5.6-.4 1 .7 1 2.4s-.5 3.1-1.1 3.1c-.5 0-.7.4-.4 1 .3.5.3 1-.2 1-.4 0-2.1 1.2-3.8 2.8-4.5 4.1-19.3 10.1-25 10.2-1.1 0-4 1.1-6.3 2.5-3.7 2.1-4.7 2.3-6.5 1.3-2.7-1.5-4-1.3-14.3 1.8l-8.2 2.5.1 5.1.1 5.1 13.5-.7c19.1-.9 40.8-3.6 49.3-6.2 1-.3 3-.8 4.5-1 5.9-1.1 21.1-6.7 27-10 6.1-3.4 8.5-5.4 6.4-5.4-1.6 0-1.3-4.1.3-5.9.8-.9 2.5-4.3 3.9-7.5 2.5-6.1 2.3-8.8-1-10.9-.7-.4-1.9-1.4-2.7-2.3-3.9-3.8-17.1-9.6-34.3-14.9-.7-.3-1.5 1-1.9 3zm-76.3 12.1c-4.9 3-13.3 6.3-20.2 7.8-2.4.5-2.8 1.3-3.8 6.9-1.6 9.5-1.6 10 1.7 9.3 1.5-.3 5.6-.8 9.2-1.1 3.6-.4 9.2-1.3 12.5-2.2 3.3-.8 6.7-1.6 7.5-1.8.8-.1 3.2-.5 5.3-.9 3.6-.7 4.6-2.2 2.8-4.2-.5-.5-2.8-4.6-5.1-9.2-2.2-4.5-4.2-8.2-4.3-8.1-.1.1-2.6 1.6-5.6 3.5zm-57 11.2-13.4.3.7 6.1c.3 3.3 1.1 6.7 1.6 7.3 1 1.2 18.2 1.9 22.2.9 1.2-.4 1.8-2.2 2.3-7.5.4-3.9.6-7.1.4-7.2-.2-.1-6.4-.1-13.8.1zm-79.6 29.4c-1 5.1 3.9 14.8 7.4 14.8.6 0 1.1.4 1.1 1 0 2.6 17.8 10.6 32 14.3 11.5 3.1 34.7 7 38.6 6.5 2.5-.3 2.6-.5 1.3-1.8-.9-.8-1.6-1.9-1.7-2.3-.1-.4-1.7-2.7-3.7-5.1-1.9-2.4-3.5-4.7-3.5-5.2s-3.3-1.9-7.3-3.2c-10-3.2-20.7-8.5-25.7-12.7-2.6-2.2-5.2-3.5-7-3.5-1.6 0-5-.4-7.7-1-9.1-1.9-18.8-4-21-4.6-1.9-.5-2.3-.1-2.8 2.8zm122 3.3c-.5.2-3.1.6-5.7 1-2.7.3-4.8 1.1-4.8 1.6 0 .6.4.8.9.5.5-.4 1.1-.2 1.3.2.1.5 2.7 1.2 5.6 1.6 4.2.5 5.2.4 5.2-.8 0-.8.3-2.1.6-3 .6-1.5-.6-1.9-3.1-1.1zM529 546.1c-.8.5-3.1 1.6-5.1 2.4-3.2 1.2-3.7 2-4.3 5.7-.8 5.2-3.4 9.5-7.8 12.9-13.3 10.4-43 19.4-71.5 21.6-4.6.3-8.3.9-8.3 1.2.1 3.1 4.3 3.3 24.5 1.6 5.6-.4 21-2.6 22.8-3.1 1.1-.3 2.9-.7 4-.9 1.2-.1 6.7-1.5 12.2-2.9 9.3-2.5 12.5-3.7 19.9-7.2 1.6-.8 3.5-1.4 4.2-1.4.7 0 1.4-.3 1.6-.8.2-.4 2-1.8 4-3.2 2-1.4 5.1-4.4 6.8-6.5 2.8-3.6 3.1-4.5 2.7-9.3-.3-3.6-1.1-6-2.6-7.6-1.2-1.2-1.8-2.6-1.4-2.9.9-1 .1-.8-1.7.4zm-154 9.3c0 .6 4.1 8.3 6.1 11.3 1.1 1.8 2.3 2.3 5.6 2.3 3.6 0 4.3-.3 4.3-2 0-1.1-.5-2-1.1-2-.7 0-.9-1.1-.6-2.7.8-4.2-.1-5.2-5.1-5.8-2.6-.3-5.7-.8-6.9-1.1-1.3-.2-2.3-.2-2.3 0zm106.5 2.8c-3.3.5-14.3 1.4-24.5 2.1l-18.5 1.2-.3 3.3-.3 3.4 5.8-.7c13.2-1.5 29.6-4.8 39.4-7.9 8-2.6 7.7-2.9-1.6-1.4zm-74.1 6c.8 5.1 1.2 5.8 3.7 5.8 1.6 0 1.9-.7 1.9-5 0-4.9 0-5-3.1-5s-3.2 0-2.5 4.2zm-114.6 5.5c-6.7 6.9-7.5 12.7-2.6 19.3 6.6 8.9 26.1 18.4 37.3 18.1 7.9-.2 17.8-2.6 15-3.6-1.1-.4-3.3-1.2-5-1.7-8.4-3-18.4-8.8-23.2-13.4-4.5-4.4-5.3-5.8-5.8-10-.6-4.5-1.1-5.2-5.8-8.4-2.9-1.9-5.4-3.6-5.7-3.8-.3-.1-2.2 1.5-4.2 3.5zm88.2 20.4c0 1.2 13.2 2.1 14.2 1.1.7-.7-1.5-1.1-6.6-1.4-4.2-.2-7.6 0-7.6.3z"
     stroke-width="4.8"
     fill="#996"
     stroke="#996"
     id="path273901" />
  <path
     d="M436.3 568.8c.3.4-.3 4.4-1.2 8.9-1 4.6-1.5 8.3-1.1 8.3.3 0 1.3-2.9 2-6.5s1.7-6.5 2.2-6.5c1.5 0 .8-3.8-.8-4.4-.8-.3-1.3-.2-1.1.2zm25.2 31.2c1.7.6 5.1 1.4 7.8 1.9 3.7.6 4.7.5 4.7-.5s-1.4-1.4-4.4-1.4c-2.4 0-5.9-.2-7.7-.5l-3.4-.5 3 1zm-170.3 10.1c.7.4 7.2.3 14.3-.1l13-.8-14.3.1c-7.9 0-13.8.3-13 .8z"
     stroke-width="4.8"
     fill="#666"
     stroke="#666"
     id="path273903" />
  <path
     d="M288.2 573.9c-2.5 4.5-2.8 9-.8 13 1.7 3.1 8.3 9.4 11.8 11 2.2 1.1 2.2 1.1-.2-.6-11.9-8.6-14.8-15.8-9.5-23.7 1.3-2 2.1-3.6 1.7-3.6-.5 0-1.8 1.7-3 3.9z"
     fill="#9C9"
     stroke="#9C9"
     stroke-width="4.8"
     id="path273905" />
  <path
     d="M257 493.1v8.6l3.8 1.8c2 .9 5.4 2.6 7.4 3.6 2 1.1 3.9 1.9 4.2 1.9.4 0 .6-2 .6-4.5 0-4.1-.3-4.6-4.2-7.4-4.6-3.1-8.9-7.4-10.6-10.6-.9-1.6-1.1-.2-1.2 6.6zm133.3 23.6-4.2.4.6 9.7c.3 5.3.7 9.9.9 10 .1.2 3.7.1 7.8-.3l7.6-.7V516l-4.2.2c-2.4.1-6.2.3-8.5.5zm36.7 53c-2.5.2-6.4.5-8.7.9l-4.3.5v8.9c0 10.2.5 9.7-10 10.3-3 .2 1.5.2 10 0 18.4-.5 19-.9 20.9-11.7.6-3.6 1.4-7.2 1.7-7.9.5-1.4-1.6-1.6-9.6-1zm4 33.8v9.4l-5.7.4c-3.2.3 1.4.2 10.2-.1 8.8-.3 17.9-.5 20.3-.4 2.4.1 4.2-.2 4.2-.8 0-.6.3-.9.8-.7.4.3 3.4-.1 6.7-.7 5.5-1.1 6-1.5 6.3-4 .2-1.6 0-3.2-.5-3.6-.4-.4-3.9-1.1-7.6-1.4-3.7-.3-8.5-1.3-10.5-2.2-2-.8-5.4-1.7-7.4-2-2-.3-5.3-1.1-7.2-1.9-2-.8-4.9-1.5-6.6-1.5h-3v9.5zM292.8 613c2.8 2.6 7.7 6 8.7 6 .3 0 .5-2 .5-4.4v-4.3l-6 .1-6 .1 2.8 2.5zm144.7 2.5c-4.4.7-7.8 1.3-7.5 1.4.3.2 2.4.5 4.8.7 2.3.3 6.1 1.1 8.5 1.7 5.9 1.8 7.7 1.2 7.7-2.4 0-3.4-.5-3.4-13.5-1.4z"
     stroke-width="4.8"
     fill="#636"
     stroke="#636"
     id="path273907" />
  <path
     d="M259.8 505.7c.6.3 1.2 1.4 1.2 2.5s1.5 3.4 3.3 5c3.2 2.9 20.2 11.8 22.5 11.8.7 0 3.9 1.1 7.2 2.5 3.3 1.4 6.7 2.5 7.7 2.4 1 0 .3-.5-1.4-1l-3.3-1-.2-9.7-.2-9.7-.6 9.5-.6 9.5-.2-9.6-.2-9.6-3.7-1.1c-4.1-1.3-5.1-1-3.1.9.8.7 1.2 2.6 1 4.5-.3 2.5-.9 3.3-3 3.8-1.9.3-3.2-.1-4.3-1.4-.9-1.1-1.9-1.7-2.2-1.3-1 1-5.7-.7-5.7-2 0-1.5-7.9-5.2-12.5-5.9-1.6-.3-2.4-.3-1.7-.1zm146.2 9.1c-1.2.6-1.5 2.8-1.5 11 0 9.6.1 10.2 2 10.1 1.1 0 1.4-.3.8-.6-.9-.3-1.3-3.3-1.3-9.9 0-10.3-.5-9.6 7-10.7 1.5-.3.8-.5-1.5-.5-2.2 0-4.7.2-5.5.6zm-43.7 3c-1.7 1.8-1.7 4.3.1 3.6 1.5-.6 2.7 2.9 2.8 8.5.1 1.7.5 3.1.9 3.1s.9.9 1.1 2c.2 1.2.6 2.1 1.1 2H386l-.1-7.3c-.1-3.9-.4-8.5-.8-10.1l-.6-3h-10.4c-7.4-.1-10.8.3-11.8 1.2zm-31.4 19.6c4.5 3.7 15.1 9.3 23.1 11.9 2.5.9 5.4 1.9 6.5 2.3 1.6.6 1.4.2-.7-1.9-1.6-1.4-2.8-3.2-2.8-4 0-.8-.9-2.4-2-3.7-1.1-1.3-2.1-2.9-2.1-3.7-.3-2.7-.4-3.1-1.1-3.9-.5-.4-.8-.2-.8.6 0 1-2.1 1.1-9.7.5-5.4-.3-10.9-.9-12.3-1.2-2.1-.5-1.8 0 1.9 3.1zm132.6 1.7c-3.3.4-9.5 1-13.7 1.4l-7.8.7v4.7c0 2.6-.5 5.2-1.1 5.8-.6.6-1.3 3-1.4 5.2-.2 4.1-.2 4.1 3.5 4.1 2 0 9-.3 15.6-.6l11.9-.7-.3-9.8c-.3-8.7-.1-9.8 1.5-10.1 4-.8-2.2-1.4-8.2-.7zM294.8 544c.8.9 1.2 4.7 1.2 10.8 0 9.5 0 9.5 3.4 12.7 1.9 1.7 5.9 4.4 9 5.8l5.6 2.7v5.1c0 4.4-.2 5-1.7 4.5-1-.3.4 1.4 3 3.8 7.8 7 24.8 14.7 30.7 13.8l3-.4v-8.3c0-7.1-.3-8.4-1.7-8.9-1-.3-5.1-1.5-9-2.6l-7.3-2.2v-9.4c0-9.2-.1-9.4-2.5-10-1.4-.3-2.5-1-2.5-1.6 0-.5-.4-.7-.9-.4-1.1.7-13.8-4.5-19.9-8-2.3-1.4-5.9-3.9-8-5.7-2-1.7-3.1-2.5-2.4-1.7zm91.2 28.5c0 1.3.9 4.1 2.1 6.1l2 3.7-2-.6c-1.9-.4-2.1-.1-2.1 3.3 0 3.2-.4 3.9-2.2 4.3-1.3.2.4.5 3.7.6 5.1.1 6.2-.2 7.3-2 1.6-2.5-.4-9.5-2.3-7.9-.8.7-1 .1-.7-2 .5-3.4-2-8-4.3-8-.9 0-1.5 1-1.5 2.5zm50 7c-.7 3.6-1.7 6.5-2.1 6.5-.4 0-.9.7-1.3 1.5-.4 1.2.5 1.5 5.2 1.3 3.8-.1 4.6-.3 2.3-.5l-3.4-.4.6-7.5c.4-4.1.5-7.4.4-7.4-.2 0-1 2.9-1.7 6.5zm17.5 12c-.5.2-4.1.7-8 1.1l-7 .7 5 1.8c7.1 2.5 11.5 2.5 11.5-.1 0-1.2.7-2 1.8-2 1.4 0 1.5-.2.2-1-1.6-1-1.9-1.1-3.5-.5zM290 599.9c0 5.4-.4 8.1-1.2 8.4-1.6.7 2.4 1 8.2.7 2.5-.1 4.7-.6 5-1 .3-.5 3.9-1 7.9-1.2l7.4-.3-7.9-3.2c-4.3-1.8-10.3-5.1-13.2-7.3-2.9-2.2-5.5-4-5.7-4-.3 0-.5 3.6-.5 7.9z"
     stroke-width="4.8"
     fill="#696"
     stroke="#696"
     id="path273909" />
  <path
     d="M272.8 504c.4 4.5 1 5.5 3.5 5.1.4 0 .7.3.7.8 0 1.4 8.1 5.3 9.7 4.7 2.9-1.2-3.3-11.8-7.2-12.4-1.1-.2-3-1-4.2-1.8-1.2-.8-2.4-1.4-2.5-1.4-.2 0-.1 2.2 0 5zm81 12.8-5.8.3v4.8c0 3.7.7 5.7 3 8.9 1.7 2.3 3 4.6 3 5.1s.7 1.4 1.5 2.1c.8.7 1.2 1.6.9 2.1-.3.5 0 .9.5.9.6 0 1 .3.9.7-.3 1.1 3.2 6.3 6 9 2.3 2.3 3.8 3 2.8 1.4-.3-.5.1-1.2 1-1.5 1.1-.4 1.5-.2 1.1.8-.6 1.5 2.9 3.4 4 2.2.4-.3.1-.6-.5-.6-.7 0-1.2-.8-1.2-1.8 0-.9-.9-3.5-2-5.7-2.7-5.6-8.3-21.3-8.9-25.5l-.6-3.5-5.7.3zm63.9 24.9c-1.1 4.1-1.9 8.1-2.6 13l-.8 5.3 5.6.1c3.1.1 7.9.3 10.8.4 2.9.1 5.8-.2 6.4-.6.7-.4 1.4-4.4 1.6-9.8l.5-9.1h-8.3c-4.6 0-9.4-.3-10.6-.6-1.5-.4-2.2-.1-2.6 1.3zm-23.8 27.8c-.9 0-.4 5.8.7 8.2.8 1.7 1.7 5.2 2 7.7l.7 4.6h6.8c9.8 0 9.9-.1 9.8-7.9-.1-3.6-.3-5.8-.6-4.9-.8 3.2-2.9 1.9-3.9-2.5l-.9-4.2-7.3-.5c-3.9-.3-7.3-.5-7.3-.5zm6.1 32.8v9.6l-3.7.4c-2.1.2 1.6.5 8.2.7 10.7.3 11.3.4 6 1l-6 .8 6.5-.4c3.6-.2 9.5-.6 13.3-1l6.7-.6V594h-10.9c-5.9 0-12.9-.3-15.5-.6l-4.6-.7v9.6zm-80.5 6.7c-1.1.5-5.5.9-9.7.9l-7.8.1v4.8c0 4.8 0 4.9 4.8 7 8.6 3.8 14.7 5.3 20.3 5l5.4-.3.3-7.6.3-7.6-3.8-1.1c-6.4-1.9-7.7-2.1-9.8-1.2z"
     stroke-width="4.8"
     fill="#639"
     stroke="#639"
     id="path273911" />
  <path
     d="M429.7 511.8c-2.5.5-7.7 11.6-7.7 16.5v4l6.3-.7c12.1-1.4 12.5-1.8 8.6-12-2.4-6.1-4.5-8.5-7.2-7.8zm44.3 94.6c0 1.5-.6 2.8-1.2 3-2.4.6-15.3 3.5-18.5 4.1-2.8.6-3.3 1.1-3.3 3.5 0 3.2-1 2.9 15.3 5.4l8.7 1.3v-6.8c0-7.5-.7-6.8 8.8-8.9 6.9-1.6 5.6-3-3.2-3.7l-6.6-.6v2.7z"
     stroke-width="4.8"
     fill="#633"
     stroke="#633"
     id="path273913" />
  <path
     d="m344.7 521 2.8 5 .3-4.4c.3-4.2.5-4.5 3.5-4.9 1.8-.2.4-.5-3.1-.5l-6.3-.2 2.8 5zm43.6 25.6c.4 5.4.9 10 1.1 10.1.6.6 15.8 2.4 16.3 1.9.3-.3 0-4.8-.7-10l-1.2-9.4-5.2-.6c-2.8-.4-6.5-.9-8.1-1.2l-3.1-.5.9 9.7zm-10.1 25.1c1.4 1.6 3.3 4 4.3 5.5 2.3 3.7 3.2 3.5 3-.7 0-2.1-.9-4.2-2.2-5.5-2.7-2.5-3.4-2.5-2.7-.3.5 1.7.5 1.7-.6 0-.6-.9-1.8-1.7-2.7-1.7-1.3 0-1.1.6.9 2.7zm13.8 21c-1.4.2-4.7 1.3-7.5 2.3-8.7 3.2-23.4 7-32.5 8.4-2 .2-1.8.4.8.5 1.7 0 3.2.5 3.2 1 0 2.3 26.3 7.1 38.5 7.1h5.6l-.3-9.7c-.3-9.5-.3-9.6-2.8-9.8-1.4-.1-3.6 0-5 .2zm-60.7 17.9c1.4.5 1.7 1.8 1.7 7.8v7.2l10.8-1.2c13.9-1.6 16.4-2 18.2-2.7.8-.3 4.3-.7 7.6-.9 3.9-.3 6.7-1 7.8-2 1.7-1.8.9-2-15.4-3.4-4.1-.3-11.8-1.5-17-2.5-10.9-2.2-16.3-3.1-13.7-2.3z"
     stroke-width="4.8"
     fill="#669"
     stroke="#669"
     id="path273915" />
  <path
     d="M450.3 507.2c-2 1-2.1 1.3-.8 3.8.7 1.4 2.1 3.2 2.9 3.9 1.4 1.2 1.6.8 1.6-3.8 0-5.4-.2-5.6-3.7-3.9zm31.2 101.3c-.5.2-2.2.6-3.7.9-2.7.6-2.8.8-2.8 7.6 0 6.7.1 7 2.4 7 1.3 0 3.1.3 3.9.6 1.3.5 1.6-.9 1.9-8 .2-4.7.1-8.6-.2-8.5-.3 0-.9.2-1.5.4z"
     stroke-width="4.8"
     fill="#603"
     stroke="#603"
     id="path273917" />
  <path
     d="M403.1 523.2c.2 11.7 1.7 13.8 1.8 2.5.1-5.8-.3-9.7-.9-9.7-.6 0-1 3-.9 7.2zM474 603c0 .6 1.8 1 4.1 1 2.2 0 6 .5 8.4 1.1 2.3.6 5.1.9 6.1.7 2.7-.6-4.5-2.5-12.3-3.2-3.9-.3-6.3-.2-6.3.4z"
     stroke-width="4.8"
     fill="#663"
     stroke="#663"
     id="path273919" />
  <path
     d="M297 518.5v9.4l3.3.9 3.2.8.3-9.4c.1-5.2.1-9.6 0-9.7-.2-.1-1.8-.5-3.5-.8l-3.3-.7v9.5zm45 2c0 .8.4 1.5.8 1.5 1.2 0 5.2 8.8 5.2 11.5 0 1.6.6 2.5 1.5 2.5 1.9 0 1.9-1.4.2-4.8-.8-1.5-2.4-4.8-3.7-7.5-2.3-4.7-4-6.1-4-3.2zm11 17.9c.5 1.5 1.7 3.4 2.5 4.2.8.9 1.5 2.2 1.5 3 0 1.3 4.6 6.4 5.7 6.4.4 0-2.4-4.5-5.4-8.6-1.3-1.7-2.3-3.6-2.3-4.1 0-.6-.7-1.6-1.5-2.3-1.4-1.1-1.4-1-.5 1.4zm15.1 2c.5 1.6 1.3 3.4 1.9 4 .5.5 1 1.8 1 2.8 0 2.5 2.8 7.8 4.1 7.8.6 0 .5-.9-.3-2.3-2.1-3.7-3.8-9-3.8-11.9 0-2.3.5-2.7 3.3-3.1 1.9-.3 1.2-.4-1.9-.4h-5.2l.9 3.1zm17.4-1.2c.3 1.3 1.2 5.9 2 10.3l1.3 8-.5-9c-.2-5-.6-9.6-.8-10.3-.8-2.2-2.6-1.3-2 1zm18.7 1.8c0 1.4.6 6.1 1.3 10.5l1.3 8v-8.3c-.1-4.5-.4-8.2-.9-8.2-.4 0-1-1-1.2-2.3-.4-2-.4-2-.5.3zm35.8 5c0 3.8.4 5.9 1 5.5.6-.3 1-2.8 1-5.5s-.4-5.2-1-5.5c-.6-.4-1 1.7-1 5.5zm-109 25.4v9.5l3.3.9 3.2.8.3-8.9c.1-5-.1-9.4-.5-9.8-.4-.4-2-1.1-3.5-1.4l-2.8-.7v9.6zm78.5 1.8c.4 1.8 1.1 3.5 1.6 3.6.5.2.6.9.3 1.4-.4.7-.2.8.4.4 1.7-1 1.5-5.5-.2-7.2-2.3-2.2-2.8-1.7-2.1 1.8zM383 584c0 3.8.4 5 1.5 5s1.5-1.2 1.5-4.4c0-3-.5-4.6-1.5-5-1.2-.4-1.5.4-1.5 4.4zm-35.2 1.6c.8.4 1.2 3.2 1.2 8.9 0 7.9-.1 8.4-2.2 8.8-1.3.2.2.3 3.2 0 8.4-.6 23.7-4.3 34.5-8.3 2.8-1 6.1-2.1 7.5-2.3 2-.3 1.8-.5-.8-.6-1.9 0-4.8.5-6.5 1.3-1.8.8-5.7 2-8.7 2.6-3 .7-6.7 1.9-8.2 2.6-1.5.8-4.7 1.4-7.3 1.4H356v-6.4c0-6.1-.1-6.4-2.7-7-5.6-1.4-6.8-1.6-5.5-1zM302 608c0 1.2 9.5 1.2 16 .1 3.7-.7 2.7-.9-5.7-1-6.3-.1-10.3.3-10.3.9z"
     stroke-width="4.8"
     fill="#699"
     stroke="#699"
     id="path273921" />
  <path
     d="m436.8 510.3-2.8 1.2 2.3 3.5 2.2 3.5.3-4.2c.3-3.4.7-4.3 2.5-4.6 1.9-.4 2-.4.2-.5-1.1-.1-3.2.4-4.7 1.1zm-22.8 4.3c-4.1.7-7.6 1.3-7.7 1.3-.2.1-.3 4.4-.3 9.6 0 9.3 0 9.5 2.4 9.5 4.5 0 8.6-1.3 8.6-2.6 0-.8.4-2.2.9-3.2.4-.9 2-4.3 3.5-7.4 1.5-3.2 3.2-6 3.7-6.3 1.7-1.1.9-2.5-1.3-2.4-1.3.1-5.7.7-9.8 1.5zm88.5 19.5c-1.6.5-7.3 1.6-12.5 2.5-5.2.9-11.9 2-14.7 2.6l-5.3.9v19l6.3-.6c9.7-1 17.7-2.4 24-4.2l5.7-1.7v-9.2c0-6.5.4-9.4 1.3-9.7 2.1-.9-1.6-.6-4.8.4zm-211.3 14.2c.2 7.2.7 9.9 2.3 12.2l2 3 .3-8.6c.2-7.4 0-9.2-1.9-12.3-1.1-2-2.3-3.6-2.6-3.6-.3 0-.3 4.2-.1 9.3zM466 564.5c-3 .7-10.3 2.1-16.1 3l-10.7 1.8-1.1 5.5c-.6 3-1.1 7.3-1.1 9.4v3.8h4.3c7.4 0 29.7-3.7 36.7-6.1 1.8-.6 1.3-.7-1.7-.3l-4.3.6v-9c0-6.3.4-9.2 1.3-9.5 2.4-1-1.7-.5-7.3.8zM308.4 577c.7 4.3 3.2 9 4.7 9 .5 0 .9-2.2.9-5 0-4.5-.3-5.1-3.1-6.6l-3.2-1.6.7 4.2zM286 594.8c0 9 1 13.2 3 13.2.6 0 1-3.5 1-8 0-6.2-.4-8.7-2-11.2l-2-3.3v9.3zm192-6c-6.9 1.3-14.9 2.9-17.7 3.4-4.2.8-5.3 1.3-5.3 2.9 0 1.2.7 1.9 1.8 1.9 1 0 2.3.5 2.8 1 .6.6 3.9 1.2 7.4 1.5 3.5.3 6.6.9 7 1.5.3.5 2.5 1.2 4.8 1.5 2.3.3 6 .7 8.2 1l4 .5v-8.4c0-5.8.4-8.6 1.3-8.9 2.4-1-1.9-.4-14.3 2.1z"
     stroke-width="4.8"
     fill="#693"
     stroke="#693"
     id="path273923" />
  <path
     d="M304 519.9v9.9l7.3 1.5c7.8 1.7 19.2 3.3 30 4.2 6.7.7 6.7.7 6.7-1.9 0-2.8-3.9-11.6-5.2-11.6-.4 0-.8-1.1-.8-2.4 0-3.2-1.6-4.2-7-4.5-4.4-.2-21.7-2.8-24.2-3.5-.7-.3-2.5-.7-4-1l-2.8-.6v9.9zm70.3 17.8c-2.8.4-3.3.8-3.3 3.1 0 2.8 1.8 8.4 3.7 11.7.7 1.2 3.1 2.3 7 3.1 3.2.6 6 1 6.2.8.4-.4-1.8-16-2.6-18-.5-1.4-3.8-1.6-11-.7zm32.1 5c.3 2.1.5 6.6.6 10 0 6.3 0 6.3 2.9 6.3 2.7 0 2.9-.3 3.4-4.8.4-2.6.9-6.8 1.3-9.3.6-4.6.6-4.6-2.6-5.3-5.9-1.1-6.2-1-5.6 3.1zm-68.6 30.2.3 9.9 9 2.2 8.9 2.2V600h4.5c2.6 0 5.8-.6 7.3-1.4 1.5-.7 5.4-2 8.7-2.7 3.3-.7 7-1.8 8.3-2.5 2.1-1.1 1.8-1.3-4.1-2.3-3.5-.6-7.5-1.1-8.8-1.2-1.3 0-3.3-.5-4.4-1-1.4-.6.8-.8 6.8-.5l8.7.5V584c0-3.9-.4-5-1.6-5-.8 0-1.3-.4-.9-.9.3-.6-1.2-2.8-3.2-5-3.6-3.9-4.2-4.2-12.3-5.2-4.7-.5-12.7-1.9-17.9-2.9-5.2-1.1-9.5-2-9.5-2-.1 0 0 4.5.2 9.9z"
     stroke-width="4.8"
     fill="#6C9"
     stroke="#6C9"
     id="path273925" />
  <path
     d="M706.7 620.7c-.4.3-.7 3-.7 5.9 0 2.9-.4 5.6-1 5.9-.5.3-1 1.2-1 1.8 0 .7.7.3 1.5-.7.9-1.2 1.5-4.2 1.5-7.3V621l17.3-.3 17.2-.3-17.1-.2c-9.4-.1-17.4.1-17.7.5zm-632.4 4c3.7.2 9.7.2 13.5 0 3.7-.2.6-.3-6.8-.3-7.4 0-10.5.1-6.7.3zm510.7 14c.8.4 2 1.3 2.6 2.1.8 1.1 1.3 1.2 1.8.4.9-1.5 5.8-1.6 7.2-.2.7.7 4.2.9 8.5.7l7.4-.3-7.7-.2c-4.2-.1-8-.7-8.3-1.2-.8-1.4-6.2-1.3-7.1.1-.5.8-1 .6-1.6-.5-.5-.9-1.7-1.6-2.6-1.5-1.4 0-1.4.2-.2.6zm64.3 93c3.1.2 8.3.2 11.5 0 3.1-.2.5-.3-5.8-.3s-8.9.1-5.7.3z"
     stroke-width="4.8"
     fill="#300"
     stroke="#300"
     id="path273927" />
  <path
     d="M368 553.5c0 1.1 7 11.2 8.7 12.7 1.7 1.4-1.7-5.6-4.7-9.8-1.6-2.2-4-3.9-4-2.9z"
     fill="#606"
     stroke="#606"
     stroke-width="4.8"
     id="path273929" />
  <path
     d="M441.1 509.7c-2.4.5-2.4.6-1.8 9.5.3 5 .8 9.2 1 9.5.3.2 1.6.1 3.1-.3 2.6-.6 2.6-.7 2.6-10 0-6.9-.3-9.4-1.2-9.3-.7.1-2.4.4-3.7.6zm67.7 23.5c-2.8 1-2.8 1-2.8 10.4 0 5.2.2 9.4.4 9.4.1 0 1.7-.5 3.5-1.1l3.1-1.1v-9.4c0-5.2-.3-9.4-.7-9.3-.5 0-2 .5-3.5 1.1zm-32.5 29.6-4.3 1.4v18l4.3-.7c2.3-.4 4.3-.8 4.5-1 .1-.1.1-4.5 0-9.6l-.3-9.4-4.2 1.3zm17.5 23.4c-2.7.9-2.8 1.1-2.8 9.3 0 7.8.1 8.3 2.3 8.7 4.4.8 4.7.1 4.7-9.8 0-5.2-.3-9.4-.7-9.3-.5 0-2 .5-3.5 1.1z"
     stroke-width="4.8"
     fill="#690"
     stroke="#690"
     id="path273931" />
  <path
     d="M446 518c0 5.7.4 9 1.1 9 1.6 0 10.9-3.2 10.9-3.7 0-1.2-4.2-5.7-6.2-6.7-1.2-.6-2.6-2.6-3-4.4-1.6-5.9-2.8-3.4-2.8 5.8zm99.9-1.5c-7.1 5.1-13.7 8.6-23.1 12.2l-9.8 3.8v18.4l-5.7 1.7c-3.2.9-9.9 3.1-15 5s-9.7 3.4-10.3 3.4c-.6 0-1 3.6-1 9.6v9.6l2.7-.7c6.7-1.6 18.8-7 24.3-10.6 7.5-5.1 10.2-8.8 10.8-15 .2-2.7.9-4.9 1.5-4.9.5 0 5.1-2 10.2-4.4 9.5-4.5 16.6-9.9 19.1-14.7 1.5-3 2-15.9.5-15.9-.4 0-2.3 1.1-4.2 2.5zm-15.6 52.1c-5.6 5.7-12.1 9.4-24.5 14l-7.8 2.9v9.1c0 8.5-.2 9.2-2.2 10.1-2 .9-1.5 1.1 3.7 1.7 12.5 1.5 11.9 1.6 13-3.2.8-4 1.4-4.6 7.7-7.9 4.1-2.1 8.7-5.6 11.3-8.6l4.5-4.9v-9.4c0-5.2-.1-9.3-.2-9.2-.2 0-2.6 2.5-5.5 5.4z"
     stroke-width="4.8"
     fill="#660"
     stroke="#660"
     id="path273933" />
  <path
     d="M390.7 617.6c-.3.3-2 .7-3.9.9-1.8.2-7.8 1.1-13.3 2-5.5 1-14.7 2.3-20.5 3-9.5 1.1-9.9 1.2-4.4 1.4 3.4 0 8.6-.4 11.5-.9 3-.6 8.6-1.5 12.4-2 3.9-.5 9.7-1.4 13-2 3.3-.6 8.7-1.5 12-1.9l6-.8-6.1-.2c-3.3 0-6.3.2-6.7.5z"
     fill="#339"
     stroke="#339"
     stroke-width="4.8"
     id="path273935" />
  <g
     stroke="#000"
     stroke-width="4.8"
     id="g273943">
    <path
       d="M123.9 597.5c-.3.2-11.5.9-25 1.5-47.1 2-74.4 3.1-79.9 3.3l-5.5.2-3.2 6.6C.3 629.7-1.8 656.9 4 689.5c.6 3.3 1.4 7.8 1.8 10 .7 4.1 2.6 5.3 6 4 2-.8 6.1-1 35.7-2.1 12.1-.5 20.8-1 19.4-1.2-3.8-.4-5.9-3.3-6.7-8.9l-.7-4.8H46.7c-14.8-.1-16.1-.7-16.3-8.1-.1-2.5-.9-5.3-1.8-6.3-2.1-2.3-2-4.4.2-6.3 1.7-1.5 7.7-3 11.7-2.9 1 0 2.5-.5 3.2-1 .7-.6 2.5-.8 4.1-.4 2.8.6 2.8.6 4.5-7.2.9-4.3 1.7-9 1.8-10.3v-2.5l1.1 2.3c.8 1.7 1.9 2.2 3.7 2 2.2-.2 2.6-.8 2.6-3.3 0-3.4-3-5.4-9.6-6.2-3.2-.5-4.2-1.2-5.9-4.5-1.1-2.1-2-4.5-2-5.4 0-2.8 4.4-3.8 11.7-2.7 7.7 1.2 51.4.1 62.8-1.6 3.9-.6 13.8-1.1 22-1.2 8.3 0 16.1-.4 17.4-.8l2.3-.6-2.3-1.2c-1.3-.6-5-2.3-8.1-3.8-3.2-1.4-5.8-3-5.8-3.4 0-.3-1.4-1.5-3-2.5-1.7-.9-5.8-4-9.2-6.7-6-4.8-7-5.4-7.9-4.4z"
       id="path273937" />
    <path
       d="M692.3 602.9c-.7 1.1-2.7 2.8-4.5 3.7-1.8.9-3.9 2.5-4.6 3.6-.7 1-1.8 1.6-2.3 1.3-.5-.4-2.1.2-3.7 1.3-1.5 1.1-4 2.3-5.5 2.8-2.8.9-2.8 1-.9 3.1 1.7 2 2.3 2.1 5.7 1.2 2.1-.6 6.1-.8 8.9-.5 2.8.4 6.6.7 8.4.8 1.8.1 3.2.7 3.2 1.4s.5 1.4 1.1 1.6c1.8.6-.2 9.8-2.3 11.2-1.3.8-2.4.5-4.7-1.2-1.7-1.2-4.4-2.5-6.1-2.8-1.6-.4-3-1.3-3-2 0-1.6-1.4-1.8-3.9-.5-2.4 1.3-11.1-.6-11.1-2.5 0-.8-.7-1.4-1.5-1.4s-1.5-.5-1.5-1c0-.6-1-.4-2.3.4-1.2.8-3.1 1.5-4.2 1.5-4.5.1-17.2 2.1-19.8 3-2.5 1-42.8 2.8-48.6 2.3-4.6-.4-8.1 1.5-8.1 4.4 0 1.8.7 2.5 2.8 3 1.5.4 3.2 1.3 3.9 2.1.7.9 1.3 1.1 1.8.4.8-1.4 6.2-1.4 7-.1.3.5 3.9 1 7.9 1 5.7 0 7.9.4 9.7 1.8 3 2.5 2 5.2-2 5.2-3.9 0-8.1 1.9-8.1 3.7 0 1 .6 1.2 2.3.7 4.3-1.5 11.7-.5 11.7 1.4 0 .6-1.6 2.2-3.5 3.6l-3.5 2.7-2.9-2c-2.3-1.7-4.4-2.1-10.3-2.1-4.9 0-8.1-.5-9.4-1.4-1.3-1-3.3-1.3-6.1-.9-3.1.4-5 .1-6.9-1.2-1.4-.9-4.8-1.8-7.6-1.9-5.7-.3-7.8-1.8-6.2-4.4.6-.9 2.1-1.8 3.3-2 1.8-.3 2-.6 1-1.8-1.7-2.1-3.3-1.7-6.9 1.6-3.2 3-8.2 4.1-9.5 2-.4-.6-2.6-.8-5.5-.4-4.1.5-5.3.3-7.6-1.5-3.5-2.8-5.8-2.7-7.9.5-1.5 2.3-1.5 2.7-.1 4.3 2.2 2.5 2 4-.8 5.2-2 .9-3.1.7-7-1.6-2.5-1.5-4.9-3.2-5.4-3.9-1-1.7-4.2-2.9-7.2-2.7-1.4.1-4.3-.9-6.3-2.3-2.1-1.5-4.6-2.6-5.6-2.6s-4.4-.9-7.6-2c-3.5-1.2-9-2.1-14.4-2.2l-8.6-.3-.3-2.8c-.3-2.4-.7-2.8-2.5-2.3-1.2.4-4.1.9-6.4 1.2-2.4.4-4.3 1.2-4.3 1.8 0 .7-2.6 1.1-7.2 1.2-4 0-14.5.7-23.3 1.4-26.7 2.1-59.4.2-84.4-5-9-1.9-16.5-1.8-17.7.1-.3.5-1.6.9-2.9.9-1.3 0-2.8.7-3.3 1.6-.9 1.6-7.4 4.3-10.8 4.4-1.2 0-4.2 1.1-6.7 2.4-2.5 1.4-6.8 3.2-9.4 4-5.5 1.6-11.7 4.1-15.3 6-1.4.7-4.6 1.8-7.1 2.4-2.6.7-7.5 2.9-11 5-6.8 4-8.7 5-15.9 8-8.9 3.7-10.9 4.4-11.8 3.8-1.3-.8-14.2 4.5-13.6 5.6.3.4-.2 1.1-1 1.4-1 .4-1.6 1.9-1.6 4.1 0 3.1.2 3.5 2.3 3 1.2-.3 5.8-.9 10.2-1.3 4.4-.4 11.2-1.8 15-3.1 3.9-1.4 8.8-2.9 11-3.3 4.3-1 16.3-4.6 26-7.8 12.5-4.2 16.1-5.4 20.5-6.3 12.4-2.8 20.9-5 25-6.5 2.5-.9 7-1.7 10.1-1.8 4.8-.2 6-.6 8-2.9s3.3-2.8 7.4-2.9c2.8-.1 5.8-.5 6.7-1 2.4-1.1 3.5 1.2 1.4 2.8-1 .7-1.6 1.6-1.5 2 .1.5-2 2.3-4.7 4.2-5.1 3.4-16.4 13.9-16.4 15.2 0 1.5-3 3.2-6.2 3.5-1.8.2-6.2 1.1-9.6 2.1-5 1.3-6.6 2.2-7.3 4.2-.7 1.8-1.4 2.2-2.7 1.6-2.3-1-10.4-.6-24.1 1.2-8.2 1.1-14.2 2.6-21 5.4-5.3 2-10.7 4.1-12.1 4.5-1.4.4-5.1 2.5-8.2 4.6-3.1 2.2-6 3.9-6.4 3.9-.7 0-3.2 2.3-8.6 7.8-2.3 2.3-3.7 3-5.2 2.6-3.1-.9-5.5-3.4-4.9-5 .6-1.7-.9-1.8-2.6-.2-1 1.1-1.5.9-2.6-.5-1.5-2.1-5.5-1.5-5.5.8 0 .8-1.1 2.2-2.5 3.1-2.1 1.3-2.5 2.2-2 4.3.4 2.1 0 3.2-2 4.9-1.4 1.2-2.5 2.8-2.5 3.5 0 2.8-3.7 4.8-8.6 4.8-8.9-.1-14.4.5-15.6 1.7-1.5 1.5-7.4 1.6-8.3.2-.3-.6-2.6-1-4.9-1-3.2 0-5 .6-7 2.5-2.5 2.3-3.4 2.5-12.3 2.5-14.7 0-19.8-1.8-28.4-10-5.3-5-7.1-7.4-7.1-9.4 0-1.4-.4-2.4-.8-2.1-1.5 1-3.2-2.5-3.4-7.2-.3-6-1-7.3-4.2-7.3-1.4 0-3.5-1.1-4.8-2.5-2.2-2.4-2.3-2.7-1-7.6 2.4-9.3 8.1-19.4 15.3-27.2 3.9-4.2 5.1-4.5 7.3-1.9 2.9 3.2 10.1 26.3 10 31.9 0 4.3.3 5.3 1.9 5.8 1 .4 2.3.3 2.9 0 1.3-.8 1.3-8.8-.1-10.2-1.1-1.1-2.8-16-2.9-24.5 0-6.4 3.9-10.2 6.1-5.7 1.5 3.1 2.8 6.5 3.3 9 .3 1.5 1.3 3 2.2 3.3 2.6 1 4.4-2.3 3.7-7.1-.4-3.1-.1-5 1.1-6.8l1.7-2.6 2.9 2.1c1.5 1.1 3.3 2 3.8 2 .6 0 3.3 1.6 6.2 3.5 2.9 1.9 5.8 3.5 6.5 3.5.7 0 1.8.6 2.4 1.4.7.8 2.5 1.8 4.1 2.1 1.6.3 5 2.6 7.6 5 2.6 2.4 5.3 4.6 6 4.9.8.3 1.4 1.3 1.4 2.1 0 2 2.5 1.4 9.4-2.2 2.7-1.4 6.3-2.6 8-2.5 1.9 0 3.5-.6 4.4-1.9 1.5-2.2 14.4-8.6 19.1-9.5 1.7-.4 3.6-1.3 4.2-2 .6-.8 2.4-1.4 3.9-1.4s3.5-.9 4.6-2.1c1-1.1 2.6-1.8 3.6-1.5 2 .5 9.8-2.2 9.8-3.5 0-1.4-12.4-1.6-14.1-.2-.9.7-4 1.3-7.1 1.3-3.6 0-6 .5-6.7 1.4-2 2.4-7 3-9.1 1.1-1.9-1.7-3-1.5-6.5 1.5-2.6 2.2-10.7 4.4-13.2 3.6-1.3-.4-2.6.1-3.8 1.4-2.1 2.3-6.3 2.6-9.1.6-1.5-1.2-1.7-1.7-.6-2.7 1.7-1.8 1.5-5.6-.3-6.2-1.5-.7-2.9.9-3 3.3 0 2.9-3.7 2.2-7.5-1.5-2.9-2.9-4.3-3.5-6-3-2.3.7-9-1.9-9-3.5 0-.6-.8-1-1.9-1-1 0-3.5-.7-5.6-1.5-5.4-2.3-3.2-4.1 5.9-4.8 4.1-.3 8.3-1 9.4-1.6 1.3-.7 2.2-.7 3.1.2 1 .9 1.4.8 2.2-.6.7-1.2 2.3-1.7 5.5-1.7 3 0 5.4-.7 7-1.9 1.6-1.2 4-1.9 7.6-1.9 2.9 0 6.6-.7 8.3-1.6 1.6-.8 3.8-1.3 5-1.1 1.1.3 2.6.1 3.4-.4 2.5-1.6 0-3.1-5.3-3.1-3 0-7.6-.6-10.2-1.4-13.2-3.9-16.3-4.4-17.5-3-.6.8-1.8 1.4-2.6 1.4-.7 0-3.1.9-5.3 2-6.6 3.4-19.9 5.9-33.6 6.4-12.9.4-15.6.9-18.4 3.1-1.6 1.2-11.4 4.5-13.5 4.5-.6 0-2 .9-3 2s-2.4 2-3.2 2c-2.9 0-9.8 7.7-11.3 12.6-.8 2.7-1.5 5.3-1.5 5.9 0 .5-.4 1.6-.8 2.3-.6.8.8 2.7 4 5.6 4.1 3.8 4.6 4.7 3.7 6.3-.8 1.2-2.2 1.7-4.4 1.5-1.7-.1-3 .1-2.8.5 2.8 6.5 5.6 11.2 7.1 11.6 2.7.8 2 3.6-1 4.3-4.6 1-5.3 1.3-5.3 2.5 0 .7.9.9 2.4.5 3-.7 5.6.2 5.6 1.9 0 .8-1 3.1-2.2 5.2-2.9 4.9-4.8 10.2-4.2 11.8.3.7 2 1.6 3.7 1.9 5.5 1.1 7 3 7.1 8.6.1 4.3.6 5.4 3.1 7.5 5.4 4.6 11.3 8.5 12.7 8.5.8 0 1.8.4 2.3.9 2.4 2.1 16.4 3.3 26.2 2.1 17.5-2 38.8-6.4 43.5-9 1-.6 2.7-1 3.8-1 1.1 0 2.9-.5 4-1.2 1.5-.9 2.4-.9 4.3.1 1.8.9 2.9 1 4.3.2 3-1.6 17-6.1 19.3-6.1 1.2 0 2.1-.5 2.1-1 0-.6 1.1-1 2.5-1s3.3-.4 4.3-1c.9-.5 5.8-2.1 10.7-3.6 5-1.4 9.9-3 11-3.4 1.1-.4 4.7-1.6 8-2.5 5.9-1.6 10-3 14-4.5 4.2-1.6 19.1-6 20.1-6 .6 0 3.3-.8 6-1.9 2.7-1 7.6-2.6 10.9-3.6 3.3-.9 6.8-2.1 7.7-2.6 1-.5 2.7-.9 3.7-.9 1.1 0 2.2-.4 2.5-.9.4-.5 2.5-1.2 4.9-1.6 2.3-.4 4.7-1 5.2-1.4 2-1.5 9.4-3.4 10.8-2.8 1.5.6 1.3 3.9-.3 6.2-.4.5-1 3.8-1.4 7.1-.6 5.7-.5 6.3 1.7 8 3.8 3.1 4.2 5.5 1.1 7.9l-2.7 2.2 3 9.5c5 15.4 8.9 22.4 17.5 31.4 10.4 10.9 13.5 12.3 28.1 13.3 12.4.9 16.7 2.5 16.7 6.1 0 1.6.7 2 3.5 2 1.9 0 3.5-.4 3.5-.8s3.5-1.4 7.8-2.1c20.6-3.3 37.8-7.1 40.2-8.9 1.5-1.2 2.6-3.1 2.8-5 .3-2.5.9-3.3 2.8-3.7 1.3-.3 3.5-.7 4.9-1 1.7-.4 3.2-1.9 4.6-4.8 3.5-6.9 7.9-12.7 14.1-18.8l5.8-5.7v-14.1c0-8.7-.4-14.2-1-14.6-1.5-1 .8-3.5 3.1-3.5 2.1 0 10.6 2.6 13.1 4 1 .6 2.7 1 3.8 1 1.1 0 2.8.4 3.8.9.9.5 5.8 2.1 10.7 3.6 5 1.5 9.8 3.1 10.7 3.6 1 .5 2.6.9 3.5.9 1.5 0 5.9 1.4 12.8 4 1.1.4 6.1 1.9 11 3.4 5 1.5 10 3.2 11.3 3.7 1.3.5 3.2.9 4.2.9 1.1 0 2 .3 2 .7 0 .5 3.5 1.7 7.8 2.7 4.2 1 8.4 2.2 9.2 2.6 6.5 3.2 6.9 3.3 8.5 2 1.2-1 2.3-.8 6 .9 2.5 1.1 5 2.1 5.6 2.1.6 0 2.5.6 4.2 1.3 4.3 1.8 8.4 3.1 19.2 5.8 7.2 1.8 12 2.2 24 2.3 18.9.1 26.9-1.9 34-8.8 4.2-4 4.5-4.6 4.5-9.7 0-5.4.1-5.4 4.5-8.1 6.6-4 7.2-6.6 3.5-14.6-1.6-3.5-3-6.6-3-6.8 0-.2 1.8-.4 4-.4s4-.5 4-1c0-.6-.6-1-1.4-1-2.2 0-2.5-3.7-.6-7.3 1.7-3.2 4.1-15.8 4.5-23.2.1-1.7.5-3.9 1-4.9.5-1.2.3-3-.5-5-.7-1.7-1.4-4.8-1.4-6.9-.1-3-.7-4.2-2.8-5.4-1.4-.9-3.3-2.9-4.2-4.5-1.2-1.9-2.5-2.8-4.2-2.8-3.1 0-4.1-2.4-2.1-5.4.9-1.3 1.7-4.8 1.9-7.7l.3-5.4 23.5-.6c12.9-.4 26.2-1 29.6-1.3 7-.7 8.8.4 9.9 6.6.9 4.7-.8 5.6-9.3 5.4-4.9-.1-6.8.3-8.3 1.7-1.9 1.8-2.1 4.9-.5 7.5 1 1.6-1.1 4.2-3.3 4.2-2.6 0-4.1 2.1-4.1 5.5 0 3.8 4.4 7.5 8.8 7.5 1.6 0 3.2.3 3.6.7.3.4 3 .8 5.8 1 8.1.5 8.6 1.4 8.4 14.8-.2 9.7-.5 11.9-2.2 14.1-1.8 2.5-2.4 2.7-9.4 2.6-4.1-.1-8.6-.4-10.1-.7-1.8-.4-3.7.3-7 2.7-2.4 1.8-6.4 4.2-8.9 5.4l-4.5 2.2 5.5.1c17.1.3 35.7 1.3 44.3 2.2 5.4.6 10 1 10.2.7.2-.2.7-2.2 1-4.3.3-2.2 1-6.5 1.5-9.5s1.3-8.3 1.6-11.8c.4-3.4 1.1-6.5 1.5-6.8 1.2-.7 1.1-28 0-30.2-.5-.9-1.5-4.4-2.1-7.7-1.6-7.8-6.1-21.5-7.2-21.5-.4 0-.8-.8-.8-1.8 0-4.9-.6-5-32.5-6.2-16.5-.6-36.3-1.3-44-1.6-13.4-.6-14.1-.5-15.2 1.5zm-68.1 42.3c1.8-1.8 5.3-1.5 7.2.7 1.6 1.8 1.6 2-.6 3.5-1.2.9-2.8 1.6-3.4 1.6-.6 0-1.7.7-2.4 1.5-1.5 1.8-4.2 1.9-5.8.3-.8-.8-.9-1.5-.1-2.5.8-.9.8-1.7-.1-2.8-1.7-2.1-.3-3.7 2-2.3 1.5 1 2.2 1 3.2 0zm-193.6 12.3c1.6.8 3.8 1.5 4.8 1.5 4.6 0 8.3 6.9 5.4 9.8-2.1 2.1-1.6 11.3 1 15.4l2.3 3.7 5-3.2c8.9-5.7 11.9-6.9 13.5-5.6 1.1.9 1.1 1.5.3 2.5-.9 1.1-.8 1.4.4 1.4 2.6 0 9.6 9.1 11.2 14.6 1.6 5.6 1.1 14.9-1 17.4-.7.8-1.2 3.3-1.1 5.5.1 2.2-.3 4.6-.8 5.4-.6.7-1.1 2-1.3 3-.6 4.5-2.8 10.7-4 11.4-.7.5-1.1 1.2-.8 1.6.2.5-.4 1.1-1.4 1.4-1 .2-2.5 1.7-3.3 3.3-1.2 2.4-1.9 2.9-4.8 2.7-3.8-.2-5.5 1.4-3.8 3.4 1.6 2 .3 4-4.2 6.3-2.2 1.1-4 1.8-4 1.6 0-.3-1.4.8-3.2 2.4-2.5 2.3-3.5 2.7-5.1 1.9-1.5-.9-1.8-1.7-1.2-4.7 1-5.6-.5-24.2-2-24.2-2.2 0-2.6-3-1.1-8.8 1.4-5.8 1.5-17.9.2-20-.4-.7-2-1.2-3.6-1.2-3.9 0-7.6 5-8.3 11.2-.5 5.2-2.9 9.8-5.2 9.8-2.1 0-8.4-4.3-8.5-5.8 0-.8.9-1.6 2-1.9 1.7-.4 2-1.4 2-5.5 0-3.5-.3-4.7-1.2-4.2-.7.4-.8.3-.4-.4s1.3-1.2 1.9-1.2c2.4-.1 6.7-7.2 6.7-11.2 0-3.6-.1-3.7-2-2.6-1.1.7-2 2.4-2 3.8 0 3.3-2.6 7-4.9 7-1 0-2.9-.8-4.2-1.8-1.3-1-3.5-2.3-4.9-3-5.8-3-8-4.4-11-7.2-1.8-1.7-3.8-3-4.6-3-.8 0-2.4-1.5-3.6-3.4-1.3-1.9-3.7-4.2-5.5-5-1.8-.9-3.3-2-3.3-2.6 0-.5-.6-1-1.4-1-1.6 0-2.8-2.4-2.1-4.3.5-1.2 5.2-3.7 7.8-4.1 2.5-.3 6.7-4.4 6.7-6.5 0-1.6.6-2.1 2.8-2.1 1.5 0 3.3-.5 4-1.2.7-.7 6.1-1.2 14.5-1.4 7.3-.2 14.4-.8 15.8-1.3 3.6-1.4 8.3-1.3 11.5.4zm61.9 4.9c1.1.7 3.4 1.7 5.1 2 1.8.4 4 1.6 5 2.7 1.8 2 4.4 2.5 6 1 .5-.6 2.4-.2 4.8 1 2.2 1 5.2 1.9 6.7 1.9 1.4 0 4.2.6 6 1.4 1.9.7 6 1.7 9.1 2 6.1.8 7.7 1.8 5.8 4.1-1.2 1.4-.9 1.7 3.8 4.2 2 1.1 2.2 1 2.2-1.6 0-1.5.5-3.2 1.2-3.9 1.9-1.9 7.3-1.4 9.3.8 1.3 1.5 3.1 2 6.8 2 5.8 0 11.7 3.1 11.7 6.1 0 2.4 1.1 2.4 4.4-.2 1.9-1.5 2.5-2.7 2.1-4-.4-1.1-.1-2.6.5-3.4 2.2-2.7 6.3-1.7 11.5 2.8 4.7 4 5.3 4.3 11 4.2 3.3-.1 7.6-.7 9.5-1.5 6.9-2.7 14.5-6.7 14.5-7.6.1-1.5 6.9-8.2 9.1-8.8 1.2-.4 2.4-1.5 2.7-2.6.7-2.7 3.3-3.5 6.4-2.1 2.3 1.1 2.5 1.6 2 5.3-.3 2.3-.3 5.5 0 7.1.6 2.8.8 2.9 4.7 2.3 2.4-.4 4.8-1.5 5.7-2.7 3.2-4.2 7.4-.4 5.1 4.5-3.4 7.3-4.4 12.5-4.3 24 0 10.2.5 11.6 4.4 11.6 1.6 0 4.2-2.2 7.2-6.2.6-.7 1.6-3.2 2.3-5.6.7-2.4 1.9-4.5 2.7-4.8 1-.4 1.4-2.2 1.3-6.1-.1-3 .3-5.8.8-6.1.5-.4 1.5-3.8 2.1-7.6.7-3.8 1.6-7.3 2.2-7.9 1.6-1.6 4 1 4.6 5.2.3 2 1 4.4 1.6 5.4.5.9.7 2.8.3 4.1-.5 2-.2 2.5 1.7 2.8 1.3.2 3 1.6 3.9 3.1 1.4 2.6 1.4 2.9-.3 4.2-1 .7-2.7 1.1-3.7.8-1.1-.3-2-.1-2 .3-.8 14.5-1.9 20.4-4 20.4-.5 0-1 .9-1 1.9 0 2-5.7 7.1-7.9 7.1-.7 0-2.9 1.2-4.8 2.8-3.4 2.5-4.4 2.7-15.2 3-10.7.4-16.6-.3-27.6-3-2.2-.5-7.7-1.4-12.3-2-7-.9-8.7-.8-11.5.6-3.1 1.5-3.3 1.5-5.2-.9-1.2-1.4-2.6-2.5-3.2-2.5-.6 0-1.9-.7-2.7-1.6-1.2-1.2-1.3-2-.6-3.5 1.2-2.1 4.5-2.6 5.5-.8.4.6 1.3.8 2.1.5.7-.3 1.6-.2 1.8.3.3.4 2 .6 3.8.3 6.2-.8 7.4-6.2 1.4-6.2-1.8 0-3.6.3-4 .7-.4.4-3.5.8-6.9.9-6 .1-6.3-.1-9.9-3.8-2-2.1-4.3-3.8-5.1-3.8-.8 0-3.1 1.6-5.1 3.5-2.1 1.9-4.5 3.5-5.5 3.5-1.9 0-4.4-2.4-5.4-5.2-.3-.9-3.2-3.4-6.5-5.6-3.2-2.3-6.6-5.2-7.5-6.5-.9-1.4-3-2.8-4.6-3.2-1.6-.3-3.7-1.5-4.7-2.6-.9-1-2.2-1.9-2.7-1.9-.6 0-2.1-1-3.4-2.2-1.2-1.2-3.1-2.2-4-2.3-1-.1-3.1-.7-4.6-1.4-1.6-.6-3.7-1.1-4.7-1.1s-3.7-.9-6.1-2c-5.1-2.3-18.7-2.8-21.8-.8-2.8 1.7-4.7-.3-5.5-5.8-.3-2.5-1.5-5.9-2.7-7.5-1.1-1.6-1.7-3.3-1.4-3.9.9-1.4 3.7-1.2 6 .4zm-118.7 41.1c1.7.8 3.2 1.9 3.2 2.4 0 .6 1.5 1.1 3.3 1.1 1.8 0 3.7.4 4.3.8.5.5 3.6 1.9 6.9 3.2 3.3 1.3 6.9 3.1 8 4.1 1.1.9 2.9 1.9 4 2.1 3.1.5 2.3 3.1-1.2 4-1.8.5-3.3 1.2-3.3 1.7 0 .4 1.5 1.2 3.3 1.7 1.7.6 3.2 1.6 3.3 2.4 0 .8.4 2.3.9 3.3.4 1 0 4.2-.9 7.6-.9 3.1-1.6 7.4-1.6 9.5 0 2-.7 5.1-1.6 6.7-.8 1.7-1.3 3.3-1 3.7.3.3.1 1.1-.5 1.9-.9 1-.8 1.7.1 2.8 1 1.2 1 1.8-.1 3.1-1.5 1.8-7.7 1.1-9.5-1.1-.6-.8-3.9-2.7-7.3-4.4-3.4-1.6-7.3-4.1-8.6-5.5-1.3-1.4-3.3-2.6-4.3-2.6-3.8 0-9.9-5.7-13.7-12.7-2-3.7-3.7-8-3.8-9.4-.1-1.4-.7-3.2-1.3-4-1.5-2-3.6-9.2-3.3-11.5.1-1-.1-2.7-.6-3.7-1.2-2.8.2-4.7 3.5-4.7 4.8 0 11-2.3 11-4 0-3.2 2.1-4 4.9-1.9 1.4 1.2 4.1 2.7 5.9 3.4z"
       id="path273939" />
    <path
       d="M382.7 677.7c-.4.6 1 1.3 3.2 1.7 2.1.3 4.5 1.3 5.2 2.2 1.6 2 9.2 5.4 11.9 5.4 1 0 2.5.7 3.4 1.5 2.2 2.2 3.6 1.8 3.6-1.1 0-2.4-.3-2.6-3.1-2-4.1.8-9.9-1.7-9.9-4.3 0-1.1-.4-2.2-.9-2.5-1.9-1.2-12.8-1.9-13.4-.9z"
       id="path273941" />
  </g>
  <path
     d="M413.6 617.2c.3.4-.9.8-2.5.8H408v19.3l6.8-.6c3.7-.4 8.4-.7 10.5-.7h3.7v-17.7l-7.9-.9c-4.4-.5-7.7-.6-7.5-.2z"
     fill="#03C"
     stroke="#03C"
     stroke-width="4.8"
     id="path273945" />
  <path
     d="M406.3 617.1c-3.4.4-7.9 1.2-10 1.8-2.1.6-5.3 1.1-7 1.1-1.8 0-5.3.5-7.8 1.2l-4.5 1.2v14.2l15.5.3 15.5.2v-19l3.3-.3c1.7-.2 2.8-.6 2.2-.9-.5-.3-3.8-.2-7.2.2z"
     fill="#03F"
     stroke="#03F"
     stroke-width="4.8"
     id="path273947" />
  <path
     d="M429 627c0 7.3.3 9 1.5 9s1.5-1.7 1.5-9-.3-9-1.5-9-1.5 1.7-1.5 9z"
     fill="#00C"
     stroke="#00C"
     stroke-width="4.8"
     id="path273949" />
  <path
     d="M432 626.9v9l3.3-.5c1.7-.3 5.9-.8 9.2-1.2l6-.7.3-6.1.3-6.1-6.9-1.6c-3.9-.9-8.2-1.7-9.6-1.7H432v8.9z"
     fill="#009"
     stroke="#009"
     stroke-width="4.8"
     id="path273951" />
  <path
     d="M451 627c0 6.9-.3 6.8 10.1 4.4 6.6-1.5 6.9-1.7 6.9-4.5 0-2.4-.6-3.2-2.2-2.8-.2 0-2-.7-4-1.5-2.1-.9-5.3-1.6-7.3-1.6H451v6z"
     fill="#006"
     stroke="#006"
     stroke-width="4.8"
     id="path273953" />
  <path
     d="M367.4 623c-.6.6-7.5 1.3-15.5 1.6-17.6.6-18.9.9-18.9 3.4 0 1 .4 2.1.8 2.4 1.7 1 24.6 4.6 33.7 5.2l9.5.7V622h-4.3c-2.4 0-4.8.5-5.3 1z"
     fill="#06F"
     stroke="#06F"
     stroke-width="4.8"
     id="path273955" />
  <path
     d="M468 627c0 2.5.4 3 1.8 2.6.9-.2 4.3-1.2 7.6-2.1 3.2-.9 5.7-1.8 5.5-1.9-.2-.2-3.7-.7-7.6-1l-7.3-.7v3.1z"
     fill="#003"
     stroke="#003"
     stroke-width="4.8"
     id="path273957" />
</svg>
