<svg width="250.893" height="42.42" viewBox="0 0 66.382 11.224" xmlns="http://www.w3.org/2000/svg"><g style="stroke-width:7.58938;stroke-miterlimit:4;stroke-dasharray:none"><g style="stroke-width:15.2641;stroke-miterlimit:4;stroke-dasharray:none" stroke-width="6.235"><path d="M153 8.5c-44.6 5.4-84.1 19.8-121.3 44.2C.3 73.3-30.6 105-51.4 138c-6.4 10.2-17.6 32.3-22.5 44.8-18.6 46.7-24.1 102.3-15 152.9C-81 380-62.9 420.2-34 458c10.1 13.2 37.1 39.7 51 50.1 36.5 27.4 76.9 44.9 120.7 52.4 70.2 12 142.5-3.1 200.9-42.1 62-41.3 103.6-103 119.3-176.7 5.1-23.6 6.8-60.2 4.2-85.7-2.9-27.7-12-60.8-23.8-86.7C417.4 123.6 381.5 81.5 339 53c-36.7-24.6-81.4-40.5-125.9-45-13.8-1.3-47.1-1.1-60.1.5zm69.2 50.2c17.9 12 35.9 31 45.2 47.6 12.2 21.8 17.7 50.4 15.6 81.2-1.1 15.9-2.6 25.5-9.1 58.5-4.4 22.3-5 26.7-4.7 35 .3 7.6.9 10.6 3 15.2 7.3 15.8 25.3 25 42.9 22 16.8-2.9 25.6-12.1 30.8-32.3 2-7.9 4.1-25.4 4.1-34.8l.1-5.6 3.5 5.5c9.9 15.4 19.4 39.7 23.3 60 14.4 75-11 139.4-69.4 175.7-38.4 23.9-79.4 34.3-130 32.9-56.6-1.5-102.3-17.3-136.9-47.4-24.5-21.3-41.2-49.9-47.2-80.9-2.2-10.9-2.4-35.1-.6-47.8 2.7-17.8 9.1-40.5 14.7-51.4l2.2-4.4.6 12.4c2.6 47.7 17 68.4 46.5 66.7 13.9-.8 25.9-8.1 31.9-19.5 7.6-14.2 6.8-26.9-3.8-61.8-6.9-22.9-9.7-35.2-10.8-47.7-2.4-25.8 4.5-49 21.2-70.7l4.2-5.4 1.1 10.7c2.1 18.9 7.4 32.2 16.8 42.3 10.3 11.1 22.7 16.3 39.1 16.3 18.3 0 32.8-6.3 47.1-20.5 7.9-7.8 9.8-10.4 14.3-19.5 2.8-5.8 6.3-15 7.8-20.5 2.5-9.3 2.7-11.4 2.7-31.5 0-16.6-.4-23.8-1.8-31.5-2.5-13.6-6.7-30-11.4-43.9-2.2-6.4-3.7-11.6-3.4-11.6.3 0 5 3 10.4 6.7z" fill="#003" stroke="#003" style="stroke-width:15.2641;stroke-miterlimit:4;stroke-dasharray:none" transform="matrix(.01971 0 0 .0196 1.988 .368)"/><path d="M212 53.3c0 .2 1.3 4.2 3 9 21 60.7 18.9 111.7-5.9 142.9-19.9 25.1-53.3 33.4-79.3 19.6-17.6-9.4-29.7-32.6-29.8-57.7 0-4.3 0-4.4-2-2.6-3.4 3.1-12.1 16.4-15.5 23.9-6.7 14.3-8 21-8 40.6 0 19.8.4 21.8 11 57.5 9.1 31 10.4 43.8 5.5 56.7-3 8-10.4 15.9-18.8 20-5.9 2.9-7.7 3.3-16.7 3.6-12.7.5-19.5-1.8-27.1-8.9-11.1-10.6-16.5-27.1-18.3-56.7l-.7-12.7-2.6 5.5c-12.4 26.8-18.2 68.5-13.4 95.8 5.2 29 17.8 52.6 40 74.7 21.7 21.6 45.9 35.9 76.6 45 9.6 2.9 32.1 7.6 33.1 6.9.4-.2 3.3.2 6.6 1 7 1.7 18.5 2.7 17.8 1.6-.3-.4-3.1-1.6-6.3-2.6-7.8-2.5-31.1-14.2-39.9-20.1-26.8-17.9-41.3-38.8-45.8-65.8-2-11.8-2.8-23.5-1.7-23.5.5 0 2.9 3 5.3 6.7 5.4 8.5 15.8 19.6 22.4 23.8 13.5 8.7 30.1 9 38.8.7 6.6-6.3 9.1-14.8 12.2-42.2 1.4-11.8 3-24.9 3.6-29 6-41.5 21.6-73.5 48.1-98.5 8.9-8.5 15.8-14 15.8-12.7 0 .6-1.4 4.1-3.1 7.9-4.8 10.6-13.6 37.8-15.8 48.8-8 39.8-3.1 73 14.3 96.1 18.9 25.2 49.2 28.5 71.6 7.7 10.2-9.4 17-20.9 22.1-37.3l2.4-7.5.3 8c.6 14-3 36.3-8.4 52.3-3.2 9.7-11.1 25.1-17.2 33.7-12.8 18-30.7 33.5-54.2 46.7-5.7 3.2-7.7 4.8-6.2 4.8 1.3 0 3.1-.4 4.1-1 1-.5 3.3-1.1 5.2-1.3 1.9-.2 6-1.2 9.1-2.1 3.2-1 6.8-1.9 8-2 1.3-.2 3-.6 3.8-1 5.3-2.2 15.9-5.3 16.4-4.8.3.3.6.1.6-.5 0-.9 3.7-2.4 5.5-2.3 1.5.1 25.4-13 33.5-18.5 32.6-21.9 54.1-52.1 63.4-89.2 3.7-14.7 4.9-25.1 4.9-42.3 0-23.8-2.8-42.5-9.5-63.5-3.2-9.9-14.9-34.6-18.8-39.5l-2-2.5v6.8c0 10.3-1.9 25.3-4.1 33.7-4.1 15.2-12.5 26-23.2 29.7-7.7 2.7-22.3 2.4-30-.6-7.4-2.9-16.4-11.2-19.9-18.3-5.9-12.1-5.8-19.9 1.2-53.8 7.6-36.6 8.4-43.1 8.4-68.5.1-18.9-.2-24.6-1.8-32-7.5-35.8-26-62.3-59.5-85.4-6.6-4.5-9.1-5.8-9.1-4.8z" fill="#cc4c00" stroke="#cc4c00" style="stroke-width:15.2641;stroke-miterlimit:4;stroke-dasharray:none" transform="matrix(.01971 0 0 .0196 1.988 .368)"/><path d="M212.4 261.8c-25.3 21.4-42.2 48.3-50.8 81.2-3.2 12-4.9 23-8 50.5-3.5 30.9-6 39.3-13.8 45.9-7.9 6.8-21.6 7.4-33.6 1.5-8.1-3.9-20.6-16-27.3-26.2-5.2-8.1-5.6-7.4-4 7.1 4.7 42.9 28.3 69.4 82.1 92.3l12.5 5.4 18-.2c27.3-.2 32.8-1.1 44.4-7.7 45.7-25.9 70.7-60.7 77.5-108.1 1.4-9.7 3-34 2-30-4.3 17-11.6 30.7-21.9 41.1-9.3 9.3-17.2 13.7-28.2 15.5-27.5 4.5-53.4-18.8-61.9-55.6-2.9-12.2-2.7-44 .4-59 3.3-16.6 12.2-43.8 17.7-54.5.9-1.7 1.4-3.4 1.2-3.6-.3-.3-3.1 1.7-6.3 4.4z" fill="#fc0" stroke="#fc0" style="stroke-width:15.2641;stroke-miterlimit:4;stroke-dasharray:none" transform="matrix(.01971 0 0 .0196 1.988 .368)"/></g><text xml:space="preserve" style="font-style:normal;font-variant:normal;font-weight:400;font-stretch:normal;font-size:133.333px;line-height:1.25;font-family:'Bernard MT Condensed';-inkscape-font-specification:'Bernard MT Condensed, Normal';font-variant-ligatures:normal;font-variant-caps:normal;font-variant-numeric:normal;font-variant-east-asian:normal;fill:#c4c8cf;fill-opacity:1;stroke:none;stroke-width:7.58938064;stroke-miterlimit:4;stroke-dasharray:none;stroke-opacity:1" x="336.154" y="303.703" transform="matrix(.03964 0 0 .03942 -1.053 -1.134)"><tspan style="font-style:normal;font-variant:normal;font-weight:400;font-stretch:normal;font-size:213.333px;font-family:'Bernard MT Condensed';-inkscape-font-specification:'Bernard MT Condensed, Normal';font-variant-ligatures:normal;font-variant-caps:normal;font-variant-numeric:normal;font-variant-east-asian:normal;fill:#c4c8cf;fill-opacity:1;stroke:none;stroke-width:7.58938064;stroke-miterlimit:4;stroke-dasharray:none;stroke-opacity:1" x="336.154" y="303.703">LUNC Burn Token</tspan></text></g></svg>